<?xml version="1.0" encoding="UTF-8" standalone="no"?>
<!DOCTYPE svg PUBLIC "-//W3C//DTD SVG 1.1//EN"
 "http://www.w3.org/Graphics/SVG/1.1/DTD/svg11.dtd">
<!-- Generated by graphviz version 12.2.1 (20241206.2353)
 -->
<!-- Title: G Pages: 1 -->
<svg width="328pt" height="188pt"
 viewBox="0.00 0.00 327.88 188.00" xmlns="http://www.w3.org/2000/svg" xmlns:xlink="http://www.w3.org/1999/xlink">
<g id="graph0" class="graph" transform="scale(1 1) rotate(0) translate(4 184)">
<title>G</title>
<polygon fill="white" stroke="none" points="-4,4 -4,-184 323.88,-184 323.88,4 -4,4"/>
<!-- :feature:detail:ui -->
<g id="node1" class="node">
<title>:feature:detail:ui</title>
<ellipse fill="none" stroke="black" cx="106.07" cy="-162" rx="71.82" ry="18"/>
<text text-anchor="middle" x="106.07" y="-156.95" font-family="Times,serif" font-size="14.00">:feature:detail:ui</text>
</g>
<!-- :core:ui -->
<g id="node2" class="node">
<title>:core:ui</title>
<ellipse fill="none" stroke="black" cx="39.07" cy="-90" rx="39.07" ry="18"/>
<text text-anchor="middle" x="39.07" y="-84.95" font-family="Times,serif" font-size="14.00">:core:ui</text>
</g>
<!-- :feature:detail:ui&#45;&gt;:core:ui -->
<g id="edge1" class="edge">
<title>:feature:detail:ui&#45;&gt;:core:ui</title>
<path fill="none" stroke="black" d="M89.85,-144.05C81.46,-135.29 71.08,-124.45 61.9,-114.86"/>
<polygon fill="black" stroke="black" points="64.71,-112.73 55.27,-107.92 59.65,-117.57 64.71,-112.73"/>
</g>
<!-- :core:common -->
<g id="node3" class="node">
<title>:core:common</title>
<ellipse fill="none" stroke="black" cx="166.07" cy="-18" rx="65.17" ry="18"/>
<text text-anchor="middle" x="166.07" y="-12.95" font-family="Times,serif" font-size="14.00">:core:common</text>
</g>
<!-- :feature:detail:ui&#45;&gt;:core:common -->
<g id="edge2" class="edge">
<title>:feature:detail:ui&#45;&gt;:core:common</title>
<path fill="none" stroke="black" d="M107.48,-143.55C109.49,-125.06 114.23,-95.36 125.07,-72 129.55,-62.34 136.07,-52.81 142.6,-44.55"/>
<polygon fill="black" stroke="black" points="145.18,-46.92 148.89,-37 139.8,-42.44 145.18,-46.92"/>
</g>
<!-- :feature:detail:domain -->
<g id="node4" class="node">
<title>:feature:detail:domain</title>
<ellipse fill="none" stroke="black" cx="227.07" cy="-90" rx="92.81" ry="18"/>
<text text-anchor="middle" x="227.07" y="-84.95" font-family="Times,serif" font-size="14.00">:feature:detail:domain</text>
</g>
<!-- :feature:detail:ui&#45;&gt;:feature:detail:domain -->
<g id="edge3" class="edge">
<title>:feature:detail:ui&#45;&gt;:feature:detail:domain</title>
<path fill="none" stroke="red" stroke-width="2" d="M133.83,-144.94C150.19,-135.47 171.13,-123.36 189.02,-113.01"/>
<polygon fill="red" stroke="red" stroke-width="2" points="189.07,-117.02 195.98,-108.99 185.57,-110.96 189.07,-117.02"/>
</g>
<!-- :feature:detail:domain&#45;&gt;:core:common -->
<g id="edge4" class="edge">
<title>:feature:detail:domain&#45;&gt;:core:common</title>
<path fill="none" stroke="red" stroke-width="2" d="M212.3,-72.05C205.03,-63.71 196.12,-53.49 188.07,-44.25"/>
<polygon fill="red" stroke="red" stroke-width="2" points="191.9,-43.31 182.69,-38.07 186.62,-47.91 191.9,-43.31"/>
</g>
</g>
</svg>
