<?xml version="1.0" encoding="UTF-8" standalone="no"?>
<!DOCTYPE svg PUBLIC "-//W3C//DTD SVG 1.1//EN"
 "http://www.w3.org/Graphics/SVG/1.1/DTD/svg11.dtd">
<!-- Generated by graphviz version 12.2.1 (20241206.2353)
 -->
<!-- Title: G Pages: 1 -->
<svg width="1447pt" height="260pt"
 viewBox="0.00 0.00 1446.53 260.00" xmlns="http://www.w3.org/2000/svg" xmlns:xlink="http://www.w3.org/1999/xlink">
<g id="graph0" class="graph" transform="scale(1 1) rotate(0) translate(4 256)">
<title>G</title>
<polygon fill="white" stroke="none" points="-4,4 -4,-256 1442.53,-256 1442.53,4 -4,4"/>
<!-- :app -->
<g id="node1" class="node">
<title>:app</title>
<ellipse fill="none" stroke="black" cx="708.13" cy="-234" rx="27" ry="18"/>
<text text-anchor="middle" x="708.13" y="-228.95" font-family="Times,serif" font-size="14.00">:app</text>
</g>
<!-- :core:ui -->
<g id="node2" class="node">
<title>:core:ui</title>
<ellipse fill="none" stroke="black" cx="371.13" cy="-90" rx="39.07" ry="18"/>
<text text-anchor="middle" x="371.13" y="-84.95" font-family="Times,serif" font-size="14.00">:core:ui</text>
</g>
<!-- :app&#45;&gt;:core:ui -->
<g id="edge1" class="edge">
<title>:app&#45;&gt;:core:ui</title>
<path fill="none" stroke="black" d="M680.81,-232.73C609.41,-231.4 419.91,-223.75 379.13,-180 364.33,-164.12 363.32,-139 365.45,-119.49"/>
<polygon fill="black" stroke="black" points="368.89,-120.1 366.86,-109.7 361.97,-119.1 368.89,-120.1"/>
</g>
<!-- :core:network -->
<g id="node3" class="node">
<title>:core:network</title>
<ellipse fill="none" stroke="black" cx="1324.13" cy="-90" rx="62.1" ry="18"/>
<text text-anchor="middle" x="1324.13" y="-84.95" font-family="Times,serif" font-size="14.00">:core:network</text>
</g>
<!-- :app&#45;&gt;:core:network -->
<g id="edge2" class="edge">
<title>:app&#45;&gt;:core:network</title>
<path fill="none" stroke="black" d="M735.25,-233.14C860.96,-233.5 1382.94,-231.86 1431.13,-180 1442.02,-168.28 1439.57,-157.59 1431.13,-144 1420.02,-126.09 1400.85,-114.05 1381.79,-106.04"/>
<polygon fill="black" stroke="black" points="1383.26,-102.85 1372.67,-102.53 1380.75,-109.39 1383.26,-102.85"/>
</g>
<!-- :feature:splash:data -->
<g id="node4" class="node">
<title>:feature:splash:data</title>
<ellipse fill="none" stroke="black" cx="972.13" cy="-162" rx="82.57" ry="18"/>
<text text-anchor="middle" x="972.13" y="-156.95" font-family="Times,serif" font-size="14.00">:feature:splash:data</text>
</g>
<!-- :app&#45;&gt;:feature:splash:data -->
<g id="edge3" class="edge">
<title>:app&#45;&gt;:feature:splash:data</title>
<path fill="none" stroke="red" stroke-width="2" d="M732.97,-226.41C773.16,-215.76 853.64,-194.42 910.1,-179.45"/>
<polygon fill="red" stroke="red" stroke-width="2" points="909.36,-183.26 918.13,-177.32 907.57,-176.5 909.36,-183.26"/>
</g>
<!-- :feature:login:data -->
<g id="node5" class="node">
<title>:feature:login:data</title>
<ellipse fill="none" stroke="black" cx="1151.13" cy="-162" rx="78.48" ry="18"/>
<text text-anchor="middle" x="1151.13" y="-156.95" font-family="Times,serif" font-size="14.00">:feature:login:data</text>
</g>
<!-- :app&#45;&gt;:feature:login:data -->
<g id="edge4" class="edge">
<title>:app&#45;&gt;:feature:login:data</title>
<path fill="none" stroke="black" d="M734.55,-229.48C793.7,-221.52 941.27,-201.14 1064.13,-180 1070.1,-178.97 1076.3,-177.86 1082.5,-176.71"/>
<polygon fill="black" stroke="black" points="1082.97,-180.18 1092.15,-174.89 1081.67,-173.3 1082.97,-180.18"/>
</g>
<!-- :feature:register:data -->
<g id="node6" class="node">
<title>:feature:register:data</title>
<ellipse fill="none" stroke="black" cx="1335.13" cy="-162" rx="87.18" ry="18"/>
<text text-anchor="middle" x="1335.13" y="-156.95" font-family="Times,serif" font-size="14.00">:feature:register:data</text>
</g>
<!-- :app&#45;&gt;:feature:register:data -->
<g id="edge5" class="edge">
<title>:app&#45;&gt;:feature:register:data</title>
<path fill="none" stroke="black" d="M735.24,-231C813.46,-225.08 1046.2,-206.38 1238.13,-180 1245.47,-178.99 1253.11,-177.84 1260.72,-176.61"/>
<polygon fill="black" stroke="black" points="1261.05,-180.11 1270.35,-175.03 1259.91,-173.2 1261.05,-180.11"/>
</g>
<!-- :feature:splash:ui -->
<g id="node7" class="node">
<title>:feature:splash:ui</title>
<ellipse fill="none" stroke="black" cx="462.13" cy="-162" rx="74.38" ry="18"/>
<text text-anchor="middle" x="462.13" y="-156.95" font-family="Times,serif" font-size="14.00">:feature:splash:ui</text>
</g>
<!-- :app&#45;&gt;:feature:splash:ui -->
<g id="edge6" class="edge">
<title>:app&#45;&gt;:feature:splash:ui</title>
<path fill="none" stroke="black" d="M683.64,-226.03C645.83,-215.27 572.16,-194.31 520.18,-179.52"/>
<polygon fill="black" stroke="black" points="521.15,-176.15 510.57,-176.78 519.23,-182.89 521.15,-176.15"/>
</g>
<!-- :feature:welcome:ui -->
<g id="node8" class="node">
<title>:feature:welcome:ui</title>
<ellipse fill="none" stroke="black" cx="85.13" cy="-162" rx="85.13" ry="18"/>
<text text-anchor="middle" x="85.13" y="-156.95" font-family="Times,serif" font-size="14.00">:feature:welcome:ui</text>
</g>
<!-- :app&#45;&gt;:feature:welcome:ui -->
<g id="edge7" class="edge">
<title>:app&#45;&gt;:feature:welcome:ui</title>
<path fill="none" stroke="black" d="M681.06,-231.05C602.97,-225.25 370.62,-206.87 179.13,-180 172.23,-179.03 165.07,-177.92 157.91,-176.75"/>
<polygon fill="black" stroke="black" points="158.64,-173.32 148.2,-175.11 157.48,-180.22 158.64,-173.32"/>
</g>
<!-- :feature:login:ui -->
<g id="node9" class="node">
<title>:feature:login:ui</title>
<ellipse fill="none" stroke="black" cx="625.13" cy="-162" rx="70.29" ry="18"/>
<text text-anchor="middle" x="625.13" y="-156.95" font-family="Times,serif" font-size="14.00">:feature:login:ui</text>
</g>
<!-- :app&#45;&gt;:feature:login:ui -->
<g id="edge8" class="edge">
<title>:app&#45;&gt;:feature:login:ui</title>
<path fill="none" stroke="black" d="M691.73,-219.17C680.75,-209.91 666.02,-197.49 653.2,-186.68"/>
<polygon fill="black" stroke="black" points="655.76,-184.26 645.86,-180.49 651.25,-189.61 655.76,-184.26"/>
</g>
<!-- :feature:register:ui -->
<g id="node10" class="node">
<title>:feature:register:ui</title>
<ellipse fill="none" stroke="black" cx="792.13" cy="-162" rx="78.99" ry="18"/>
<text text-anchor="middle" x="792.13" y="-156.95" font-family="Times,serif" font-size="14.00">:feature:register:ui</text>
</g>
<!-- :app&#45;&gt;:feature:register:ui -->
<g id="edge9" class="edge">
<title>:app&#45;&gt;:feature:register:ui</title>
<path fill="none" stroke="black" d="M724.33,-219.5C735.41,-210.27 750.39,-197.78 763.46,-186.89"/>
<polygon fill="black" stroke="black" points="765.53,-189.73 770.97,-180.64 761.05,-184.35 765.53,-189.73"/>
</g>
<!-- :feature:home:ui -->
<g id="node11" class="node">
<title>:feature:home:ui</title>
<ellipse fill="none" stroke="black" cx="260.13" cy="-162" rx="72.34" ry="18"/>
<text text-anchor="middle" x="260.13" y="-156.95" font-family="Times,serif" font-size="14.00">:feature:home:ui</text>
</g>
<!-- :app&#45;&gt;:feature:home:ui -->
<g id="edge10" class="edge">
<title>:app&#45;&gt;:feature:home:ui</title>
<path fill="none" stroke="black" d="M681.72,-229.59C621.85,-221.77 471.33,-201.53 346.13,-180 339.44,-178.85 332.46,-177.58 325.51,-176.28"/>
<polygon fill="black" stroke="black" points="326.61,-172.92 316.14,-174.49 325.3,-179.8 326.61,-172.92"/>
</g>
<!-- :feature:splash:data&#45;&gt;:core:network -->
<g id="edge12" class="edge">
<title>:feature:splash:data&#45;&gt;:core:network</title>
<path fill="none" stroke="black" d="M1033.33,-149.62C1109.44,-135.44 1231.98,-112.52 1253.13,-108 1257.66,-107.03 1262.35,-105.99 1267.05,-104.92"/>
<polygon fill="black" stroke="black" points="1267.56,-108.4 1276.52,-102.73 1265.99,-101.58 1267.56,-108.4"/>
</g>
<!-- :feature:splash:domain -->
<g id="node12" class="node">
<title>:feature:splash:domain</title>
<ellipse fill="none" stroke="black" cx="617.13" cy="-90" rx="95.37" ry="18"/>
<text text-anchor="middle" x="617.13" y="-84.95" font-family="Times,serif" font-size="14.00">:feature:splash:domain</text>
</g>
<!-- :feature:splash:data&#45;&gt;:feature:splash:domain -->
<g id="edge11" class="edge">
<title>:feature:splash:data&#45;&gt;:feature:splash:domain</title>
<path fill="none" stroke="red" stroke-width="2" d="M912.31,-149.2C851.79,-137.27 758.05,-118.79 692.49,-105.86"/>
<polygon fill="red" stroke="red" stroke-width="2" points="694.86,-102.76 684.37,-104.26 693.51,-109.63 694.86,-102.76"/>
</g>
<!-- :core:common -->
<g id="node13" class="node">
<title>:core:common</title>
<ellipse fill="none" stroke="black" cx="740.13" cy="-18" rx="65.17" ry="18"/>
<text text-anchor="middle" x="740.13" y="-12.95" font-family="Times,serif" font-size="14.00">:core:common</text>
</g>
<!-- :feature:splash:data&#45;&gt;:core:common -->
<g id="edge13" class="edge">
<title>:feature:splash:data&#45;&gt;:core:common</title>
<path fill="none" stroke="black" d="M974.84,-143.55C976.88,-123.66 976.8,-91.39 959.13,-72 939.28,-50.23 866.98,-35.73 810.81,-27.48"/>
<polygon fill="black" stroke="black" points="811.35,-24.02 800.96,-26.08 810.36,-30.95 811.35,-24.02"/>
</g>
<!-- :feature:login:data&#45;&gt;:core:network -->
<g id="edge16" class="edge">
<title>:feature:login:data&#45;&gt;:core:network</title>
<path fill="none" stroke="black" d="M1188.67,-145.81C1215.1,-135.11 1250.64,-120.74 1278.68,-109.39"/>
<polygon fill="black" stroke="black" points="1279.66,-112.77 1287.62,-105.77 1277.04,-106.28 1279.66,-112.77"/>
</g>
<!-- :feature:login:data&#45;&gt;:core:common -->
<g id="edge17" class="edge">
<title>:feature:login:data&#45;&gt;:core:common</title>
<path fill="none" stroke="black" d="M1113.82,-145.75C1090.71,-135.87 1060.66,-122.22 1035.13,-108 1009.93,-93.96 1007.67,-83.29 981.13,-72 926.27,-48.66 859.84,-35.04 810.63,-27.46"/>
<polygon fill="black" stroke="black" points="811.36,-24.03 800.95,-26.02 810.33,-30.95 811.36,-24.03"/>
</g>
<!-- :feature:login:domain -->
<g id="node14" class="node">
<title>:feature:login:domain</title>
<ellipse fill="none" stroke="black" cx="859.13" cy="-90" rx="91.27" ry="18"/>
<text text-anchor="middle" x="859.13" y="-84.95" font-family="Times,serif" font-size="14.00">:feature:login:domain</text>
</g>
<!-- :feature:login:data&#45;&gt;:feature:login:domain -->
<g id="edge15" class="edge">
<title>:feature:login:data&#45;&gt;:feature:login:domain</title>
<path fill="none" stroke="black" d="M1098.25,-148.32C1050.17,-136.8 978.97,-119.73 926.77,-107.21"/>
<polygon fill="black" stroke="black" points="927.61,-103.82 917.07,-104.89 925.98,-110.63 927.61,-103.82"/>
</g>
<!-- :feature:register:data&#45;&gt;:core:network -->
<g id="edge20" class="edge">
<title>:feature:register:data&#45;&gt;:core:network</title>
<path fill="none" stroke="black" d="M1332.41,-143.7C1331.25,-136.32 1329.87,-127.52 1328.57,-119.25"/>
<polygon fill="black" stroke="black" points="1332.06,-118.93 1327.05,-109.6 1325.15,-120.02 1332.06,-118.93"/>
</g>
<!-- :feature:register:data&#45;&gt;:core:common -->
<g id="edge21" class="edge">
<title>:feature:register:data&#45;&gt;:core:common</title>
<path fill="none" stroke="black" d="M1359.49,-144.5C1384.27,-125.78 1416.23,-94.88 1395.13,-72 1356.61,-30.23 981.38,-21.38 816.82,-19.5"/>
<polygon fill="black" stroke="black" points="816.89,-16 806.86,-19.39 816.82,-23 816.89,-16"/>
</g>
<!-- :feature:register:domain -->
<g id="node15" class="node">
<title>:feature:register:domain</title>
<ellipse fill="none" stroke="black" cx="1144.13" cy="-90" rx="99.97" ry="18"/>
<text text-anchor="middle" x="1144.13" y="-84.95" font-family="Times,serif" font-size="14.00">:feature:register:domain</text>
</g>
<!-- :feature:register:data&#45;&gt;:feature:register:domain -->
<g id="edge19" class="edge">
<title>:feature:register:data&#45;&gt;:feature:register:domain</title>
<path fill="none" stroke="black" d="M1293.69,-145.81C1265.42,-135.45 1227.74,-121.64 1197.27,-110.47"/>
<polygon fill="black" stroke="black" points="1198.83,-107.32 1188.24,-107.16 1196.42,-113.89 1198.83,-107.32"/>
</g>
<!-- :feature:splash:ui&#45;&gt;:core:ui -->
<g id="edge23" class="edge">
<title>:feature:splash:ui&#45;&gt;:core:ui</title>
<path fill="none" stroke="black" d="M440.57,-144.41C428.27,-134.95 412.71,-122.98 399.43,-112.77"/>
<polygon fill="black" stroke="black" points="401.94,-110.28 391.88,-106.96 397.67,-115.83 401.94,-110.28"/>
</g>
<!-- :feature:splash:ui&#45;&gt;:feature:splash:domain -->
<g id="edge25" class="edge">
<title>:feature:splash:ui&#45;&gt;:feature:splash:domain</title>
<path fill="none" stroke="black" d="M496.15,-145.64C518.19,-135.68 547.18,-122.59 571.25,-111.72"/>
<polygon fill="black" stroke="black" points="572.53,-114.98 580.2,-107.68 569.65,-108.6 572.53,-114.98"/>
</g>
<!-- :feature:splash:ui&#45;&gt;:core:common -->
<g id="edge24" class="edge">
<title>:feature:splash:ui&#45;&gt;:core:common</title>
<path fill="none" stroke="black" d="M465.08,-143.78C469.49,-123.47 479.81,-90.19 502.13,-72 527.54,-51.29 609.3,-36.24 669.94,-27.59"/>
<polygon fill="black" stroke="black" points="670.08,-31.1 679.5,-26.25 669.11,-24.17 670.08,-31.1"/>
</g>
<!-- :feature:welcome:ui&#45;&gt;:core:ui -->
<g id="edge26" class="edge">
<title>:feature:welcome:ui&#45;&gt;:core:ui</title>
<path fill="none" stroke="black" d="M139.26,-147.75C193.46,-134.49 275.88,-114.31 326.47,-101.93"/>
<polygon fill="black" stroke="black" points="327.02,-105.4 335.9,-99.62 325.36,-98.6 327.02,-105.4"/>
</g>
<!-- :feature:welcome:ui&#45;&gt;:core:common -->
<g id="edge27" class="edge">
<title>:feature:welcome:ui&#45;&gt;:core:common</title>
<path fill="none" stroke="black" d="M114.08,-144.65C151.92,-124.09 220.81,-89.4 284.13,-72 414.39,-36.21 572.07,-24.58 663.75,-20.81"/>
<polygon fill="black" stroke="black" points="663.77,-24.31 673.63,-20.42 663.5,-17.31 663.77,-24.31"/>
</g>
<!-- :feature:login:ui&#45;&gt;:core:ui -->
<g id="edge28" class="edge">
<title>:feature:login:ui&#45;&gt;:core:ui</title>
<path fill="none" stroke="black" d="M578.54,-148.16C531.94,-135.32 460.79,-115.71 415.12,-103.12"/>
<polygon fill="black" stroke="black" points="416.12,-99.77 405.55,-100.49 414.26,-106.52 416.12,-99.77"/>
</g>
<!-- :feature:login:ui&#45;&gt;:core:common -->
<g id="edge29" class="edge">
<title>:feature:login:ui&#45;&gt;:core:common</title>
<path fill="none" stroke="black" d="M572.96,-149.6C550.52,-141.83 526.42,-128.99 513.13,-108 504.57,-94.48 503.19,-84.53 513.13,-72 532.3,-47.84 609.12,-33.66 668.14,-26.14"/>
<polygon fill="black" stroke="black" points="668.31,-29.65 677.81,-24.95 667.45,-22.7 668.31,-29.65"/>
</g>
<!-- :feature:login:ui&#45;&gt;:feature:login:domain -->
<g id="edge30" class="edge">
<title>:feature:login:ui&#45;&gt;:feature:login:domain</title>
<path fill="none" stroke="black" d="M669.7,-147.67C706.5,-136.66 759.07,-120.93 799.5,-108.84"/>
<polygon fill="black" stroke="black" points="800.26,-112.26 808.84,-106.04 798.26,-105.56 800.26,-112.26"/>
</g>
<!-- :feature:register:ui&#45;&gt;:core:ui -->
<g id="edge31" class="edge">
<title>:feature:register:ui&#45;&gt;:core:ui</title>
<path fill="none" stroke="black" d="M733.96,-149.48C724.02,-147.59 713.79,-145.7 704.13,-144 602.97,-126.18 484.04,-107.89 419.23,-98.15"/>
<polygon fill="black" stroke="black" points="420.06,-94.73 409.65,-96.71 419.02,-101.65 420.06,-94.73"/>
</g>
<!-- :feature:register:ui&#45;&gt;:core:common -->
<g id="edge32" class="edge">
<title>:feature:register:ui&#45;&gt;:core:common</title>
<path fill="none" stroke="black" d="M779.53,-144.15C772.57,-134.12 764.32,-120.87 759.13,-108 751.3,-88.6 746.49,-65.45 743.66,-47.63"/>
<polygon fill="black" stroke="black" points="747.13,-47.14 742.23,-37.75 740.2,-48.14 747.13,-47.14"/>
</g>
<!-- :feature:register:ui&#45;&gt;:feature:register:domain -->
<g id="edge33" class="edge">
<title>:feature:register:ui&#45;&gt;:feature:register:domain</title>
<path fill="none" stroke="black" d="M850.26,-149.44C909.69,-137.62 1002.33,-119.2 1067.68,-106.2"/>
<polygon fill="black" stroke="black" points="1068.12,-109.68 1077.25,-104.3 1066.76,-102.82 1068.12,-109.68"/>
</g>
<!-- :feature:home:ui&#45;&gt;:core:ui -->
<g id="edge34" class="edge">
<title>:feature:home:ui&#45;&gt;:core:ui</title>
<path fill="none" stroke="black" d="M285.88,-144.76C301.83,-134.7 322.44,-121.71 339.4,-111.01"/>
<polygon fill="black" stroke="black" points="341.03,-114.12 347.62,-105.83 337.3,-108.2 341.03,-114.12"/>
</g>
<!-- :feature:home:ui&#45;&gt;:core:common -->
<g id="edge35" class="edge">
<title>:feature:home:ui&#45;&gt;:core:common</title>
<path fill="none" stroke="black" d="M267.18,-143.59C276.59,-122.77 295.38,-88.66 323.13,-72 378.99,-38.47 559.79,-25.93 664.07,-21.41"/>
<polygon fill="black" stroke="black" points="664.11,-24.91 673.95,-21 663.82,-17.92 664.11,-24.91"/>
</g>
<!-- :feature:splash:domain&#45;&gt;:core:common -->
<g id="edge14" class="edge">
<title>:feature:splash:domain&#45;&gt;:core:common</title>
<path fill="none" stroke="red" stroke-width="2" d="M646.28,-72.41C663.1,-62.84 684.45,-50.69 702.52,-40.4"/>
<polygon fill="red" stroke="red" stroke-width="2" points="702.87,-44.23 709.83,-36.25 699.4,-38.15 702.87,-44.23"/>
</g>
<!-- :feature:login:domain&#45;&gt;:core:common -->
<g id="edge18" class="edge">
<title>:feature:login:domain&#45;&gt;:core:common</title>
<path fill="none" stroke="black" d="M830.93,-72.41C814.73,-62.88 794.2,-50.8 776.76,-40.55"/>
<polygon fill="black" stroke="black" points="778.6,-37.57 768.21,-35.52 775.05,-43.6 778.6,-37.57"/>
</g>
<!-- :feature:register:domain&#45;&gt;:core:common -->
<g id="edge22" class="edge">
<title>:feature:register:domain&#45;&gt;:core:common</title>
<path fill="none" stroke="black" d="M1073.76,-76.81C998.07,-63.69 878.7,-43.01 805.15,-30.27"/>
<polygon fill="black" stroke="black" points="806.14,-26.88 795.69,-28.63 804.94,-33.78 806.14,-26.88"/>
</g>
</g>
</svg>
