<?xml version="1.0" encoding="UTF-8" standalone="no"?>
<!DOCTYPE svg PUBLIC "-//W3C//DTD SVG 1.1//EN"
 "http://www.w3.org/Graphics/SVG/1.1/DTD/svg11.dtd">
<!-- Generated by graphviz version 12.2.1 (20241206.2353)
 -->
<!-- Title: G Pages: 1 -->
<svg width="614pt" height="188pt"
 viewBox="0.00 0.00 613.99 188.00" xmlns="http://www.w3.org/2000/svg" xmlns:xlink="http://www.w3.org/1999/xlink">
<g id="graph0" class="graph" transform="scale(1 1) rotate(0) translate(4 184)">
<title>G</title>
<polygon fill="white" stroke="none" points="-4,4 -4,-184 609.99,-184 609.99,4 -4,4"/>
<!-- :feature:favorites:data -->
<g id="node1" class="node">
<title>:feature:favorites:data</title>
<ellipse fill="none" stroke="black" cx="237.58" cy="-162" rx="91.78" ry="18"/>
<text text-anchor="middle" x="237.58" y="-156.95" font-family="Times,serif" font-size="14.00">:feature:favorites:data</text>
</g>
<!-- :feature:favorites:domain -->
<g id="node2" class="node">
<title>:feature:favorites:domain</title>
<ellipse fill="none" stroke="black" cx="104.58" cy="-90" rx="104.58" ry="18"/>
<text text-anchor="middle" x="104.58" y="-84.95" font-family="Times,serif" font-size="14.00">:feature:favorites:domain</text>
</g>
<!-- :feature:favorites:data&#45;&gt;:feature:favorites:domain -->
<g id="edge1" class="edge">
<title>:feature:favorites:data&#45;&gt;:feature:favorites:domain</title>
<path fill="none" stroke="red" stroke-width="2" d="M206.73,-144.76C188.78,-135.32 165.9,-123.28 146.35,-112.99"/>
<polygon fill="red" stroke="red" stroke-width="2" points="149.34,-110.6 138.86,-109.04 146.08,-116.8 149.34,-110.6"/>
</g>
<!-- :core:network -->
<g id="node3" class="node">
<title>:core:network</title>
<ellipse fill="none" stroke="black" cx="327.58" cy="-90" rx="62.1" ry="18"/>
<text text-anchor="middle" x="327.58" y="-84.95" font-family="Times,serif" font-size="14.00">:core:network</text>
</g>
<!-- :feature:favorites:data&#45;&gt;:core:network -->
<g id="edge2" class="edge">
<title>:feature:favorites:data&#45;&gt;:core:network</title>
<path fill="none" stroke="black" d="M259.37,-144.05C270.92,-135.07 285.29,-123.9 297.85,-114.12"/>
<polygon fill="black" stroke="black" points="299.67,-117.14 305.42,-108.24 295.38,-111.61 299.67,-117.14"/>
</g>
<!-- :core:common -->
<g id="node4" class="node">
<title>:core:common</title>
<ellipse fill="none" stroke="black" cx="179.58" cy="-18" rx="65.17" ry="18"/>
<text text-anchor="middle" x="179.58" y="-12.95" font-family="Times,serif" font-size="14.00">:core:common</text>
</g>
<!-- :feature:favorites:data&#45;&gt;:core:common -->
<g id="edge3" class="edge">
<title>:feature:favorites:data&#45;&gt;:core:common</title>
<path fill="none" stroke="black" d="M236.06,-143.6C233.95,-125.15 229.14,-95.49 218.58,-72 214.34,-62.56 208.22,-53.17 202.08,-44.97"/>
<polygon fill="black" stroke="black" points="204.85,-42.84 195.91,-37.15 199.35,-47.17 204.85,-42.84"/>
</g>
<!-- :feature:favorites:domain&#45;&gt;:core:common -->
<g id="edge4" class="edge">
<title>:feature:favorites:domain&#45;&gt;:core:common</title>
<path fill="none" stroke="red" stroke-width="2" d="M122.73,-72.05C131.95,-63.46 143.3,-52.86 153.44,-43.4"/>
<polygon fill="red" stroke="red" stroke-width="2" points="154.46,-47.24 159.38,-37.85 149.68,-42.12 154.46,-47.24"/>
</g>
<!-- :core:network&#45;&gt;:core:common -->
<g id="edge5" class="edge">
<title>:core:network&#45;&gt;:core:common</title>
<path fill="none" stroke="black" d="M296.19,-74.15C274.46,-63.88 245.29,-50.08 221.57,-38.86"/>
<polygon fill="black" stroke="black" points="223.34,-35.82 212.8,-34.71 220.34,-42.15 223.34,-35.82"/>
</g>
<!-- :core:datastore -->
<g id="node5" class="node">
<title>:core:datastore</title>
<ellipse fill="none" stroke="black" cx="327.58" cy="-18" rx="65.17" ry="18"/>
<text text-anchor="middle" x="327.58" y="-12.95" font-family="Times,serif" font-size="14.00">:core:datastore</text>
</g>
<!-- :core:network&#45;&gt;:core:datastore -->
<g id="edge6" class="edge">
<title>:core:network&#45;&gt;:core:datastore</title>
<path fill="none" stroke="black" d="M327.58,-71.7C327.58,-64.41 327.58,-55.73 327.58,-47.54"/>
<polygon fill="black" stroke="black" points="331.08,-47.62 327.58,-37.62 324.08,-47.62 331.08,-47.62"/>
</g>
<!-- :core:datasource:logout -->
<g id="node6" class="node">
<title>:core:datasource:logout</title>
<ellipse fill="none" stroke="black" cx="508.58" cy="-18" rx="97.41" ry="18"/>
<text text-anchor="middle" x="508.58" y="-12.95" font-family="Times,serif" font-size="14.00">:core:datasource:logout</text>
</g>
<!-- :core:network&#45;&gt;:core:datasource:logout -->
<g id="edge7" class="edge">
<title>:core:network&#45;&gt;:core:datasource:logout</title>
<path fill="none" stroke="black" d="M363.77,-75C390.51,-64.66 427.28,-50.44 457.08,-38.92"/>
<polygon fill="black" stroke="black" points="458.24,-42.22 466.3,-35.35 455.71,-35.69 458.24,-42.22"/>
</g>
</g>
</svg>
