<?xml version="1.0" encoding="UTF-8" standalone="no"?>
<!DOCTYPE svg PUBLIC "-//W3C//DTD SVG 1.1//EN"
 "http://www.w3.org/Graphics/SVG/1.1/DTD/svg11.dtd">
<!-- Generated by graphviz version 12.2.1 (20241206.2353)
 -->
<!-- Title: G Pages: 1 -->
<svg width="631pt" height="188pt"
 viewBox="0.00 0.00 630.80 188.00" xmlns="http://www.w3.org/2000/svg" xmlns:xlink="http://www.w3.org/1999/xlink">
<g id="graph0" class="graph" transform="scale(1 1) rotate(0) translate(4 184)">
<title>G</title>
<polygon fill="white" stroke="none" points="-4,4 -4,-184 626.8,-184 626.8,4 -4,4"/>
<!-- :feature:splash:data -->
<g id="node1" class="node">
<title>:feature:splash:data</title>
<ellipse fill="none" stroke="black" cx="308.37" cy="-162" rx="82.57" ry="18"/>
<text text-anchor="middle" x="308.37" y="-156.95" font-family="Times,serif" font-size="14.00">:feature:splash:data</text>
</g>
<!-- :feature:splash:domain -->
<g id="node2" class="node">
<title>:feature:splash:domain</title>
<ellipse fill="none" stroke="black" cx="95.37" cy="-90" rx="95.37" ry="18"/>
<text text-anchor="middle" x="95.37" y="-84.95" font-family="Times,serif" font-size="14.00">:feature:splash:domain</text>
</g>
<!-- :feature:splash:data&#45;&gt;:feature:splash:domain -->
<g id="edge1" class="edge">
<title>:feature:splash:data&#45;&gt;:feature:splash:domain</title>
<path fill="none" stroke="red" stroke-width="2" d="M263.97,-146.41C231.49,-135.74 187.16,-121.17 152.1,-109.64"/>
<polygon fill="red" stroke="red" stroke-width="2" points="155.01,-106.92 144.42,-107.12 152.83,-113.57 155.01,-106.92"/>
</g>
<!-- :core:network -->
<g id="node3" class="node">
<title>:core:network</title>
<ellipse fill="none" stroke="black" cx="308.37" cy="-90" rx="62.1" ry="18"/>
<text text-anchor="middle" x="308.37" y="-84.95" font-family="Times,serif" font-size="14.00">:core:network</text>
</g>
<!-- :feature:splash:data&#45;&gt;:core:network -->
<g id="edge2" class="edge">
<title>:feature:splash:data&#45;&gt;:core:network</title>
<path fill="none" stroke="black" d="M308.37,-143.7C308.37,-136.41 308.37,-127.73 308.37,-119.54"/>
<polygon fill="black" stroke="black" points="311.87,-119.62 308.37,-109.62 304.87,-119.62 311.87,-119.62"/>
</g>
<!-- :core:common -->
<g id="node4" class="node">
<title>:core:common</title>
<ellipse fill="none" stroke="black" cx="111.37" cy="-18" rx="65.17" ry="18"/>
<text text-anchor="middle" x="111.37" y="-12.95" font-family="Times,serif" font-size="14.00">:core:common</text>
</g>
<!-- :feature:splash:data&#45;&gt;:core:common -->
<g id="edge3" class="edge">
<title>:feature:splash:data&#45;&gt;:core:common</title>
<path fill="none" stroke="black" d="M284.82,-144.48C270.73,-134.35 252.66,-120.88 237.37,-108 219.57,-93.02 217.88,-86.08 199.37,-72 184.11,-60.4 166.16,-49.2 150.46,-40.11"/>
<polygon fill="black" stroke="black" points="152.26,-37.1 141.84,-35.2 148.8,-43.19 152.26,-37.1"/>
</g>
<!-- :core:datastore -->
<g id="node5" class="node">
<title>:core:datastore</title>
<ellipse fill="none" stroke="black" cx="473.37" cy="-18" rx="65.17" ry="18"/>
<text text-anchor="middle" x="473.37" y="-12.95" font-family="Times,serif" font-size="14.00">:core:datastore</text>
</g>
<!-- :feature:splash:data&#45;&gt;:core:datastore -->
<g id="edge4" class="edge">
<title>:feature:splash:data&#45;&gt;:core:datastore</title>
<path fill="none" stroke="black" d="M331.92,-144.48C346,-134.35 364.07,-120.88 379.37,-108 397.16,-93.02 400.47,-88 417.37,-72 427.19,-62.7 437.98,-52.48 447.45,-43.52"/>
<polygon fill="black" stroke="black" points="449.75,-46.16 454.61,-36.75 444.94,-41.08 449.75,-46.16"/>
</g>
<!-- :core:datasource:profile -->
<g id="node6" class="node">
<title>:core:datasource:profile</title>
<ellipse fill="none" stroke="black" cx="524.37" cy="-90" rx="98.44" ry="18"/>
<text text-anchor="middle" x="524.37" y="-84.95" font-family="Times,serif" font-size="14.00">:core:datasource:profile</text>
</g>
<!-- :feature:splash:data&#45;&gt;:core:datasource:profile -->
<g id="edge5" class="edge">
<title>:feature:splash:data&#45;&gt;:core:datasource:profile</title>
<path fill="none" stroke="black" d="M353.12,-146.5C386.05,-135.83 431.08,-121.23 466.7,-109.69"/>
<polygon fill="black" stroke="black" points="467.55,-113.09 475.99,-106.68 465.4,-106.43 467.55,-113.09"/>
</g>
<!-- :feature:splash:domain&#45;&gt;:core:common -->
<g id="edge6" class="edge">
<title>:feature:splash:domain&#45;&gt;:core:common</title>
<path fill="none" stroke="red" stroke-width="2" d="M99.32,-71.7C101.01,-64.32 103.02,-55.52 104.91,-47.25"/>
<polygon fill="red" stroke="red" stroke-width="2" points="107.97,-49.58 106.78,-39.06 101.14,-48.02 107.97,-49.58"/>
</g>
<!-- :core:network&#45;&gt;:core:common -->
<g id="edge7" class="edge">
<title>:core:network&#45;&gt;:core:common</title>
<path fill="none" stroke="black" d="M270.38,-75.5C239.21,-64.43 194.83,-48.66 160.87,-36.59"/>
<polygon fill="black" stroke="black" points="162.26,-33.37 151.67,-33.32 159.92,-39.97 162.26,-33.37"/>
</g>
<!-- :core:network&#45;&gt;:core:datastore -->
<g id="edge8" class="edge">
<title>:core:network&#45;&gt;:core:datastore</title>
<path fill="none" stroke="black" d="M342.16,-74.67C367.04,-64.11 401.14,-49.64 428.34,-38.1"/>
<polygon fill="black" stroke="black" points="429.54,-41.4 437.38,-34.27 426.81,-34.95 429.54,-41.4"/>
</g>
<!-- :core:datasource:logout -->
<g id="node7" class="node">
<title>:core:datasource:logout</title>
<ellipse fill="none" stroke="black" cx="292.37" cy="-18" rx="97.41" ry="18"/>
<text text-anchor="middle" x="292.37" y="-12.95" font-family="Times,serif" font-size="14.00">:core:datasource:logout</text>
</g>
<!-- :core:network&#45;&gt;:core:datasource:logout -->
<g id="edge9" class="edge">
<title>:core:network&#45;&gt;:core:datasource:logout</title>
<path fill="none" stroke="black" d="M304.41,-71.7C302.73,-64.32 300.72,-55.52 298.82,-47.25"/>
<polygon fill="black" stroke="black" points="302.25,-46.55 296.61,-37.58 295.43,-48.11 302.25,-46.55"/>
</g>
</g>
</svg>
