<?xml version="1.0" encoding="UTF-8" standalone="no"?>
<!DOCTYPE svg PUBLIC "-//W3C//DTD SVG 1.1//EN"
 "http://www.w3.org/Graphics/SVG/1.1/DTD/svg11.dtd">
<!-- Generated by graphviz version 12.2.1 (20241206.2353)
 -->
<!-- Title: G Pages: 1 -->
<svg width="349pt" height="188pt"
 viewBox="0.00 0.00 348.75 188.00" xmlns="http://www.w3.org/2000/svg" xmlns:xlink="http://www.w3.org/1999/xlink">
<g id="graph0" class="graph" transform="scale(1 1) rotate(0) translate(4 184)">
<title>G</title>
<polygon fill="white" stroke="none" points="-4,4 -4,-184 344.75,-184 344.75,4 -4,4"/>
<!-- :feature:login:data -->
<g id="node1" class="node">
<title>:feature:login:data</title>
<ellipse fill="none" stroke="black" cx="262.27" cy="-162" rx="78.48" ry="18"/>
<text text-anchor="middle" x="262.27" y="-156.95" font-family="Times,serif" font-size="14.00">:feature:login:data</text>
</g>
<!-- :feature:login:domain -->
<g id="node2" class="node">
<title>:feature:login:domain</title>
<ellipse fill="none" stroke="black" cx="91.27" cy="-90" rx="91.27" ry="18"/>
<text text-anchor="middle" x="91.27" y="-84.95" font-family="Times,serif" font-size="14.00">:feature:login:domain</text>
</g>
<!-- :feature:login:data&#45;&gt;:feature:login:domain -->
<g id="edge1" class="edge">
<title>:feature:login:data&#45;&gt;:feature:login:domain</title>
<path fill="none" stroke="red" stroke-width="2" d="M225.17,-145.81C200.28,-135.62 167.24,-122.1 140.2,-111.03"/>
<polygon fill="red" stroke="red" stroke-width="2" points="143.17,-108.46 132.59,-107.91 140.52,-114.94 143.17,-108.46"/>
</g>
<!-- :core:network -->
<g id="node3" class="node">
<title>:core:network</title>
<ellipse fill="none" stroke="black" cx="262.27" cy="-90" rx="62.1" ry="18"/>
<text text-anchor="middle" x="262.27" y="-84.95" font-family="Times,serif" font-size="14.00">:core:network</text>
</g>
<!-- :feature:login:data&#45;&gt;:core:network -->
<g id="edge2" class="edge">
<title>:feature:login:data&#45;&gt;:core:network</title>
<path fill="none" stroke="black" d="M262.27,-143.7C262.27,-136.41 262.27,-127.73 262.27,-119.54"/>
<polygon fill="black" stroke="black" points="265.77,-119.62 262.27,-109.62 258.77,-119.62 265.77,-119.62"/>
</g>
<!-- :core:common -->
<g id="node4" class="node">
<title>:core:common</title>
<ellipse fill="none" stroke="black" cx="221.27" cy="-18" rx="65.17" ry="18"/>
<text text-anchor="middle" x="221.27" y="-12.95" font-family="Times,serif" font-size="14.00">:core:common</text>
</g>
<!-- :feature:login:data&#45;&gt;:core:common -->
<g id="edge3" class="edge">
<title>:feature:login:data&#45;&gt;:core:common</title>
<path fill="none" stroke="black" d="M295.2,-145.32C309.68,-136.54 325.21,-124.09 333.27,-108 340.44,-93.7 341.83,-85.52 333.27,-72 321.71,-53.74 301.98,-41.65 282.27,-33.7"/>
<polygon fill="black" stroke="black" points="283.71,-30.5 273.11,-30.33 281.29,-37.07 283.71,-30.5"/>
</g>
<!-- :feature:login:domain&#45;&gt;:core:common -->
<g id="edge4" class="edge">
<title>:feature:login:domain&#45;&gt;:core:common</title>
<path fill="none" stroke="red" stroke-width="2" d="M121.75,-72.59C139.82,-62.86 162.9,-50.43 182.28,-40"/>
<polygon fill="red" stroke="red" stroke-width="2" points="182.51,-43.85 189.66,-36.02 179.19,-37.68 182.51,-43.85"/>
</g>
</g>
</svg>
