<?xml version="1.0" encoding="UTF-8" standalone="no"?>
<!DOCTYPE svg PUBLIC "-//W3C//DTD SVG 1.1//EN"
 "http://www.w3.org/Graphics/SVG/1.1/DTD/svg11.dtd">
<!-- Generated by graphviz version 12.2.1 (20241206.2353)
 -->
<!-- Title: G Pages: 1 -->
<svg width="318pt" height="188pt"
 viewBox="0.00 0.00 318.27 188.00" xmlns="http://www.w3.org/2000/svg" xmlns:xlink="http://www.w3.org/1999/xlink">
<g id="graph0" class="graph" transform="scale(1 1) rotate(0) translate(4 184)">
<title>G</title>
<polygon fill="white" stroke="none" points="-4,4 -4,-184 314.27,-184 314.27,4 -4,4"/>
<!-- :feature:quiz:ui -->
<g id="node1" class="node">
<title>:feature:quiz:ui</title>
<ellipse fill="none" stroke="black" cx="106.07" cy="-162" rx="67.22" ry="18"/>
<text text-anchor="middle" x="106.07" y="-156.95" font-family="Times,serif" font-size="14.00">:feature:quiz:ui</text>
</g>
<!-- :core:ui -->
<g id="node2" class="node">
<title>:core:ui</title>
<ellipse fill="none" stroke="black" cx="39.07" cy="-90" rx="39.07" ry="18"/>
<text text-anchor="middle" x="39.07" y="-84.95" font-family="Times,serif" font-size="14.00">:core:ui</text>
</g>
<!-- :feature:quiz:ui&#45;&gt;:core:ui -->
<g id="edge1" class="edge">
<title>:feature:quiz:ui&#45;&gt;:core:ui</title>
<path fill="none" stroke="black" d="M89.85,-144.05C81.46,-135.29 71.08,-124.45 61.9,-114.86"/>
<polygon fill="black" stroke="black" points="64.71,-112.73 55.27,-107.92 59.65,-117.57 64.71,-112.73"/>
</g>
<!-- :core:common -->
<g id="node3" class="node">
<title>:core:common</title>
<ellipse fill="none" stroke="black" cx="164.07" cy="-18" rx="65.17" ry="18"/>
<text text-anchor="middle" x="164.07" y="-12.95" font-family="Times,serif" font-size="14.00">:core:common</text>
</g>
<!-- :feature:quiz:ui&#45;&gt;:core:common -->
<g id="edge2" class="edge">
<title>:feature:quiz:ui&#45;&gt;:core:common</title>
<path fill="none" stroke="black" d="M107.59,-143.6C109.7,-125.15 114.51,-95.49 125.07,-72 129.31,-62.56 135.43,-53.17 141.57,-44.97"/>
<polygon fill="black" stroke="black" points="144.29,-47.17 147.74,-37.15 138.8,-42.84 144.29,-47.17"/>
</g>
<!-- :feature:quiz:domain -->
<g id="node4" class="node">
<title>:feature:quiz:domain</title>
<ellipse fill="none" stroke="black" cx="222.07" cy="-90" rx="88.2" ry="18"/>
<text text-anchor="middle" x="222.07" y="-84.95" font-family="Times,serif" font-size="14.00">:feature:quiz:domain</text>
</g>
<!-- :feature:quiz:ui&#45;&gt;:feature:quiz:domain -->
<g id="edge3" class="edge">
<title>:feature:quiz:ui&#45;&gt;:feature:quiz:domain</title>
<path fill="none" stroke="red" stroke-width="2" d="M132.39,-145.12C147.92,-135.74 167.83,-123.73 184.94,-113.4"/>
<polygon fill="red" stroke="red" stroke-width="2" points="185.29,-117.28 192.05,-109.12 181.68,-111.29 185.29,-117.28"/>
</g>
<!-- :feature:quiz:domain&#45;&gt;:core:common -->
<g id="edge4" class="edge">
<title>:feature:quiz:domain&#45;&gt;:core:common</title>
<path fill="none" stroke="red" stroke-width="2" d="M208.03,-72.05C201.19,-63.8 192.82,-53.7 185.23,-44.54"/>
<polygon fill="red" stroke="red" stroke-width="2" points="188.99,-43.59 179.91,-38.12 183.6,-48.05 188.99,-43.59"/>
</g>
</g>
</svg>
