<?xml version="1.0" encoding="UTF-8" standalone="no"?>
<!DOCTYPE svg PUBLIC "-//W3C//DTD SVG 1.1//EN"
 "http://www.w3.org/Graphics/SVG/1.1/DTD/svg11.dtd">
<!-- Generated by graphviz version 12.2.1 (20241206.2353)
 -->
<!-- Title: G Pages: 1 -->
<svg width="612pt" height="188pt"
 viewBox="0.00 0.00 612.48 188.00" xmlns="http://www.w3.org/2000/svg" xmlns:xlink="http://www.w3.org/1999/xlink">
<g id="graph0" class="graph" transform="scale(1 1) rotate(0) translate(4 184)">
<title>G</title>
<polygon fill="white" stroke="none" points="-4,4 -4,-184 608.48,-184 608.48,4 -4,4"/>
<!-- :feature:category:data -->
<g id="node1" class="node">
<title>:feature:category:data</title>
<ellipse fill="none" stroke="black" cx="236.07" cy="-162" rx="91.27" ry="18"/>
<text text-anchor="middle" x="236.07" y="-156.95" font-family="Times,serif" font-size="14.00">:feature:category:data</text>
</g>
<!-- :feature:category:domain -->
<g id="node2" class="node">
<title>:feature:category:domain</title>
<ellipse fill="none" stroke="black" cx="104.07" cy="-90" rx="104.07" ry="18"/>
<text text-anchor="middle" x="104.07" y="-84.95" font-family="Times,serif" font-size="14.00">:feature:category:domain</text>
</g>
<!-- :feature:category:data&#45;&gt;:feature:category:domain -->
<g id="edge1" class="edge">
<title>:feature:category:data&#45;&gt;:feature:category:domain</title>
<path fill="none" stroke="red" stroke-width="2" d="M205.12,-144.59C187.29,-135.13 164.66,-123.13 145.33,-112.88"/>
<polygon fill="red" stroke="red" stroke-width="2" points="148.43,-110.56 137.95,-108.97 145.15,-116.75 148.43,-110.56"/>
</g>
<!-- :core:network -->
<g id="node3" class="node">
<title>:core:network</title>
<ellipse fill="none" stroke="black" cx="326.07" cy="-90" rx="62.1" ry="18"/>
<text text-anchor="middle" x="326.07" y="-84.95" font-family="Times,serif" font-size="14.00">:core:network</text>
</g>
<!-- :feature:category:data&#45;&gt;:core:network -->
<g id="edge2" class="edge">
<title>:feature:category:data&#45;&gt;:core:network</title>
<path fill="none" stroke="black" d="M257.85,-144.05C269.41,-135.07 283.77,-123.9 296.34,-114.12"/>
<polygon fill="black" stroke="black" points="298.16,-117.14 303.91,-108.24 293.86,-111.61 298.16,-117.14"/>
</g>
<!-- :core:common -->
<g id="node4" class="node">
<title>:core:common</title>
<ellipse fill="none" stroke="black" cx="178.07" cy="-18" rx="65.17" ry="18"/>
<text text-anchor="middle" x="178.07" y="-12.95" font-family="Times,serif" font-size="14.00">:core:common</text>
</g>
<!-- :feature:category:data&#45;&gt;:core:common -->
<g id="edge3" class="edge">
<title>:feature:category:data&#45;&gt;:core:common</title>
<path fill="none" stroke="black" d="M234.55,-143.6C232.44,-125.15 227.62,-95.49 217.07,-72 212.83,-62.56 206.71,-53.17 200.57,-44.97"/>
<polygon fill="black" stroke="black" points="203.34,-42.84 194.4,-37.15 197.84,-47.17 203.34,-42.84"/>
</g>
<!-- :feature:category:domain&#45;&gt;:core:common -->
<g id="edge4" class="edge">
<title>:feature:category:domain&#45;&gt;:core:common</title>
<path fill="none" stroke="red" stroke-width="2" d="M121.98,-72.05C130.98,-63.54 142.05,-53.07 151.98,-43.68"/>
<polygon fill="red" stroke="red" stroke-width="2" points="153.26,-47.28 158.12,-37.87 148.45,-42.2 153.26,-47.28"/>
</g>
<!-- :core:network&#45;&gt;:core:common -->
<g id="edge5" class="edge">
<title>:core:network&#45;&gt;:core:common</title>
<path fill="none" stroke="black" d="M294.68,-74.15C272.95,-63.88 243.78,-50.08 220.05,-38.86"/>
<polygon fill="black" stroke="black" points="221.82,-35.82 211.29,-34.71 218.83,-42.15 221.82,-35.82"/>
</g>
<!-- :core:datastore -->
<g id="node5" class="node">
<title>:core:datastore</title>
<ellipse fill="none" stroke="black" cx="326.07" cy="-18" rx="65.17" ry="18"/>
<text text-anchor="middle" x="326.07" y="-12.95" font-family="Times,serif" font-size="14.00">:core:datastore</text>
</g>
<!-- :core:network&#45;&gt;:core:datastore -->
<g id="edge6" class="edge">
<title>:core:network&#45;&gt;:core:datastore</title>
<path fill="none" stroke="black" d="M326.07,-71.7C326.07,-64.41 326.07,-55.73 326.07,-47.54"/>
<polygon fill="black" stroke="black" points="329.57,-47.62 326.07,-37.62 322.57,-47.62 329.57,-47.62"/>
</g>
<!-- :core:datasource:logout -->
<g id="node6" class="node">
<title>:core:datasource:logout</title>
<ellipse fill="none" stroke="black" cx="507.07" cy="-18" rx="97.41" ry="18"/>
<text text-anchor="middle" x="507.07" y="-12.95" font-family="Times,serif" font-size="14.00">:core:datasource:logout</text>
</g>
<!-- :core:network&#45;&gt;:core:datasource:logout -->
<g id="edge7" class="edge">
<title>:core:network&#45;&gt;:core:datasource:logout</title>
<path fill="none" stroke="black" d="M362.26,-75C389,-64.66 425.77,-50.44 455.57,-38.92"/>
<polygon fill="black" stroke="black" points="456.72,-42.22 464.79,-35.35 454.2,-35.69 456.72,-42.22"/>
</g>
</g>
</svg>
