<?xml version="1.0" encoding="UTF-8" standalone="no"?>
<!DOCTYPE svg PUBLIC "-//W3C//DTD SVG 1.1//EN"
 "http://www.w3.org/Graphics/SVG/1.1/DTD/svg11.dtd">
<!-- Generated by graphviz version 12.2.1 (20241206.2353)
 -->
<!-- Title: G Pages: 1 -->
<svg width="659pt" height="188pt"
 viewBox="0.00 0.00 659.07 188.00" xmlns="http://www.w3.org/2000/svg" xmlns:xlink="http://www.w3.org/1999/xlink">
<g id="graph0" class="graph" transform="scale(1 1) rotate(0) translate(4 184)">
<title>G</title>
<polygon fill="white" stroke="none" points="-4,4 -4,-184 655.07,-184 655.07,4 -4,4"/>
<!-- :feature:profile:data -->
<g id="node1" class="node">
<title>:feature:profile:data</title>
<ellipse fill="none" stroke="black" cx="311.9" cy="-162" rx="84.11" ry="18"/>
<text text-anchor="middle" x="311.9" y="-156.95" font-family="Times,serif" font-size="14.00">:feature:profile:data</text>
</g>
<!-- :feature:profile:domain -->
<g id="node2" class="node">
<title>:feature:profile:domain</title>
<ellipse fill="none" stroke="black" cx="96.9" cy="-90" rx="96.9" ry="18"/>
<text text-anchor="middle" x="96.9" y="-84.95" font-family="Times,serif" font-size="14.00">:feature:profile:domain</text>
</g>
<!-- :feature:profile:data&#45;&gt;:feature:profile:domain -->
<g id="edge1" class="edge">
<title>:feature:profile:data&#45;&gt;:feature:profile:domain</title>
<path fill="none" stroke="red" stroke-width="2" d="M267.09,-146.41C234.3,-135.74 189.55,-121.17 154.17,-109.64"/>
<polygon fill="red" stroke="red" stroke-width="2" points="156.98,-106.88 146.39,-107.11 154.82,-113.54 156.98,-106.88"/>
</g>
<!-- :core:network -->
<g id="node3" class="node">
<title>:core:network</title>
<ellipse fill="none" stroke="black" cx="311.9" cy="-90" rx="62.1" ry="18"/>
<text text-anchor="middle" x="311.9" y="-84.95" font-family="Times,serif" font-size="14.00">:core:network</text>
</g>
<!-- :feature:profile:data&#45;&gt;:core:network -->
<g id="edge2" class="edge">
<title>:feature:profile:data&#45;&gt;:core:network</title>
<path fill="none" stroke="black" d="M311.9,-143.7C311.9,-136.41 311.9,-127.73 311.9,-119.54"/>
<polygon fill="black" stroke="black" points="315.4,-119.62 311.9,-109.62 308.4,-119.62 315.4,-119.62"/>
</g>
<!-- :core:common -->
<g id="node4" class="node">
<title>:core:common</title>
<ellipse fill="none" stroke="black" cx="161.9" cy="-18" rx="65.17" ry="18"/>
<text text-anchor="middle" x="161.9" y="-12.95" font-family="Times,serif" font-size="14.00">:core:common</text>
</g>
<!-- :feature:profile:data&#45;&gt;:core:common -->
<g id="edge3" class="edge">
<title>:feature:profile:data&#45;&gt;:core:common</title>
<path fill="none" stroke="black" d="M287.28,-144.49C273.15,-134.57 255.4,-121.32 240.9,-108 219.43,-88.27 197.62,-63.24 182.37,-44.75"/>
<polygon fill="black" stroke="black" points="185.22,-42.71 176.19,-37.17 179.8,-47.14 185.22,-42.71"/>
</g>
<!-- :core:datasource:profile -->
<g id="node5" class="node">
<title>:core:datasource:profile</title>
<ellipse fill="none" stroke="black" cx="490.9" cy="-90" rx="98.44" ry="18"/>
<text text-anchor="middle" x="490.9" y="-84.95" font-family="Times,serif" font-size="14.00">:core:datasource:profile</text>
</g>
<!-- :feature:profile:data&#45;&gt;:core:datasource:profile -->
<g id="edge4" class="edge">
<title>:feature:profile:data&#45;&gt;:core:datasource:profile</title>
<path fill="none" stroke="black" d="M351.18,-145.64C377.28,-135.43 411.81,-121.93 440,-110.9"/>
<polygon fill="black" stroke="black" points="441.02,-114.26 449.06,-107.36 438.47,-107.74 441.02,-114.26"/>
</g>
<!-- :core:datastore -->
<g id="node6" class="node">
<title>:core:datastore</title>
<ellipse fill="none" stroke="black" cx="585.9" cy="-18" rx="65.17" ry="18"/>
<text text-anchor="middle" x="585.9" y="-12.95" font-family="Times,serif" font-size="14.00">:core:datastore</text>
</g>
<!-- :feature:profile:data&#45;&gt;:core:datastore -->
<g id="edge5" class="edge">
<title>:feature:profile:data&#45;&gt;:core:datastore</title>
<path fill="none" stroke="black" d="M393.27,-157.21C468.45,-151.79 572.27,-138.82 597.9,-108 611.9,-91.17 606.93,-66.02 599.59,-46.74"/>
<polygon fill="black" stroke="black" points="602.83,-45.42 595.71,-37.57 596.38,-48.15 602.83,-45.42"/>
</g>
<!-- :feature:profile:domain&#45;&gt;:core:common -->
<g id="edge6" class="edge">
<title>:feature:profile:domain&#45;&gt;:core:common</title>
<path fill="none" stroke="red" stroke-width="2" d="M112.64,-72.05C120.46,-63.63 130.07,-53.28 138.72,-43.97"/>
<polygon fill="red" stroke="red" stroke-width="2" points="140.01,-47.72 144.25,-38.01 134.88,-42.95 140.01,-47.72"/>
</g>
<!-- :core:network&#45;&gt;:core:common -->
<g id="edge7" class="edge">
<title>:core:network&#45;&gt;:core:common</title>
<path fill="none" stroke="black" d="M280.09,-74.15C258.07,-63.88 228.5,-50.08 204.46,-38.86"/>
<polygon fill="black" stroke="black" points="206.1,-35.76 195.56,-34.71 203.14,-42.11 206.1,-35.76"/>
</g>
<!-- :core:network&#45;&gt;:core:datastore -->
<g id="edge8" class="edge">
<title>:core:network&#45;&gt;:core:datastore</title>
<path fill="none" stroke="black" d="M357.46,-77.36C404.28,-65.4 477.34,-46.73 528.19,-33.74"/>
<polygon fill="black" stroke="black" points="529.03,-37.14 537.86,-31.27 527.3,-30.36 529.03,-37.14"/>
</g>
<!-- :core:datasource:logout -->
<g id="node7" class="node">
<title>:core:datasource:logout</title>
<ellipse fill="none" stroke="black" cx="342.9" cy="-18" rx="97.41" ry="18"/>
<text text-anchor="middle" x="342.9" y="-12.95" font-family="Times,serif" font-size="14.00">:core:datasource:logout</text>
</g>
<!-- :core:network&#45;&gt;:core:datasource:logout -->
<g id="edge9" class="edge">
<title>:core:network&#45;&gt;:core:datasource:logout</title>
<path fill="none" stroke="black" d="M319.57,-71.7C322.94,-64.07 327,-54.92 330.77,-46.4"/>
<polygon fill="black" stroke="black" points="333.87,-48.05 334.71,-37.49 327.47,-45.21 333.87,-48.05"/>
</g>
</g>
</svg>
