<?xml version="1.0" encoding="UTF-8" standalone="no"?>
<!DOCTYPE svg PUBLIC "-//W3C//DTD SVG 1.1//EN"
 "http://www.w3.org/Graphics/SVG/1.1/DTD/svg11.dtd">
<!-- Generated by graphviz version 12.2.1 (20241206.2353)
 -->
<!-- Title: G Pages: 1 -->
<svg width="1447pt" height="332pt"
 viewBox="0.00 0.00 1446.69 332.00" xmlns="http://www.w3.org/2000/svg" xmlns:xlink="http://www.w3.org/1999/xlink">
<g id="graph0" class="graph" transform="scale(1 1) rotate(0) translate(4 328)">
<title>G</title>
<polygon fill="white" stroke="none" points="-4,4 -4,-328 1442.69,-328 1442.69,4 -4,4"/>
<!-- :app -->
<g id="node1" class="node">
<title>:app</title>
<ellipse fill="none" stroke="black" cx="402.36" cy="-306" rx="27" ry="18"/>
<text text-anchor="middle" x="402.36" y="-300.95" font-family="Times,serif" font-size="14.00">:app</text>
</g>
<!-- :core:ui -->
<g id="node2" class="node">
<title>:core:ui</title>
<ellipse fill="none" stroke="black" cx="1102.36" cy="-90" rx="39.07" ry="18"/>
<text text-anchor="middle" x="1102.36" y="-84.95" font-family="Times,serif" font-size="14.00">:core:ui</text>
</g>
<!-- :app&#45;&gt;:core:ui -->
<g id="edge1" class="edge">
<title>:app&#45;&gt;:core:ui</title>
<path fill="none" stroke="black" d="M429.4,-303.84C510.14,-300.07 756.28,-286.37 957.36,-252 1088.26,-229.63 1165.54,-284.61 1247.36,-180 1257.21,-167.4 1256.53,-157.11 1247.36,-144 1241.2,-135.19 1185.82,-116.61 1145.33,-103.96"/>
<polygon fill="black" stroke="black" points="1146.39,-100.63 1135.8,-101.01 1144.32,-107.32 1146.39,-100.63"/>
</g>
<!-- :core:network -->
<g id="node3" class="node">
<title>:core:network</title>
<ellipse fill="none" stroke="black" cx="167.36" cy="-90" rx="62.1" ry="18"/>
<text text-anchor="middle" x="167.36" y="-84.95" font-family="Times,serif" font-size="14.00">:core:network</text>
</g>
<!-- :app&#45;&gt;:core:network -->
<g id="edge2" class="edge">
<title>:app&#45;&gt;:core:network</title>
<path fill="none" stroke="black" d="M376.12,-300.85C295.08,-287.45 51.5,-242.5 7.36,-180 -21.74,-138.81 46.7,-114.49 102.94,-101.95"/>
<polygon fill="black" stroke="black" points="103.47,-105.42 112.52,-99.91 102.01,-98.57 103.47,-105.42"/>
</g>
<!-- :feature:splash:data -->
<g id="node4" class="node">
<title>:feature:splash:data</title>
<ellipse fill="none" stroke="black" cx="99.36" cy="-162" rx="82.57" ry="18"/>
<text text-anchor="middle" x="99.36" y="-156.95" font-family="Times,serif" font-size="14.00">:feature:splash:data</text>
</g>
<!-- :app&#45;&gt;:feature:splash:data -->
<g id="edge3" class="edge">
<title>:app&#45;&gt;:feature:splash:data</title>
<path fill="none" stroke="black" d="M380.57,-294.79C330.98,-271.55 208.91,-214.34 143.1,-183.5"/>
<polygon fill="black" stroke="black" points="144.95,-180.5 134.41,-179.43 141.98,-186.84 144.95,-180.5"/>
</g>
<!-- :feature:login:data -->
<g id="node5" class="node">
<title>:feature:login:data</title>
<ellipse fill="none" stroke="black" cx="471.36" cy="-162" rx="78.48" ry="18"/>
<text text-anchor="middle" x="471.36" y="-156.95" font-family="Times,serif" font-size="14.00">:feature:login:data</text>
</g>
<!-- :app&#45;&gt;:feature:login:data -->
<g id="edge4" class="edge">
<title>:app&#45;&gt;:feature:login:data</title>
<path fill="none" stroke="black" d="M410.41,-288.43C422.07,-264.43 443.81,-219.68 457.93,-190.64"/>
<polygon fill="black" stroke="black" points="461.04,-192.23 462.27,-181.71 454.75,-189.17 461.04,-192.23"/>
</g>
<!-- :feature:register:data -->
<g id="node6" class="node">
<title>:feature:register:data</title>
<ellipse fill="none" stroke="black" cx="287.36" cy="-162" rx="87.18" ry="18"/>
<text text-anchor="middle" x="287.36" y="-156.95" font-family="Times,serif" font-size="14.00">:feature:register:data</text>
</g>
<!-- :app&#45;&gt;:feature:register:data -->
<g id="edge5" class="edge">
<title>:app&#45;&gt;:feature:register:data</title>
<path fill="none" stroke="black" d="M389.83,-289.53C370.29,-265.4 332.33,-218.53 308.5,-189.1"/>
<polygon fill="black" stroke="black" points="311.26,-186.95 302.25,-181.39 305.82,-191.36 311.26,-186.95"/>
</g>
<!-- :navigation -->
<g id="node7" class="node">
<title>:navigation</title>
<ellipse fill="none" stroke="black" cx="896.36" cy="-234" rx="52.38" ry="18"/>
<text text-anchor="middle" x="896.36" y="-228.95" font-family="Times,serif" font-size="14.00">:navigation</text>
</g>
<!-- :app&#45;&gt;:navigation -->
<g id="edge6" class="edge">
<title>:app&#45;&gt;:navigation</title>
<path fill="none" stroke="red" stroke-width="2" d="M428.92,-301.24C505.78,-290.35 729.78,-258.6 837.35,-243.36"/>
<polygon fill="red" stroke="red" stroke-width="2" points="836.23,-247.06 845.64,-242.19 835.24,-240.12 836.23,-247.06"/>
</g>
<!-- :feature:splash:data&#45;&gt;:core:network -->
<g id="edge8" class="edge">
<title>:feature:splash:data&#45;&gt;:core:network</title>
<path fill="none" stroke="black" d="M115.82,-144.05C124,-135.63 134.06,-125.28 143.1,-115.97"/>
<polygon fill="black" stroke="black" points="145.54,-118.49 149.99,-108.87 140.52,-113.61 145.54,-118.49"/>
</g>
<!-- :feature:splash:domain -->
<g id="node8" class="node">
<title>:feature:splash:domain</title>
<ellipse fill="none" stroke="black" cx="380.36" cy="-90" rx="95.37" ry="18"/>
<text text-anchor="middle" x="380.36" y="-84.95" font-family="Times,serif" font-size="14.00">:feature:splash:domain</text>
</g>
<!-- :feature:splash:data&#45;&gt;:feature:splash:domain -->
<g id="edge7" class="edge">
<title>:feature:splash:data&#45;&gt;:feature:splash:domain</title>
<path fill="none" stroke="black" d="M152.21,-147.83C197.88,-136.46 264.13,-119.95 313.48,-107.66"/>
<polygon fill="black" stroke="black" points="314.05,-111.13 322.9,-105.31 312.35,-104.33 314.05,-111.13"/>
</g>
<!-- :core:common -->
<g id="node9" class="node">
<title>:core:common</title>
<ellipse fill="none" stroke="black" cx="759.36" cy="-18" rx="65.17" ry="18"/>
<text text-anchor="middle" x="759.36" y="-12.95" font-family="Times,serif" font-size="14.00">:core:common</text>
</g>
<!-- :feature:splash:data&#45;&gt;:core:common -->
<g id="edge9" class="edge">
<title>:feature:splash:data&#45;&gt;:core:common</title>
<path fill="none" stroke="black" d="M92.41,-143.8C85.62,-123.83 78.63,-91.2 96.36,-72 135.46,-29.65 516.86,-21.12 682.84,-19.42"/>
<polygon fill="black" stroke="black" points="682.46,-22.92 692.42,-19.33 682.39,-15.92 682.46,-22.92"/>
</g>
<!-- :feature:login:data&#45;&gt;:core:network -->
<g id="edge12" class="edge">
<title>:feature:login:data&#45;&gt;:core:network</title>
<path fill="none" stroke="black" d="M417.36,-148.57C363.57,-136.18 281.23,-117.22 225.89,-104.48"/>
<polygon fill="black" stroke="black" points="226.86,-101.11 216.33,-102.28 225.29,-107.93 226.86,-101.11"/>
</g>
<!-- :feature:login:data&#45;&gt;:core:common -->
<g id="edge13" class="edge">
<title>:feature:login:data&#45;&gt;:core:common</title>
<path fill="none" stroke="black" d="M527.89,-149.15C593.92,-135.14 695.14,-113.08 702.36,-108 723.88,-92.85 739.18,-66.74 748.47,-46.7"/>
<polygon fill="black" stroke="black" points="751.61,-48.26 752.41,-37.69 745.2,-45.45 751.61,-48.26"/>
</g>
<!-- :feature:login:domain -->
<g id="node10" class="node">
<title>:feature:login:domain</title>
<ellipse fill="none" stroke="black" cx="916.36" cy="-90" rx="91.27" ry="18"/>
<text text-anchor="middle" x="916.36" y="-84.95" font-family="Times,serif" font-size="14.00">:feature:login:domain</text>
</g>
<!-- :feature:login:data&#45;&gt;:feature:login:domain -->
<g id="edge11" class="edge">
<title>:feature:login:data&#45;&gt;:feature:login:domain</title>
<path fill="none" stroke="black" d="M529.04,-149.48C539.13,-147.58 549.54,-145.68 559.36,-144 652.14,-128.16 758.95,-112.66 831.39,-102.56"/>
<polygon fill="black" stroke="black" points="831.79,-106.03 841.21,-101.19 830.82,-99.1 831.79,-106.03"/>
</g>
<!-- :feature:register:data&#45;&gt;:core:network -->
<g id="edge16" class="edge">
<title>:feature:register:data&#45;&gt;:core:network</title>
<path fill="none" stroke="black" d="M259.22,-144.59C242.62,-134.9 221.44,-122.55 203.6,-112.14"/>
<polygon fill="black" stroke="black" points="205.79,-109.37 195.39,-107.35 202.26,-115.41 205.79,-109.37"/>
</g>
<!-- :feature:register:data&#45;&gt;:core:common -->
<g id="edge17" class="edge">
<title>:feature:register:data&#45;&gt;:core:common</title>
<path fill="none" stroke="black" d="M278.33,-143.94C269.22,-124.1 258.8,-91.59 276.36,-72 303,-42.27 554.31,-27.53 683.48,-21.87"/>
<polygon fill="black" stroke="black" points="683.48,-25.37 693.32,-21.44 683.18,-18.38 683.48,-25.37"/>
</g>
<!-- :feature:register:domain -->
<g id="node11" class="node">
<title>:feature:register:domain</title>
<ellipse fill="none" stroke="black" cx="593.36" cy="-90" rx="99.97" ry="18"/>
<text text-anchor="middle" x="593.36" y="-84.95" font-family="Times,serif" font-size="14.00">:feature:register:domain</text>
</g>
<!-- :feature:register:data&#45;&gt;:feature:register:domain -->
<g id="edge15" class="edge">
<title>:feature:register:data&#45;&gt;:feature:register:domain</title>
<path fill="none" stroke="black" d="M344.2,-148C394.48,-136.49 468.08,-119.66 522.25,-107.27"/>
<polygon fill="black" stroke="black" points="522.72,-110.75 531.68,-105.11 521.16,-103.93 522.72,-110.75"/>
</g>
<!-- :feature:splash:ui -->
<g id="node12" class="node">
<title>:feature:splash:ui</title>
<ellipse fill="none" stroke="black" cx="642.36" cy="-162" rx="74.38" ry="18"/>
<text text-anchor="middle" x="642.36" y="-156.95" font-family="Times,serif" font-size="14.00">:feature:splash:ui</text>
</g>
<!-- :navigation&#45;&gt;:feature:splash:ui -->
<g id="edge19" class="edge">
<title>:navigation&#45;&gt;:feature:splash:ui</title>
<path fill="none" stroke="red" stroke-width="2" d="M856.39,-221.99C814.61,-210.47 748.63,-192.29 700.96,-179.15"/>
<polygon fill="red" stroke="red" stroke-width="2" points="703.36,-176.18 692.79,-176.9 701.5,-182.93 703.36,-176.18"/>
</g>
<!-- :feature:welcome:ui -->
<g id="node13" class="node">
<title>:feature:welcome:ui</title>
<ellipse fill="none" stroke="black" cx="1153.36" cy="-162" rx="85.13" ry="18"/>
<text text-anchor="middle" x="1153.36" y="-156.95" font-family="Times,serif" font-size="14.00">:feature:welcome:ui</text>
</g>
<!-- :navigation&#45;&gt;:feature:welcome:ui -->
<g id="edge20" class="edge">
<title>:navigation&#45;&gt;:feature:welcome:ui</title>
<path fill="none" stroke="black" d="M936.51,-222.06C978.03,-210.75 1043.4,-192.95 1091.52,-179.84"/>
<polygon fill="black" stroke="black" points="1092.24,-183.27 1100.97,-177.27 1090.4,-176.52 1092.24,-183.27"/>
</g>
<!-- :feature:login:ui -->
<g id="node14" class="node">
<title>:feature:login:ui</title>
<ellipse fill="none" stroke="black" cx="980.36" cy="-162" rx="70.29" ry="18"/>
<text text-anchor="middle" x="980.36" y="-156.95" font-family="Times,serif" font-size="14.00">:feature:login:ui</text>
</g>
<!-- :navigation&#45;&gt;:feature:login:ui -->
<g id="edge21" class="edge">
<title>:navigation&#45;&gt;:feature:login:ui</title>
<path fill="none" stroke="black" d="M915.42,-217.12C926.14,-208.18 939.74,-196.85 951.72,-186.86"/>
<polygon fill="black" stroke="black" points="953.89,-189.61 959.33,-180.52 949.41,-184.23 953.89,-189.61"/>
</g>
<!-- :feature:register:ui -->
<g id="node15" class="node">
<title>:feature:register:ui</title>
<ellipse fill="none" stroke="black" cx="813.36" cy="-162" rx="78.99" ry="18"/>
<text text-anchor="middle" x="813.36" y="-156.95" font-family="Times,serif" font-size="14.00">:feature:register:ui</text>
</g>
<!-- :navigation&#45;&gt;:feature:register:ui -->
<g id="edge22" class="edge">
<title>:navigation&#45;&gt;:feature:register:ui</title>
<path fill="none" stroke="black" d="M877.52,-217.12C867,-208.24 853.68,-197.01 841.91,-187.08"/>
<polygon fill="black" stroke="black" points="844.33,-184.54 834.43,-180.77 839.82,-189.9 844.33,-184.54"/>
</g>
<!-- :feature:home:ui -->
<g id="node16" class="node">
<title>:feature:home:ui</title>
<ellipse fill="none" stroke="black" cx="1366.36" cy="-162" rx="72.34" ry="18"/>
<text text-anchor="middle" x="1366.36" y="-156.95" font-family="Times,serif" font-size="14.00">:feature:home:ui</text>
</g>
<!-- :navigation&#45;&gt;:feature:home:ui -->
<g id="edge23" class="edge">
<title>:navigation&#45;&gt;:feature:home:ui</title>
<path fill="none" stroke="black" d="M943.57,-225.97C1026.09,-213.68 1196.99,-188.22 1294.35,-173.72"/>
<polygon fill="black" stroke="black" points="1294.68,-177.21 1304.06,-172.28 1293.65,-170.29 1294.68,-177.21"/>
</g>
<!-- :feature:splash:domain&#45;&gt;:core:common -->
<g id="edge10" class="edge">
<title>:feature:splash:domain&#45;&gt;:core:common</title>
<path fill="none" stroke="red" stroke-width="2" d="M446.81,-76.73C516.69,-63.82 625.91,-43.65 694.99,-30.89"/>
<polygon fill="red" stroke="red" stroke-width="2" points="693.97,-34.64 703.17,-29.38 692.7,-27.75 693.97,-34.64"/>
</g>
<!-- :feature:login:domain&#45;&gt;:core:common -->
<g id="edge14" class="edge">
<title>:feature:login:domain&#45;&gt;:core:common</title>
<path fill="none" stroke="black" d="M880.73,-73.12C857.72,-62.86 827.62,-49.43 803.15,-38.52"/>
<polygon fill="black" stroke="black" points="804.64,-35.36 794.08,-34.48 801.79,-41.75 804.64,-35.36"/>
</g>
<!-- :feature:register:domain&#45;&gt;:core:common -->
<g id="edge18" class="edge">
<title>:feature:register:domain&#45;&gt;:core:common</title>
<path fill="none" stroke="black" d="M631.44,-72.94C656.09,-62.55 688.3,-48.96 714.24,-38.03"/>
<polygon fill="black" stroke="black" points="715.31,-41.37 723.17,-34.26 712.59,-34.92 715.31,-41.37"/>
</g>
<!-- :feature:splash:ui&#45;&gt;:core:ui -->
<g id="edge24" class="edge">
<title>:feature:splash:ui&#45;&gt;:core:ui</title>
<path fill="none" stroke="black" d="M696.27,-149.32C705.93,-147.4 715.92,-145.55 725.36,-144 853.96,-122.91 887.68,-128.65 1016.36,-108 1029.37,-105.91 1043.43,-103.29 1056.33,-100.73"/>
<polygon fill="black" stroke="black" points="1056.72,-104.23 1065.83,-98.82 1055.33,-97.36 1056.72,-104.23"/>
</g>
<!-- :feature:splash:ui&#45;&gt;:feature:splash:domain -->
<g id="edge26" class="edge">
<title>:feature:splash:ui&#45;&gt;:feature:splash:domain</title>
<path fill="none" stroke="red" stroke-width="2" d="M593.69,-148C551.72,-136.78 490.79,-120.5 444.78,-108.21"/>
<polygon fill="red" stroke="red" stroke-width="2" points="447.21,-105.24 436.65,-106.04 445.4,-112 447.21,-105.24"/>
</g>
<!-- :feature:splash:ui&#45;&gt;:core:common -->
<g id="edge25" class="edge">
<title>:feature:splash:ui&#45;&gt;:core:common</title>
<path fill="none" stroke="black" d="M682.6,-146.53C701.14,-137.96 721.95,-125.35 735.36,-108 748.69,-90.76 754.63,-66.68 757.27,-47.91"/>
<polygon fill="black" stroke="black" points="760.74,-48.31 758.4,-37.98 753.79,-47.52 760.74,-48.31"/>
</g>
<!-- :feature:welcome:ui&#45;&gt;:core:ui -->
<g id="edge27" class="edge">
<title>:feature:welcome:ui&#45;&gt;:core:ui</title>
<path fill="none" stroke="black" d="M1141.01,-144.05C1134.97,-135.77 1127.58,-125.62 1120.88,-116.42"/>
<polygon fill="black" stroke="black" points="1123.85,-114.55 1115.13,-108.53 1118.19,-118.67 1123.85,-114.55"/>
</g>
<!-- :feature:welcome:ui&#45;&gt;:core:common -->
<g id="edge28" class="edge">
<title>:feature:welcome:ui&#45;&gt;:core:common</title>
<path fill="none" stroke="black" d="M1158.62,-143.87C1163.57,-123.96 1167.88,-91.38 1150.36,-72 1109.67,-26.98 938.02,-18.89 836.17,-18.17"/>
<polygon fill="black" stroke="black" points="836.25,-14.67 826.23,-18.13 836.22,-21.67 836.25,-14.67"/>
</g>
<!-- :feature:login:ui&#45;&gt;:core:ui -->
<g id="edge29" class="edge">
<title>:feature:login:ui&#45;&gt;:core:ui</title>
<path fill="none" stroke="black" d="M1008.04,-145.12C1026.04,-134.79 1049.62,-121.26 1068.7,-110.31"/>
<polygon fill="black" stroke="black" points="1070.24,-113.46 1077.18,-105.45 1066.76,-107.39 1070.24,-113.46"/>
</g>
<!-- :feature:login:ui&#45;&gt;:core:common -->
<g id="edge30" class="edge">
<title>:feature:login:ui&#45;&gt;:core:common</title>
<path fill="none" stroke="black" d="M996.76,-144.03C1013.26,-124.88 1033.94,-93.58 1016.36,-72 993.64,-44.12 901.21,-30.47 833.68,-24.1"/>
<polygon fill="black" stroke="black" points="834.02,-20.62 823.74,-23.21 833.39,-27.59 834.02,-20.62"/>
</g>
<!-- :feature:login:ui&#45;&gt;:feature:login:domain -->
<g id="edge31" class="edge">
<title>:feature:login:ui&#45;&gt;:feature:login:domain</title>
<path fill="none" stroke="black" d="M964.87,-144.05C957.24,-135.71 947.89,-125.49 939.44,-116.25"/>
<polygon fill="black" stroke="black" points="942.06,-113.92 932.73,-108.91 936.89,-118.65 942.06,-113.92"/>
</g>
<!-- :feature:register:ui&#45;&gt;:core:ui -->
<g id="edge32" class="edge">
<title>:feature:register:ui&#45;&gt;:core:ui</title>
<path fill="none" stroke="black" d="M866.03,-148.24C920.67,-135.01 1005.22,-114.53 1056.99,-101.99"/>
<polygon fill="black" stroke="black" points="1057.79,-105.4 1066.68,-99.64 1056.14,-98.59 1057.79,-105.4"/>
</g>
<!-- :feature:register:ui&#45;&gt;:core:common -->
<g id="edge33" class="edge">
<title>:feature:register:ui&#45;&gt;:core:common</title>
<path fill="none" stroke="black" d="M806.74,-143.59C797.54,-119.4 780.79,-75.36 769.87,-46.65"/>
<polygon fill="black" stroke="black" points="773.23,-45.63 766.4,-37.53 766.69,-48.12 773.23,-45.63"/>
</g>
<!-- :feature:register:ui&#45;&gt;:feature:register:domain -->
<g id="edge34" class="edge">
<title>:feature:register:ui&#45;&gt;:feature:register:domain</title>
<path fill="none" stroke="black" d="M768.57,-146.75C734.84,-136.02 688.3,-121.21 651.67,-109.55"/>
<polygon fill="black" stroke="black" points="653.16,-106.36 642.57,-106.66 651.04,-113.03 653.16,-106.36"/>
</g>
<!-- :feature:home:ui&#45;&gt;:core:ui -->
<g id="edge35" class="edge">
<title>:feature:home:ui&#45;&gt;:core:ui</title>
<path fill="none" stroke="black" d="M1318.24,-148.24C1269.23,-135.25 1193.86,-115.26 1146.38,-102.67"/>
<polygon fill="black" stroke="black" points="1147.55,-99.36 1136.99,-100.18 1145.76,-106.13 1147.55,-99.36"/>
</g>
<!-- :feature:home:ui&#45;&gt;:core:common -->
<g id="edge36" class="edge">
<title>:feature:home:ui&#45;&gt;:core:common</title>
<path fill="none" stroke="black" d="M1338.48,-145.11C1301.36,-124.72 1233.08,-89.85 1170.36,-72 1056.19,-39.51 918.46,-26.88 834.97,-22.01"/>
<polygon fill="black" stroke="black" points="835.25,-18.52 825.07,-21.46 834.86,-25.51 835.25,-18.52"/>
</g>
</g>
</svg>
