<?xml version="1.0" encoding="UTF-8" standalone="no"?>
<!DOCTYPE svg PUBLIC "-//W3C//DTD SVG 1.1//EN"
 "http://www.w3.org/Graphics/SVG/1.1/DTD/svg11.dtd">
<!-- Generated by graphviz version 12.2.1 (20241206.2353)
 -->
<!-- Title: G Pages: 1 -->
<svg width="324pt" height="188pt"
 viewBox="0.00 0.00 324.34 188.00" xmlns="http://www.w3.org/2000/svg" xmlns:xlink="http://www.w3.org/1999/xlink">
<g id="graph0" class="graph" transform="scale(1 1) rotate(0) translate(4 184)">
<title>G</title>
<polygon fill="white" stroke="none" points="-4,4 -4,-184 320.34,-184 320.34,4 -4,4"/>
<!-- :feature:login:ui -->
<g id="node1" class="node">
<title>:feature:login:ui</title>
<ellipse fill="none" stroke="black" cx="106.07" cy="-162" rx="70.29" ry="18"/>
<text text-anchor="middle" x="106.07" y="-156.95" font-family="Times,serif" font-size="14.00">:feature:login:ui</text>
</g>
<!-- :core:ui -->
<g id="node2" class="node">
<title>:core:ui</title>
<ellipse fill="none" stroke="black" cx="39.07" cy="-90" rx="39.07" ry="18"/>
<text text-anchor="middle" x="39.07" y="-84.95" font-family="Times,serif" font-size="14.00">:core:ui</text>
</g>
<!-- :feature:login:ui&#45;&gt;:core:ui -->
<g id="edge1" class="edge">
<title>:feature:login:ui&#45;&gt;:core:ui</title>
<path fill="none" stroke="black" d="M89.85,-144.05C81.46,-135.29 71.08,-124.45 61.9,-114.86"/>
<polygon fill="black" stroke="black" points="64.71,-112.73 55.27,-107.92 59.65,-117.57 64.71,-112.73"/>
</g>
<!-- :core:common -->
<g id="node3" class="node">
<title>:core:common</title>
<ellipse fill="none" stroke="black" cx="165.07" cy="-18" rx="65.17" ry="18"/>
<text text-anchor="middle" x="165.07" y="-12.95" font-family="Times,serif" font-size="14.00">:core:common</text>
</g>
<!-- :feature:login:ui&#45;&gt;:core:common -->
<g id="edge2" class="edge">
<title>:feature:login:ui&#45;&gt;:core:common</title>
<path fill="none" stroke="black" d="M107.53,-143.57C109.59,-125.1 114.37,-95.43 125.07,-72 129.45,-62.4 135.82,-52.89 142.18,-44.63"/>
<polygon fill="black" stroke="black" points="144.73,-47.05 148.31,-37.07 139.29,-42.63 144.73,-47.05"/>
</g>
<!-- :feature:login:domain -->
<g id="node4" class="node">
<title>:feature:login:domain</title>
<ellipse fill="none" stroke="black" cx="225.07" cy="-90" rx="91.27" ry="18"/>
<text text-anchor="middle" x="225.07" y="-84.95" font-family="Times,serif" font-size="14.00">:feature:login:domain</text>
</g>
<!-- :feature:login:ui&#45;&gt;:feature:login:domain -->
<g id="edge3" class="edge">
<title>:feature:login:ui&#45;&gt;:feature:login:domain</title>
<path fill="none" stroke="red" stroke-width="2" d="M133.37,-144.94C149.32,-135.56 169.68,-123.58 187.16,-113.3"/>
<polygon fill="red" stroke="red" stroke-width="2" points="187.61,-117.09 194.46,-109.01 184.06,-111.06 187.61,-117.09"/>
</g>
<!-- :feature:login:domain&#45;&gt;:core:common -->
<g id="edge4" class="edge">
<title>:feature:login:domain&#45;&gt;:core:common</title>
<path fill="none" stroke="red" stroke-width="2" d="M210.54,-72.05C203.39,-63.71 194.63,-53.49 186.71,-44.25"/>
<polygon fill="red" stroke="red" stroke-width="2" points="190.59,-43.4 181.43,-38.09 185.28,-47.96 190.59,-43.4"/>
</g>
</g>
</svg>
