<?xml version="1.0" encoding="UTF-8" standalone="no"?>
<!DOCTYPE svg PUBLIC "-//W3C//DTD SVG 1.1//EN"
 "http://www.w3.org/Graphics/SVG/1.1/DTD/svg11.dtd">
<!-- Generated by graphviz version 12.2.1 (20241206.2353)
 -->
<!-- Title: G Pages: 1 -->
<svg width="626pt" height="188pt"
 viewBox="0.00 0.00 626.14 188.00" xmlns="http://www.w3.org/2000/svg" xmlns:xlink="http://www.w3.org/1999/xlink">
<g id="graph0" class="graph" transform="scale(1 1) rotate(0) translate(4 184)">
<title>G</title>
<polygon fill="white" stroke="none" points="-4,4 -4,-184 622.14,-184 622.14,4 -4,4"/>
<!-- :feature:editprofile:data -->
<g id="node1" class="node">
<title>:feature:editprofile:data</title>
<ellipse fill="none" stroke="black" cx="294.72" cy="-162" rx="97.93" ry="18"/>
<text text-anchor="middle" x="294.72" y="-156.95" font-family="Times,serif" font-size="14.00">:feature:editprofile:data</text>
</g>
<!-- :feature:editprofile:domain -->
<g id="node2" class="node">
<title>:feature:editprofile:domain</title>
<ellipse fill="none" stroke="black" cx="110.72" cy="-90" rx="110.72" ry="18"/>
<text text-anchor="middle" x="110.72" y="-84.95" font-family="Times,serif" font-size="14.00">:feature:editprofile:domain</text>
</g>
<!-- :feature:editprofile:data&#45;&gt;:feature:editprofile:domain -->
<g id="edge1" class="edge">
<title>:feature:editprofile:data&#45;&gt;:feature:editprofile:domain</title>
<path fill="none" stroke="red" stroke-width="2" d="M253.43,-145.29C226.84,-135.18 192.03,-121.93 163.45,-111.06"/>
<polygon fill="red" stroke="red" stroke-width="2" points="166.25,-108.38 155.66,-108.1 163.76,-114.92 166.25,-108.38"/>
</g>
<!-- :core:network -->
<g id="node3" class="node">
<title>:core:network</title>
<ellipse fill="none" stroke="black" cx="339.72" cy="-90" rx="62.1" ry="18"/>
<text text-anchor="middle" x="339.72" y="-84.95" font-family="Times,serif" font-size="14.00">:core:network</text>
</g>
<!-- :feature:editprofile:data&#45;&gt;:core:network -->
<g id="edge2" class="edge">
<title>:feature:editprofile:data&#45;&gt;:core:network</title>
<path fill="none" stroke="black" d="M305.84,-143.7C310.91,-135.81 317.03,-126.3 322.66,-117.55"/>
<polygon fill="black" stroke="black" points="325.44,-119.68 327.91,-109.38 319.56,-115.9 325.44,-119.68"/>
</g>
<!-- :core:common -->
<g id="node4" class="node">
<title>:core:common</title>
<ellipse fill="none" stroke="black" cx="191.72" cy="-18" rx="65.17" ry="18"/>
<text text-anchor="middle" x="191.72" y="-12.95" font-family="Times,serif" font-size="14.00">:core:common</text>
</g>
<!-- :feature:editprofile:data&#45;&gt;:core:common -->
<g id="edge3" class="edge">
<title>:feature:editprofile:data&#45;&gt;:core:common</title>
<path fill="none" stroke="black" d="M282.51,-143.9C269.67,-125.95 248.86,-96.93 230.72,-72 224.37,-63.27 217.4,-53.77 211.13,-45.26"/>
<polygon fill="black" stroke="black" points="214.07,-43.34 205.31,-37.37 208.43,-47.49 214.07,-43.34"/>
</g>
<!-- :core:datasource:profile -->
<g id="node5" class="node">
<title>:core:datasource:profile</title>
<ellipse fill="none" stroke="black" cx="518.72" cy="-90" rx="98.44" ry="18"/>
<text text-anchor="middle" x="518.72" y="-84.95" font-family="Times,serif" font-size="14.00">:core:datasource:profile</text>
</g>
<!-- :feature:editprofile:data&#45;&gt;:core:datasource:profile -->
<g id="edge4" class="edge">
<title>:feature:editprofile:data&#45;&gt;:core:datasource:profile</title>
<path fill="none" stroke="black" d="M343.05,-145.9C377.2,-135.23 423.18,-120.86 459.53,-109.5"/>
<polygon fill="black" stroke="black" points="460.53,-112.85 469.03,-106.53 458.45,-106.17 460.53,-112.85"/>
</g>
<!-- :feature:editprofile:domain&#45;&gt;:core:common -->
<g id="edge5" class="edge">
<title>:feature:editprofile:domain&#45;&gt;:core:common</title>
<path fill="none" stroke="red" stroke-width="2" d="M130.33,-72.05C140.45,-63.31 152.97,-52.49 164.06,-42.9"/>
<polygon fill="red" stroke="red" stroke-width="2" points="165.01,-46.71 170.28,-37.53 160.43,-41.42 165.01,-46.71"/>
</g>
<!-- :core:network&#45;&gt;:core:common -->
<g id="edge6" class="edge">
<title>:core:network&#45;&gt;:core:common</title>
<path fill="none" stroke="black" d="M308.33,-74.15C286.6,-63.88 257.44,-50.08 233.71,-38.86"/>
<polygon fill="black" stroke="black" points="235.48,-35.82 224.94,-34.71 232.48,-42.15 235.48,-35.82"/>
</g>
<!-- :core:datastore -->
<g id="node6" class="node">
<title>:core:datastore</title>
<ellipse fill="none" stroke="black" cx="339.72" cy="-18" rx="65.17" ry="18"/>
<text text-anchor="middle" x="339.72" y="-12.95" font-family="Times,serif" font-size="14.00">:core:datastore</text>
</g>
<!-- :core:network&#45;&gt;:core:datastore -->
<g id="edge7" class="edge">
<title>:core:network&#45;&gt;:core:datastore</title>
<path fill="none" stroke="black" d="M339.72,-71.7C339.72,-64.41 339.72,-55.73 339.72,-47.54"/>
<polygon fill="black" stroke="black" points="343.22,-47.62 339.72,-37.62 336.22,-47.62 343.22,-47.62"/>
</g>
<!-- :core:datasource:logout -->
<g id="node7" class="node">
<title>:core:datasource:logout</title>
<ellipse fill="none" stroke="black" cx="520.72" cy="-18" rx="97.41" ry="18"/>
<text text-anchor="middle" x="520.72" y="-12.95" font-family="Times,serif" font-size="14.00">:core:datasource:logout</text>
</g>
<!-- :core:network&#45;&gt;:core:datasource:logout -->
<g id="edge8" class="edge">
<title>:core:network&#45;&gt;:core:datasource:logout</title>
<path fill="none" stroke="black" d="M375.91,-75C402.65,-64.66 439.42,-50.44 469.22,-38.92"/>
<polygon fill="black" stroke="black" points="470.38,-42.22 478.44,-35.35 467.85,-35.69 470.38,-42.22"/>
</g>
</g>
</svg>
