<?xml version="1.0" encoding="UTF-8" standalone="no"?>
<!DOCTYPE svg PUBLIC "-//W3C//DTD SVG 1.1//EN"
 "http://www.w3.org/Graphics/SVG/1.1/DTD/svg11.dtd">
<!-- Generated by graphviz version 12.2.1 (20241206.2353)
 -->
<!-- Title: G Pages: 1 -->
<svg width="234pt" height="116pt"
 viewBox="0.00 0.00 234.24 116.00" xmlns="http://www.w3.org/2000/svg" xmlns:xlink="http://www.w3.org/1999/xlink">
<g id="graph0" class="graph" transform="scale(1 1) rotate(0) translate(4 112)">
<title>G</title>
<polygon fill="white" stroke="none" points="-4,4 -4,-112 230.24,-112 230.24,4 -4,4"/>
<!-- :feature:summary:ui -->
<g id="node1" class="node">
<title>:feature:summary:ui</title>
<ellipse fill="none" stroke="black" cx="100.07" cy="-90" rx="86.67" ry="18"/>
<text text-anchor="middle" x="100.07" y="-84.95" font-family="Times,serif" font-size="14.00">:feature:summary:ui</text>
</g>
<!-- :core:ui -->
<g id="node2" class="node">
<title>:core:ui</title>
<ellipse fill="none" stroke="black" cx="39.07" cy="-18" rx="39.07" ry="18"/>
<text text-anchor="middle" x="39.07" y="-12.95" font-family="Times,serif" font-size="14.00">:core:ui</text>
</g>
<!-- :feature:summary:ui&#45;&gt;:core:ui -->
<g id="edge1" class="edge">
<title>:feature:summary:ui&#45;&gt;:core:ui</title>
<path fill="none" stroke="red" stroke-width="2" d="M85.3,-72.05C77.82,-63.47 68.6,-52.89 60.36,-43.44"/>
<polygon fill="red" stroke="red" stroke-width="2" points="64.06,-42.35 54.85,-37.11 58.78,-46.95 64.06,-42.35"/>
</g>
<!-- :core:common -->
<g id="node3" class="node">
<title>:core:common</title>
<ellipse fill="none" stroke="black" cx="161.07" cy="-18" rx="65.17" ry="18"/>
<text text-anchor="middle" x="161.07" y="-12.95" font-family="Times,serif" font-size="14.00">:core:common</text>
</g>
<!-- :feature:summary:ui&#45;&gt;:core:common -->
<g id="edge2" class="edge">
<title>:feature:summary:ui&#45;&gt;:core:common</title>
<path fill="none" stroke="black" d="M114.83,-72.05C122.1,-63.71 131.01,-53.49 139.06,-44.25"/>
<polygon fill="black" stroke="black" points="141.51,-46.77 145.44,-36.93 136.23,-42.17 141.51,-46.77"/>
</g>
</g>
</svg>
