<?xml version="1.0" encoding="UTF-8" standalone="no"?>
<!DOCTYPE svg PUBLIC "-//W3C//DTD SVG 1.1//EN"
 "http://www.w3.org/Graphics/SVG/1.1/DTD/svg11.dtd">
<!-- Generated by graphviz version 12.2.1 (20241206.2353)
 -->
<!-- Title: G Pages: 1 -->
<svg width="354pt" height="188pt"
 viewBox="0.00 0.00 354.18 188.00" xmlns="http://www.w3.org/2000/svg" xmlns:xlink="http://www.w3.org/1999/xlink">
<g id="graph0" class="graph" transform="scale(1 1) rotate(0) translate(4 184)">
<title>G</title>
<polygon fill="white" stroke="none" points="-4,4 -4,-184 350.18,-184 350.18,4 -4,4"/>
<!-- :feature:welcome:ui -->
<g id="node1" class="node">
<title>:feature:welcome:ui</title>
<ellipse fill="none" stroke="black" cx="106.07" cy="-162" rx="85.13" ry="18"/>
<text text-anchor="middle" x="106.07" y="-156.95" font-family="Times,serif" font-size="14.00">:feature:welcome:ui</text>
</g>
<!-- :core:ui -->
<g id="node2" class="node">
<title>:core:ui</title>
<ellipse fill="none" stroke="black" cx="39.07" cy="-90" rx="39.07" ry="18"/>
<text text-anchor="middle" x="39.07" y="-84.95" font-family="Times,serif" font-size="14.00">:core:ui</text>
</g>
<!-- :feature:welcome:ui&#45;&gt;:core:ui -->
<g id="edge1" class="edge">
<title>:feature:welcome:ui&#45;&gt;:core:ui</title>
<path fill="none" stroke="black" d="M89.85,-144.05C81.46,-135.29 71.08,-124.45 61.9,-114.86"/>
<polygon fill="black" stroke="black" points="64.71,-112.73 55.27,-107.92 59.65,-117.57 64.71,-112.73"/>
</g>
<!-- :core:common -->
<g id="node3" class="node">
<title>:core:common</title>
<ellipse fill="none" stroke="black" cx="173.07" cy="-18" rx="65.17" ry="18"/>
<text text-anchor="middle" x="173.07" y="-12.95" font-family="Times,serif" font-size="14.00">:core:common</text>
</g>
<!-- :feature:welcome:ui&#45;&gt;:core:common -->
<g id="edge2" class="edge">
<title>:feature:welcome:ui&#45;&gt;:core:common</title>
<path fill="none" stroke="black" d="M107.09,-143.71C108.78,-125.1 113.26,-95.06 125.07,-72 130.36,-61.67 138.19,-51.81 146,-43.46"/>
<polygon fill="black" stroke="black" points="148.41,-46 152.96,-36.43 143.43,-41.07 148.41,-46"/>
</g>
<!-- :feature:welcome:domain -->
<g id="node4" class="node">
<title>:feature:welcome:domain</title>
<ellipse fill="none" stroke="black" cx="240.07" cy="-90" rx="106.11" ry="18"/>
<text text-anchor="middle" x="240.07" y="-84.95" font-family="Times,serif" font-size="14.00">:feature:welcome:domain</text>
</g>
<!-- :feature:welcome:ui&#45;&gt;:feature:welcome:domain -->
<g id="edge3" class="edge">
<title>:feature:welcome:ui&#45;&gt;:feature:welcome:domain</title>
<path fill="none" stroke="red" stroke-width="2" d="M137.15,-144.76C155.32,-135.27 178.49,-123.17 198.25,-112.84"/>
<polygon fill="red" stroke="red" stroke-width="2" points="198.3,-116.77 205.54,-109.04 195.06,-110.56 198.3,-116.77"/>
</g>
<!-- :feature:welcome:domain&#45;&gt;:core:common -->
<g id="edge4" class="edge">
<title>:feature:welcome:domain&#45;&gt;:core:common</title>
<path fill="none" stroke="red" stroke-width="2" d="M223.85,-72.05C215.78,-63.63 205.88,-53.28 196.96,-43.97"/>
<polygon fill="red" stroke="red" stroke-width="2" points="200.67,-42.78 191.23,-37.98 195.62,-47.62 200.67,-42.78"/>
</g>
</g>
</svg>
