<?xml version="1.0" encoding="UTF-8" standalone="no"?>
<!DOCTYPE svg PUBLIC "-//W3C//DTD SVG 1.1//EN"
 "http://www.w3.org/Graphics/SVG/1.1/DTD/svg11.dtd">
<!-- Generated by graphviz version 12.2.1 (20241206.2353)
 -->
<!-- Title: G Pages: 1 -->
<svg width="581pt" height="188pt"
 viewBox="0.00 0.00 580.62 188.00" xmlns="http://www.w3.org/2000/svg" xmlns:xlink="http://www.w3.org/1999/xlink">
<g id="graph0" class="graph" transform="scale(1 1) rotate(0) translate(4 184)">
<title>G</title>
<polygon fill="white" stroke="none" points="-4,4 -4,-184 576.62,-184 576.62,4 -4,4"/>
<!-- :feature:quiz:data -->
<g id="node1" class="node">
<title>:feature:quiz:data</title>
<ellipse fill="none" stroke="black" cx="204.2" cy="-162" rx="75.41" ry="18"/>
<text text-anchor="middle" x="204.2" y="-156.95" font-family="Times,serif" font-size="14.00">:feature:quiz:data</text>
</g>
<!-- :feature:quiz:domain -->
<g id="node2" class="node">
<title>:feature:quiz:domain</title>
<ellipse fill="none" stroke="black" cx="88.2" cy="-90" rx="88.2" ry="18"/>
<text text-anchor="middle" x="88.2" y="-84.95" font-family="Times,serif" font-size="14.00">:feature:quiz:domain</text>
</g>
<!-- :feature:quiz:data&#45;&gt;:feature:quiz:domain -->
<g id="edge1" class="edge">
<title>:feature:quiz:data&#45;&gt;:feature:quiz:domain</title>
<path fill="none" stroke="red" stroke-width="2" d="M177.3,-144.76C161.74,-135.38 141.95,-123.44 124.98,-113.19"/>
<polygon fill="red" stroke="red" stroke-width="2" points="128.32,-111.12 117.95,-108.95 124.71,-117.12 128.32,-111.12"/>
</g>
<!-- :core:network -->
<g id="node3" class="node">
<title>:core:network</title>
<ellipse fill="none" stroke="black" cx="294.2" cy="-90" rx="62.1" ry="18"/>
<text text-anchor="middle" x="294.2" y="-84.95" font-family="Times,serif" font-size="14.00">:core:network</text>
</g>
<!-- :feature:quiz:data&#45;&gt;:core:network -->
<g id="edge2" class="edge">
<title>:feature:quiz:data&#45;&gt;:core:network</title>
<path fill="none" stroke="black" d="M225.53,-144.41C237.16,-135.37 251.73,-124.03 264.46,-114.13"/>
<polygon fill="black" stroke="black" points="266.4,-117.06 272.14,-108.16 262.1,-111.53 266.4,-117.06"/>
</g>
<!-- :core:common -->
<g id="node4" class="node">
<title>:core:common</title>
<ellipse fill="none" stroke="black" cx="146.2" cy="-18" rx="65.17" ry="18"/>
<text text-anchor="middle" x="146.2" y="-12.95" font-family="Times,serif" font-size="14.00">:core:common</text>
</g>
<!-- :feature:quiz:data&#45;&gt;:core:common -->
<g id="edge3" class="edge">
<title>:feature:quiz:data&#45;&gt;:core:common</title>
<path fill="none" stroke="black" d="M202.68,-143.6C200.57,-125.15 195.76,-95.49 185.2,-72 180.96,-62.56 174.84,-53.17 168.7,-44.97"/>
<polygon fill="black" stroke="black" points="171.47,-42.84 162.53,-37.15 165.98,-47.17 171.47,-42.84"/>
</g>
<!-- :feature:quiz:domain&#45;&gt;:core:common -->
<g id="edge4" class="edge">
<title>:feature:quiz:domain&#45;&gt;:core:common</title>
<path fill="none" stroke="red" stroke-width="2" d="M102.24,-72.05C109.08,-63.8 117.45,-53.7 125.04,-44.54"/>
<polygon fill="red" stroke="red" stroke-width="2" points="126.67,-48.05 130.36,-38.12 121.28,-43.59 126.67,-48.05"/>
</g>
<!-- :core:network&#45;&gt;:core:common -->
<g id="edge5" class="edge">
<title>:core:network&#45;&gt;:core:common</title>
<path fill="none" stroke="black" d="M262.81,-74.15C241.08,-63.88 211.92,-50.08 188.19,-38.86"/>
<polygon fill="black" stroke="black" points="189.96,-35.82 179.42,-34.71 186.97,-42.15 189.96,-35.82"/>
</g>
<!-- :core:datastore -->
<g id="node5" class="node">
<title>:core:datastore</title>
<ellipse fill="none" stroke="black" cx="294.2" cy="-18" rx="65.17" ry="18"/>
<text text-anchor="middle" x="294.2" y="-12.95" font-family="Times,serif" font-size="14.00">:core:datastore</text>
</g>
<!-- :core:network&#45;&gt;:core:datastore -->
<g id="edge6" class="edge">
<title>:core:network&#45;&gt;:core:datastore</title>
<path fill="none" stroke="black" d="M294.2,-71.7C294.2,-64.41 294.2,-55.73 294.2,-47.54"/>
<polygon fill="black" stroke="black" points="297.7,-47.62 294.2,-37.62 290.7,-47.62 297.7,-47.62"/>
</g>
<!-- :core:datasource:logout -->
<g id="node6" class="node">
<title>:core:datasource:logout</title>
<ellipse fill="none" stroke="black" cx="475.2" cy="-18" rx="97.41" ry="18"/>
<text text-anchor="middle" x="475.2" y="-12.95" font-family="Times,serif" font-size="14.00">:core:datasource:logout</text>
</g>
<!-- :core:network&#45;&gt;:core:datasource:logout -->
<g id="edge7" class="edge">
<title>:core:network&#45;&gt;:core:datasource:logout</title>
<path fill="none" stroke="black" d="M330.39,-75C357.13,-64.66 393.91,-50.44 423.7,-38.92"/>
<polygon fill="black" stroke="black" points="424.86,-42.22 432.92,-35.35 422.33,-35.69 424.86,-42.22"/>
</g>
</g>
</svg>
