<?xml version="1.0" encoding="UTF-8" standalone="no"?>
<!DOCTYPE svg PUBLIC "-//W3C//DTD SVG 1.1//EN"
 "http://www.w3.org/Graphics/SVG/1.1/DTD/svg11.dtd">
<!-- Generated by graphviz version 12.2.1 (20241206.2353)
 -->
<!-- Title: G Pages: 1 -->
<svg width="636pt" height="188pt"
 viewBox="0.00 0.00 636.25 188.00" xmlns="http://www.w3.org/2000/svg" xmlns:xlink="http://www.w3.org/1999/xlink">
<g id="graph0" class="graph" transform="scale(1 1) rotate(0) translate(4 184)">
<title>G</title>
<polygon fill="white" stroke="none" points="-4,4 -4,-184 632.25,-184 632.25,4 -4,4"/>
<!-- :feature:leaderboard:data -->
<g id="node1" class="node">
<title>:feature:leaderboard:data</title>
<ellipse fill="none" stroke="black" cx="259.84" cy="-162" rx="103.04" ry="18"/>
<text text-anchor="middle" x="259.84" y="-156.95" font-family="Times,serif" font-size="14.00">:feature:leaderboard:data</text>
</g>
<!-- :feature:leaderboard:domain -->
<g id="node2" class="node">
<title>:feature:leaderboard:domain</title>
<ellipse fill="none" stroke="black" cx="115.84" cy="-90" rx="115.84" ry="18"/>
<text text-anchor="middle" x="115.84" y="-84.95" font-family="Times,serif" font-size="14.00">:feature:leaderboard:domain</text>
</g>
<!-- :feature:leaderboard:data&#45;&gt;:feature:leaderboard:domain -->
<g id="edge1" class="edge">
<title>:feature:leaderboard:data&#45;&gt;:feature:leaderboard:domain</title>
<path fill="none" stroke="red" stroke-width="2" d="M226.08,-144.59C206.43,-135.04 181.44,-122.89 160.21,-112.57"/>
<polygon fill="red" stroke="red" stroke-width="2" points="163.38,-110.22 152.86,-109 160.32,-116.52 163.38,-110.22"/>
</g>
<!-- :core:network -->
<g id="node3" class="node">
<title>:core:network</title>
<ellipse fill="none" stroke="black" cx="349.84" cy="-90" rx="62.1" ry="18"/>
<text text-anchor="middle" x="349.84" y="-84.95" font-family="Times,serif" font-size="14.00">:core:network</text>
</g>
<!-- :feature:leaderboard:data&#45;&gt;:core:network -->
<g id="edge2" class="edge">
<title>:feature:leaderboard:data&#45;&gt;:core:network</title>
<path fill="none" stroke="black" d="M281.63,-144.05C293.18,-135.07 307.55,-123.9 320.11,-114.12"/>
<polygon fill="black" stroke="black" points="321.93,-117.14 327.68,-108.24 317.64,-111.61 321.93,-117.14"/>
</g>
<!-- :core:common -->
<g id="node4" class="node">
<title>:core:common</title>
<ellipse fill="none" stroke="black" cx="201.84" cy="-18" rx="65.17" ry="18"/>
<text text-anchor="middle" x="201.84" y="-12.95" font-family="Times,serif" font-size="14.00">:core:common</text>
</g>
<!-- :feature:leaderboard:data&#45;&gt;:core:common -->
<g id="edge3" class="edge">
<title>:feature:leaderboard:data&#45;&gt;:core:common</title>
<path fill="none" stroke="black" d="M258.32,-143.6C256.21,-125.15 251.4,-95.49 240.84,-72 236.6,-62.56 230.48,-53.17 224.34,-44.97"/>
<polygon fill="black" stroke="black" points="227.11,-42.84 218.17,-37.15 221.61,-47.17 227.11,-42.84"/>
</g>
<!-- :feature:leaderboard:domain&#45;&gt;:core:common -->
<g id="edge4" class="edge">
<title>:feature:leaderboard:domain&#45;&gt;:core:common</title>
<path fill="none" stroke="red" stroke-width="2" d="M136.66,-72.05C147.51,-63.22 160.96,-52.27 172.82,-42.62"/>
<polygon fill="red" stroke="red" stroke-width="2" points="173.62,-46.49 179.16,-37.46 169.2,-41.06 173.62,-46.49"/>
</g>
<!-- :core:network&#45;&gt;:core:common -->
<g id="edge5" class="edge">
<title>:core:network&#45;&gt;:core:common</title>
<path fill="none" stroke="black" d="M318.45,-74.15C296.72,-63.88 267.55,-50.08 243.83,-38.86"/>
<polygon fill="black" stroke="black" points="245.6,-35.82 235.06,-34.71 242.6,-42.15 245.6,-35.82"/>
</g>
<!-- :core:datastore -->
<g id="node5" class="node">
<title>:core:datastore</title>
<ellipse fill="none" stroke="black" cx="349.84" cy="-18" rx="65.17" ry="18"/>
<text text-anchor="middle" x="349.84" y="-12.95" font-family="Times,serif" font-size="14.00">:core:datastore</text>
</g>
<!-- :core:network&#45;&gt;:core:datastore -->
<g id="edge6" class="edge">
<title>:core:network&#45;&gt;:core:datastore</title>
<path fill="none" stroke="black" d="M349.84,-71.7C349.84,-64.41 349.84,-55.73 349.84,-47.54"/>
<polygon fill="black" stroke="black" points="353.34,-47.62 349.84,-37.62 346.34,-47.62 353.34,-47.62"/>
</g>
<!-- :core:datasource:logout -->
<g id="node6" class="node">
<title>:core:datasource:logout</title>
<ellipse fill="none" stroke="black" cx="530.84" cy="-18" rx="97.41" ry="18"/>
<text text-anchor="middle" x="530.84" y="-12.95" font-family="Times,serif" font-size="14.00">:core:datasource:logout</text>
</g>
<!-- :core:network&#45;&gt;:core:datasource:logout -->
<g id="edge7" class="edge">
<title>:core:network&#45;&gt;:core:datasource:logout</title>
<path fill="none" stroke="black" d="M386.03,-75C412.77,-64.66 449.54,-50.44 479.34,-38.92"/>
<polygon fill="black" stroke="black" points="480.5,-42.22 488.56,-35.35 477.97,-35.69 480.5,-42.22"/>
</g>
</g>
</svg>
