<?xml version="1.0" encoding="UTF-8" standalone="no"?>
<!DOCTYPE svg PUBLIC "-//W3C//DTD SVG 1.1//EN"
 "http://www.w3.org/Graphics/SVG/1.1/DTD/svg11.dtd">
<!-- Generated by graphviz version 12.2.1 (20241206.2353)
 -->
<!-- Title: G Pages: 1 -->
<svg width="653pt" height="188pt"
 viewBox="0.00 0.00 652.55 188.00" xmlns="http://www.w3.org/2000/svg" xmlns:xlink="http://www.w3.org/1999/xlink">
<g id="graph0" class="graph" transform="scale(1 1) rotate(0) translate(4 184)">
<title>G</title>
<polygon fill="white" stroke="none" points="-4,4 -4,-184 648.55,-184 648.55,4 -4,4"/>
<!-- :feature:welcome:data -->
<g id="node1" class="node">
<title>:feature:welcome:data</title>
<ellipse fill="none" stroke="black" cx="330.11" cy="-162" rx="93.32" ry="18"/>
<text text-anchor="middle" x="330.11" y="-156.95" font-family="Times,serif" font-size="14.00">:feature:welcome:data</text>
</g>
<!-- :feature:welcome:domain -->
<g id="node2" class="node">
<title>:feature:welcome:domain</title>
<ellipse fill="none" stroke="black" cx="106.11" cy="-90" rx="106.11" ry="18"/>
<text text-anchor="middle" x="106.11" y="-84.95" font-family="Times,serif" font-size="14.00">:feature:welcome:domain</text>
</g>
<!-- :feature:welcome:data&#45;&gt;:feature:welcome:domain -->
<g id="edge1" class="edge">
<title>:feature:welcome:data&#45;&gt;:feature:welcome:domain</title>
<path fill="none" stroke="red" stroke-width="2" d="M282.61,-146.15C248.48,-135.49 202.23,-121.04 165.63,-109.6"/>
<polygon fill="red" stroke="red" stroke-width="2" points="168.58,-106.85 157.99,-107.21 166.49,-113.53 168.58,-106.85"/>
</g>
<!-- :core:network -->
<g id="node3" class="node">
<title>:core:network</title>
<ellipse fill="none" stroke="black" cx="330.11" cy="-90" rx="62.1" ry="18"/>
<text text-anchor="middle" x="330.11" y="-84.95" font-family="Times,serif" font-size="14.00">:core:network</text>
</g>
<!-- :feature:welcome:data&#45;&gt;:core:network -->
<g id="edge2" class="edge">
<title>:feature:welcome:data&#45;&gt;:core:network</title>
<path fill="none" stroke="black" d="M330.11,-143.7C330.11,-136.41 330.11,-127.73 330.11,-119.54"/>
<polygon fill="black" stroke="black" points="333.61,-119.62 330.11,-109.62 326.61,-119.62 333.61,-119.62"/>
</g>
<!-- :core:common -->
<g id="node4" class="node">
<title>:core:common</title>
<ellipse fill="none" stroke="black" cx="127.11" cy="-18" rx="65.17" ry="18"/>
<text text-anchor="middle" x="127.11" y="-12.95" font-family="Times,serif" font-size="14.00">:core:common</text>
</g>
<!-- :feature:welcome:data&#45;&gt;:core:common -->
<g id="edge3" class="edge">
<title>:feature:welcome:data&#45;&gt;:core:common</title>
<path fill="none" stroke="black" d="M306.24,-144.25C292.2,-134.14 274.29,-120.78 259.11,-108 241.32,-93.02 239.83,-85.82 221.11,-72 204.76,-59.93 185.39,-48.57 168.49,-39.49"/>
<polygon fill="black" stroke="black" points="170.16,-36.41 159.68,-34.85 166.9,-42.61 170.16,-36.41"/>
</g>
<!-- :core:datastore -->
<g id="node5" class="node">
<title>:core:datastore</title>
<ellipse fill="none" stroke="black" cx="489.11" cy="-18" rx="65.17" ry="18"/>
<text text-anchor="middle" x="489.11" y="-12.95" font-family="Times,serif" font-size="14.00">:core:datastore</text>
</g>
<!-- :feature:welcome:data&#45;&gt;:core:datastore -->
<g id="edge4" class="edge">
<title>:feature:welcome:data&#45;&gt;:core:datastore</title>
<path fill="none" stroke="black" d="M354.48,-144.19C368.51,-134.18 386.26,-120.93 401.11,-108 413.98,-96.81 444.15,-65.89 465.56,-43.63"/>
<polygon fill="black" stroke="black" points="467.84,-46.32 472.24,-36.68 462.79,-41.47 467.84,-46.32"/>
</g>
<!-- :core:datasource:profile -->
<g id="node6" class="node">
<title>:core:datasource:profile</title>
<ellipse fill="none" stroke="black" cx="546.11" cy="-90" rx="98.44" ry="18"/>
<text text-anchor="middle" x="546.11" y="-84.95" font-family="Times,serif" font-size="14.00">:core:datasource:profile</text>
</g>
<!-- :feature:welcome:data&#45;&gt;:core:datasource:profile -->
<g id="edge5" class="edge">
<title>:feature:welcome:data&#45;&gt;:core:datasource:profile</title>
<path fill="none" stroke="black" d="M376.45,-145.98C409.26,-135.35 453.47,-121.02 488.54,-109.66"/>
<polygon fill="black" stroke="black" points="489.24,-113.11 497.67,-106.7 487.08,-106.45 489.24,-113.11"/>
</g>
<!-- :feature:welcome:domain&#45;&gt;:core:common -->
<g id="edge6" class="edge">
<title>:feature:welcome:domain&#45;&gt;:core:common</title>
<path fill="none" stroke="red" stroke-width="2" d="M111.31,-71.7C113.54,-64.24 116.22,-55.32 118.73,-46.97"/>
<polygon fill="red" stroke="red" stroke-width="2" points="121.59,-49.59 121.11,-39 114.89,-47.58 121.59,-49.59"/>
</g>
<!-- :core:network&#45;&gt;:core:common -->
<g id="edge7" class="edge">
<title>:core:network&#45;&gt;:core:common</title>
<path fill="none" stroke="black" d="M291.45,-75.67C259.03,-64.49 212.51,-48.45 177.23,-36.28"/>
<polygon fill="black" stroke="black" points="178.7,-33.08 168.1,-33.13 176.41,-39.7 178.7,-33.08"/>
</g>
<!-- :core:network&#45;&gt;:core:datastore -->
<g id="edge8" class="edge">
<title>:core:network&#45;&gt;:core:datastore</title>
<path fill="none" stroke="black" d="M363.06,-74.5C386.8,-64.04 419.1,-49.82 445.06,-38.39"/>
<polygon fill="black" stroke="black" points="446.26,-41.69 454.01,-34.46 443.44,-35.28 446.26,-41.69"/>
</g>
<!-- :core:datasource:logout -->
<g id="node7" class="node">
<title>:core:datasource:logout</title>
<ellipse fill="none" stroke="black" cx="308.11" cy="-18" rx="97.41" ry="18"/>
<text text-anchor="middle" x="308.11" y="-12.95" font-family="Times,serif" font-size="14.00">:core:datasource:logout</text>
</g>
<!-- :core:network&#45;&gt;:core:datasource:logout -->
<g id="edge9" class="edge">
<title>:core:network&#45;&gt;:core:datasource:logout</title>
<path fill="none" stroke="black" d="M324.68,-71.7C322.33,-64.24 319.53,-55.32 316.9,-46.97"/>
<polygon fill="black" stroke="black" points="320.28,-46.04 313.94,-37.55 313.6,-48.14 320.28,-46.04"/>
</g>
</g>
</svg>
