<?xml version="1.0" encoding="UTF-8" standalone="no"?>
<!DOCTYPE svg PUBLIC "-//W3C//DTD SVG 1.1//EN"
 "http://www.w3.org/Graphics/SVG/1.1/DTD/svg11.dtd">
<!-- Generated by graphviz version 12.2.1 (20241206.2353)
 -->
<!-- Title: G Pages: 1 -->
<svg width="374pt" height="188pt"
 viewBox="0.00 0.00 373.91 188.00" xmlns="http://www.w3.org/2000/svg" xmlns:xlink="http://www.w3.org/1999/xlink">
<g id="graph0" class="graph" transform="scale(1 1) rotate(0) translate(4 184)">
<title>G</title>
<polygon fill="white" stroke="none" points="-4,4 -4,-184 369.91,-184 369.91,4 -4,4"/>
<!-- :feature:leaderboard:ui -->
<g id="node1" class="node">
<title>:feature:leaderboard:ui</title>
<ellipse fill="none" stroke="black" cx="106.07" cy="-162" rx="94.86" ry="18"/>
<text text-anchor="middle" x="106.07" y="-156.95" font-family="Times,serif" font-size="14.00">:feature:leaderboard:ui</text>
</g>
<!-- :core:ui -->
<g id="node2" class="node">
<title>:core:ui</title>
<ellipse fill="none" stroke="black" cx="39.07" cy="-90" rx="39.07" ry="18"/>
<text text-anchor="middle" x="39.07" y="-84.95" font-family="Times,serif" font-size="14.00">:core:ui</text>
</g>
<!-- :feature:leaderboard:ui&#45;&gt;:core:ui -->
<g id="edge1" class="edge">
<title>:feature:leaderboard:ui&#45;&gt;:core:ui</title>
<path fill="none" stroke="black" d="M89.85,-144.05C81.46,-135.29 71.08,-124.45 61.9,-114.86"/>
<polygon fill="black" stroke="black" points="64.71,-112.73 55.27,-107.92 59.65,-117.57 64.71,-112.73"/>
</g>
<!-- :core:common -->
<g id="node3" class="node">
<title>:core:common</title>
<ellipse fill="none" stroke="black" cx="178.07" cy="-18" rx="65.17" ry="18"/>
<text text-anchor="middle" x="178.07" y="-12.95" font-family="Times,serif" font-size="14.00">:core:common</text>
</g>
<!-- :feature:leaderboard:ui&#45;&gt;:core:common -->
<g id="edge2" class="edge">
<title>:feature:leaderboard:ui&#45;&gt;:core:common</title>
<path fill="none" stroke="black" d="M106.87,-143.6C108.38,-124.89 112.69,-94.77 125.07,-72 130.85,-61.37 139.42,-51.47 148,-43.17"/>
<polygon fill="black" stroke="black" points="150.33,-45.78 155.35,-36.45 145.61,-40.61 150.33,-45.78"/>
</g>
<!-- :feature:leaderboard:domain -->
<g id="node4" class="node">
<title>:feature:leaderboard:domain</title>
<ellipse fill="none" stroke="black" cx="250.07" cy="-90" rx="115.84" ry="18"/>
<text text-anchor="middle" x="250.07" y="-84.95" font-family="Times,serif" font-size="14.00">:feature:leaderboard:domain</text>
</g>
<!-- :feature:leaderboard:ui&#45;&gt;:feature:leaderboard:domain -->
<g id="edge3" class="edge">
<title>:feature:leaderboard:ui&#45;&gt;:feature:leaderboard:domain</title>
<path fill="none" stroke="red" stroke-width="2" d="M139.47,-144.76C159.17,-135.19 184.36,-122.94 205.71,-112.56"/>
<polygon fill="red" stroke="red" stroke-width="2" points="205.66,-116.48 213.13,-108.96 202.6,-110.18 205.66,-116.48"/>
</g>
<!-- :feature:leaderboard:domain&#45;&gt;:core:common -->
<g id="edge4" class="edge">
<title>:feature:leaderboard:domain&#45;&gt;:core:common</title>
<path fill="none" stroke="red" stroke-width="2" d="M232.64,-72.05C223.88,-63.54 213.11,-53.07 203.45,-43.68"/>
<polygon fill="red" stroke="red" stroke-width="2" points="207.12,-42.36 197.51,-37.9 202.24,-47.38 207.12,-42.36"/>
</g>
</g>
</svg>
