<?xml version="1.0" encoding="UTF-8" standalone="no"?>
<!DOCTYPE svg PUBLIC "-//W3C//DTD SVG 1.1//EN"
 "http://www.w3.org/Graphics/SVG/1.1/DTD/svg11.dtd">
<!-- Generated by graphviz version 12.2.1 (20241206.2353)
 -->
<!-- Title: G Pages: 1 -->
<svg width="604pt" height="188pt"
 viewBox="0.00 0.00 604.39 188.00" xmlns="http://www.w3.org/2000/svg" xmlns:xlink="http://www.w3.org/1999/xlink">
<g id="graph0" class="graph" transform="scale(1 1) rotate(0) translate(4 184)">
<title>G</title>
<polygon fill="white" stroke="none" points="-4,4 -4,-184 600.39,-184 600.39,4 -4,4"/>
<!-- :feature:register:data -->
<g id="node1" class="node">
<title>:feature:register:data</title>
<ellipse fill="none" stroke="black" cx="227.97" cy="-162" rx="87.18" ry="18"/>
<text text-anchor="middle" x="227.97" y="-156.95" font-family="Times,serif" font-size="14.00">:feature:register:data</text>
</g>
<!-- :feature:register:domain -->
<g id="node2" class="node">
<title>:feature:register:domain</title>
<ellipse fill="none" stroke="black" cx="99.97" cy="-90" rx="99.97" ry="18"/>
<text text-anchor="middle" x="99.97" y="-84.95" font-family="Times,serif" font-size="14.00">:feature:register:domain</text>
</g>
<!-- :feature:register:data&#45;&gt;:feature:register:domain -->
<g id="edge1" class="edge">
<title>:feature:register:data&#45;&gt;:feature:register:domain</title>
<path fill="none" stroke="red" stroke-width="2" d="M198.29,-144.76C180.96,-135.29 158.88,-123.21 140.03,-112.91"/>
<polygon fill="red" stroke="red" stroke-width="2" points="143.05,-110.57 132.6,-108.84 139.69,-116.71 143.05,-110.57"/>
</g>
<!-- :core:network -->
<g id="node3" class="node">
<title>:core:network</title>
<ellipse fill="none" stroke="black" cx="317.97" cy="-90" rx="62.1" ry="18"/>
<text text-anchor="middle" x="317.97" y="-84.95" font-family="Times,serif" font-size="14.00">:core:network</text>
</g>
<!-- :feature:register:data&#45;&gt;:core:network -->
<g id="edge2" class="edge">
<title>:feature:register:data&#45;&gt;:core:network</title>
<path fill="none" stroke="black" d="M249.3,-144.41C260.93,-135.37 275.51,-124.03 288.23,-114.13"/>
<polygon fill="black" stroke="black" points="290.17,-117.06 295.91,-108.16 285.87,-111.53 290.17,-117.06"/>
</g>
<!-- :core:common -->
<g id="node4" class="node">
<title>:core:common</title>
<ellipse fill="none" stroke="black" cx="169.97" cy="-18" rx="65.17" ry="18"/>
<text text-anchor="middle" x="169.97" y="-12.95" font-family="Times,serif" font-size="14.00">:core:common</text>
</g>
<!-- :feature:register:data&#45;&gt;:core:common -->
<g id="edge3" class="edge">
<title>:feature:register:data&#45;&gt;:core:common</title>
<path fill="none" stroke="black" d="M226.45,-143.6C224.35,-125.15 219.53,-95.49 208.97,-72 204.73,-62.56 198.61,-53.17 192.47,-44.97"/>
<polygon fill="black" stroke="black" points="195.24,-42.84 186.3,-37.15 189.75,-47.17 195.24,-42.84"/>
</g>
<!-- :feature:register:domain&#45;&gt;:core:common -->
<g id="edge4" class="edge">
<title>:feature:register:domain&#45;&gt;:core:common</title>
<path fill="none" stroke="red" stroke-width="2" d="M116.92,-72.05C125.43,-63.54 135.9,-53.07 145.29,-43.68"/>
<polygon fill="red" stroke="red" stroke-width="2" points="146.45,-47.48 151.04,-37.93 141.5,-42.53 146.45,-47.48"/>
</g>
<!-- :core:network&#45;&gt;:core:common -->
<g id="edge5" class="edge">
<title>:core:network&#45;&gt;:core:common</title>
<path fill="none" stroke="black" d="M286.59,-74.15C264.86,-63.88 235.69,-50.08 211.96,-38.86"/>
<polygon fill="black" stroke="black" points="213.73,-35.82 203.19,-34.71 210.74,-42.15 213.73,-35.82"/>
</g>
<!-- :core:datastore -->
<g id="node5" class="node">
<title>:core:datastore</title>
<ellipse fill="none" stroke="black" cx="317.97" cy="-18" rx="65.17" ry="18"/>
<text text-anchor="middle" x="317.97" y="-12.95" font-family="Times,serif" font-size="14.00">:core:datastore</text>
</g>
<!-- :core:network&#45;&gt;:core:datastore -->
<g id="edge6" class="edge">
<title>:core:network&#45;&gt;:core:datastore</title>
<path fill="none" stroke="black" d="M317.97,-71.7C317.97,-64.41 317.97,-55.73 317.97,-47.54"/>
<polygon fill="black" stroke="black" points="321.47,-47.62 317.97,-37.62 314.47,-47.62 321.47,-47.62"/>
</g>
<!-- :core:datasource:logout -->
<g id="node6" class="node">
<title>:core:datasource:logout</title>
<ellipse fill="none" stroke="black" cx="498.97" cy="-18" rx="97.41" ry="18"/>
<text text-anchor="middle" x="498.97" y="-12.95" font-family="Times,serif" font-size="14.00">:core:datasource:logout</text>
</g>
<!-- :core:network&#45;&gt;:core:datasource:logout -->
<g id="edge7" class="edge">
<title>:core:network&#45;&gt;:core:datasource:logout</title>
<path fill="none" stroke="black" d="M354.17,-75C380.9,-64.66 417.68,-50.44 447.47,-38.92"/>
<polygon fill="black" stroke="black" points="448.63,-42.22 456.69,-35.35 446.1,-35.69 448.63,-42.22"/>
</g>
</g>
</svg>
