<?xml version="1.0" encoding="UTF-8" standalone="no"?>
<!DOCTYPE svg PUBLIC "-//W3C//DTD SVG 1.1//EN"
 "http://www.w3.org/Graphics/SVG/1.1/DTD/svg11.dtd">
<!-- Generated by graphviz version 12.2.1 (20241206.2353)
 -->
<!-- Title: G Pages: 1 -->
<svg width="500pt" height="116pt"
 viewBox="0.00 0.00 499.58 116.00" xmlns="http://www.w3.org/2000/svg" xmlns:xlink="http://www.w3.org/1999/xlink">
<g id="graph0" class="graph" transform="scale(1 1) rotate(0) translate(4 112)">
<title>G</title>
<polygon fill="white" stroke="none" points="-4,4 -4,-112 495.58,-112 495.58,4 -4,4"/>
<!-- :core:network -->
<g id="node1" class="node">
<title>:core:network</title>
<ellipse fill="none" stroke="black" cx="213.17" cy="-90" rx="62.1" ry="18"/>
<text text-anchor="middle" x="213.17" y="-84.95" font-family="Times,serif" font-size="14.00">:core:network</text>
</g>
<!-- :core:common -->
<g id="node2" class="node">
<title>:core:common</title>
<ellipse fill="none" stroke="black" cx="65.17" cy="-18" rx="65.17" ry="18"/>
<text text-anchor="middle" x="65.17" y="-12.95" font-family="Times,serif" font-size="14.00">:core:common</text>
</g>
<!-- :core:network&#45;&gt;:core:common -->
<g id="edge1" class="edge">
<title>:core:network&#45;&gt;:core:common</title>
<path fill="none" stroke="red" stroke-width="2" d="M181.78,-74.15C160.05,-63.88 130.88,-50.08 107.16,-38.86"/>
<polygon fill="red" stroke="red" stroke-width="2" points="110.3,-36.47 99.76,-35.36 107.3,-42.8 110.3,-36.47"/>
</g>
<!-- :core:datastore -->
<g id="node3" class="node">
<title>:core:datastore</title>
<ellipse fill="none" stroke="black" cx="213.17" cy="-18" rx="65.17" ry="18"/>
<text text-anchor="middle" x="213.17" y="-12.95" font-family="Times,serif" font-size="14.00">:core:datastore</text>
</g>
<!-- :core:network&#45;&gt;:core:datastore -->
<g id="edge2" class="edge">
<title>:core:network&#45;&gt;:core:datastore</title>
<path fill="none" stroke="black" d="M213.17,-71.7C213.17,-64.41 213.17,-55.73 213.17,-47.54"/>
<polygon fill="black" stroke="black" points="216.67,-47.62 213.17,-37.62 209.67,-47.62 216.67,-47.62"/>
</g>
<!-- :core:datasource:logout -->
<g id="node4" class="node">
<title>:core:datasource:logout</title>
<ellipse fill="none" stroke="black" cx="394.17" cy="-18" rx="97.41" ry="18"/>
<text text-anchor="middle" x="394.17" y="-12.95" font-family="Times,serif" font-size="14.00">:core:datasource:logout</text>
</g>
<!-- :core:network&#45;&gt;:core:datasource:logout -->
<g id="edge3" class="edge">
<title>:core:network&#45;&gt;:core:datasource:logout</title>
<path fill="none" stroke="black" d="M249.36,-75C276.1,-64.66 312.87,-50.44 342.67,-38.92"/>
<polygon fill="black" stroke="black" points="343.83,-42.22 351.89,-35.35 341.3,-35.69 343.83,-42.22"/>
</g>
</g>
</svg>
