<?xml version="1.0" encoding="UTF-8" standalone="no"?>
<!DOCTYPE svg PUBLIC "-//W3C//DTD SVG 1.1//EN"
 "http://www.w3.org/Graphics/SVG/1.1/DTD/svg11.dtd">
<!-- Generated by graphviz version 12.2.1 (20241206.2353)
 -->
<!-- Title: G Pages: 1 -->
<svg width="596pt" height="188pt"
 viewBox="0.00 0.00 596.29 188.00" xmlns="http://www.w3.org/2000/svg" xmlns:xlink="http://www.w3.org/1999/xlink">
<g id="graph0" class="graph" transform="scale(1 1) rotate(0) translate(4 184)">
<title>G</title>
<polygon fill="white" stroke="none" points="-4,4 -4,-184 592.29,-184 592.29,4 -4,4"/>
<!-- :feature:search:data -->
<g id="node1" class="node">
<title>:feature:search:data</title>
<ellipse fill="none" stroke="black" cx="219.88" cy="-162" rx="83.08" ry="18"/>
<text text-anchor="middle" x="219.88" y="-156.95" font-family="Times,serif" font-size="14.00">:feature:search:data</text>
</g>
<!-- :feature:search:domain -->
<g id="node2" class="node">
<title>:feature:search:domain</title>
<ellipse fill="none" stroke="black" cx="95.88" cy="-90" rx="95.88" ry="18"/>
<text text-anchor="middle" x="95.88" y="-84.95" font-family="Times,serif" font-size="14.00">:feature:search:domain</text>
</g>
<!-- :feature:search:data&#45;&gt;:feature:search:domain -->
<g id="edge1" class="edge">
<title>:feature:search:data&#45;&gt;:feature:search:domain</title>
<path fill="none" stroke="red" stroke-width="2" d="M191.12,-144.76C174.41,-135.33 153.14,-123.33 134.94,-113.05"/>
<polygon fill="red" stroke="red" stroke-width="2" points="137.98,-110.75 127.55,-108.88 134.54,-116.84 137.98,-110.75"/>
</g>
<!-- :core:network -->
<g id="node3" class="node">
<title>:core:network</title>
<ellipse fill="none" stroke="black" cx="309.88" cy="-90" rx="62.1" ry="18"/>
<text text-anchor="middle" x="309.88" y="-84.95" font-family="Times,serif" font-size="14.00">:core:network</text>
</g>
<!-- :feature:search:data&#45;&gt;:core:network -->
<g id="edge2" class="edge">
<title>:feature:search:data&#45;&gt;:core:network</title>
<path fill="none" stroke="black" d="M241.21,-144.41C252.84,-135.37 267.41,-124.03 280.14,-114.13"/>
<polygon fill="black" stroke="black" points="282.07,-117.06 287.82,-108.16 277.78,-111.53 282.07,-117.06"/>
</g>
<!-- :core:common -->
<g id="node4" class="node">
<title>:core:common</title>
<ellipse fill="none" stroke="black" cx="161.88" cy="-18" rx="65.17" ry="18"/>
<text text-anchor="middle" x="161.88" y="-12.95" font-family="Times,serif" font-size="14.00">:core:common</text>
</g>
<!-- :feature:search:data&#45;&gt;:core:common -->
<g id="edge3" class="edge">
<title>:feature:search:data&#45;&gt;:core:common</title>
<path fill="none" stroke="black" d="M218.36,-143.6C216.25,-125.15 211.44,-95.49 200.88,-72 196.64,-62.56 190.52,-53.17 184.38,-44.97"/>
<polygon fill="black" stroke="black" points="187.15,-42.84 178.21,-37.15 181.65,-47.17 187.15,-42.84"/>
</g>
<!-- :feature:search:domain&#45;&gt;:core:common -->
<g id="edge4" class="edge">
<title>:feature:search:domain&#45;&gt;:core:common</title>
<path fill="none" stroke="red" stroke-width="2" d="M111.86,-72.05C119.8,-63.63 129.56,-53.28 138.34,-43.97"/>
<polygon fill="red" stroke="red" stroke-width="2" points="139.66,-47.67 143.97,-37.99 134.57,-42.87 139.66,-47.67"/>
</g>
<!-- :core:network&#45;&gt;:core:common -->
<g id="edge5" class="edge">
<title>:core:network&#45;&gt;:core:common</title>
<path fill="none" stroke="black" d="M278.49,-74.15C256.76,-63.88 227.59,-50.08 203.87,-38.86"/>
<polygon fill="black" stroke="black" points="205.64,-35.82 195.1,-34.71 202.64,-42.15 205.64,-35.82"/>
</g>
<!-- :core:datastore -->
<g id="node5" class="node">
<title>:core:datastore</title>
<ellipse fill="none" stroke="black" cx="309.88" cy="-18" rx="65.17" ry="18"/>
<text text-anchor="middle" x="309.88" y="-12.95" font-family="Times,serif" font-size="14.00">:core:datastore</text>
</g>
<!-- :core:network&#45;&gt;:core:datastore -->
<g id="edge6" class="edge">
<title>:core:network&#45;&gt;:core:datastore</title>
<path fill="none" stroke="black" d="M309.88,-71.7C309.88,-64.41 309.88,-55.73 309.88,-47.54"/>
<polygon fill="black" stroke="black" points="313.38,-47.62 309.88,-37.62 306.38,-47.62 313.38,-47.62"/>
</g>
<!-- :core:datasource:logout -->
<g id="node6" class="node">
<title>:core:datasource:logout</title>
<ellipse fill="none" stroke="black" cx="490.88" cy="-18" rx="97.41" ry="18"/>
<text text-anchor="middle" x="490.88" y="-12.95" font-family="Times,serif" font-size="14.00">:core:datasource:logout</text>
</g>
<!-- :core:network&#45;&gt;:core:datasource:logout -->
<g id="edge7" class="edge">
<title>:core:network&#45;&gt;:core:datasource:logout</title>
<path fill="none" stroke="black" d="M346.07,-75C372.81,-64.66 409.58,-50.44 439.38,-38.92"/>
<polygon fill="black" stroke="black" points="440.54,-42.22 448.6,-35.35 438.01,-35.69 440.54,-42.22"/>
</g>
</g>
</svg>
