<?xml version="1.0" encoding="UTF-8" standalone="no"?>
<!DOCTYPE svg PUBLIC "-//W3C//DTD SVG 1.1//EN"
 "http://www.w3.org/Graphics/SVG/1.1/DTD/svg11.dtd">
<!-- Generated by graphviz version 12.2.1 (20241206.2353)
 -->
<!-- Title: G Pages: 1 -->
<svg width="992pt" height="260pt"
 viewBox="0.00 0.00 992.10 260.00" xmlns="http://www.w3.org/2000/svg" xmlns:xlink="http://www.w3.org/1999/xlink">
<g id="graph0" class="graph" transform="scale(1 1) rotate(0) translate(4 256)">
<title>G</title>
<polygon fill="white" stroke="none" points="-4,4 -4,-256 988.1,-256 988.1,4 -4,4"/>
<!-- :navigation -->
<g id="node1" class="node">
<title>:navigation</title>
<ellipse fill="none" stroke="black" cx="428.13" cy="-234" rx="52.38" ry="18"/>
<text text-anchor="middle" x="428.13" y="-228.95" font-family="Times,serif" font-size="14.00">:navigation</text>
</g>
<!-- :feature:splash:ui -->
<g id="node2" class="node">
<title>:feature:splash:ui</title>
<ellipse fill="none" stroke="black" cx="263.13" cy="-162" rx="74.38" ry="18"/>
<text text-anchor="middle" x="263.13" y="-156.95" font-family="Times,serif" font-size="14.00">:feature:splash:ui</text>
</g>
<!-- :navigation&#45;&gt;:feature:splash:ui -->
<g id="edge1" class="edge">
<title>:navigation&#45;&gt;:feature:splash:ui</title>
<path fill="none" stroke="red" stroke-width="2" d="M395.93,-219.34C371.34,-208.9 337.11,-194.38 309.56,-182.7"/>
<polygon fill="red" stroke="red" stroke-width="2" points="312.34,-180.07 301.77,-179.39 309.6,-186.52 312.34,-180.07"/>
</g>
<!-- :feature:welcome:ui -->
<g id="node3" class="node">
<title>:feature:welcome:ui</title>
<ellipse fill="none" stroke="black" cx="85.13" cy="-162" rx="85.13" ry="18"/>
<text text-anchor="middle" x="85.13" y="-156.95" font-family="Times,serif" font-size="14.00">:feature:welcome:ui</text>
</g>
<!-- :navigation&#45;&gt;:feature:welcome:ui -->
<g id="edge2" class="edge">
<title>:navigation&#45;&gt;:feature:welcome:ui</title>
<path fill="none" stroke="black" d="M383.99,-223.99C326.32,-212.22 224.62,-191.47 156.07,-177.48"/>
<polygon fill="black" stroke="black" points="156.92,-174.08 146.42,-175.51 155.52,-180.94 156.92,-174.08"/>
</g>
<!-- :feature:login:ui -->
<g id="node4" class="node">
<title>:feature:login:ui</title>
<ellipse fill="none" stroke="black" cx="589.13" cy="-162" rx="70.29" ry="18"/>
<text text-anchor="middle" x="589.13" y="-156.95" font-family="Times,serif" font-size="14.00">:feature:login:ui</text>
</g>
<!-- :navigation&#45;&gt;:feature:login:ui -->
<g id="edge3" class="edge">
<title>:navigation&#45;&gt;:feature:login:ui</title>
<path fill="none" stroke="black" d="M459.56,-219.34C483.63,-208.87 517.17,-194.29 544.1,-182.58"/>
<polygon fill="black" stroke="black" points="545.27,-185.89 553.05,-178.69 542.48,-179.47 545.27,-185.89"/>
</g>
<!-- :feature:register:ui -->
<g id="node5" class="node">
<title>:feature:register:ui</title>
<ellipse fill="none" stroke="black" cx="756.13" cy="-162" rx="78.99" ry="18"/>
<text text-anchor="middle" x="756.13" y="-156.95" font-family="Times,serif" font-size="14.00">:feature:register:ui</text>
</g>
<!-- :navigation&#45;&gt;:feature:register:ui -->
<g id="edge4" class="edge">
<title>:navigation&#45;&gt;:feature:register:ui</title>
<path fill="none" stroke="black" d="M471.69,-223.7C527.2,-211.86 623.75,-191.25 688.78,-177.37"/>
<polygon fill="black" stroke="black" points="689.21,-180.86 698.26,-175.35 687.75,-174.02 689.21,-180.86"/>
</g>
<!-- :feature:home:ui -->
<g id="node6" class="node">
<title>:feature:home:ui</title>
<ellipse fill="none" stroke="black" cx="428.13" cy="-162" rx="72.34" ry="18"/>
<text text-anchor="middle" x="428.13" y="-156.95" font-family="Times,serif" font-size="14.00">:feature:home:ui</text>
</g>
<!-- :navigation&#45;&gt;:feature:home:ui -->
<g id="edge5" class="edge">
<title>:navigation&#45;&gt;:feature:home:ui</title>
<path fill="none" stroke="black" d="M428.13,-215.7C428.13,-208.41 428.13,-199.73 428.13,-191.54"/>
<polygon fill="black" stroke="black" points="431.63,-191.62 428.13,-181.62 424.63,-191.62 431.63,-191.62"/>
</g>
<!-- :core:ui -->
<g id="node7" class="node">
<title>:core:ui</title>
<ellipse fill="none" stroke="black" cx="413.13" cy="-90" rx="39.07" ry="18"/>
<text text-anchor="middle" x="413.13" y="-84.95" font-family="Times,serif" font-size="14.00">:core:ui</text>
</g>
<!-- :feature:splash:ui&#45;&gt;:core:ui -->
<g id="edge6" class="edge">
<title>:feature:splash:ui&#45;&gt;:core:ui</title>
<path fill="none" stroke="black" d="M296.42,-145.46C320.03,-134.45 351.72,-119.66 376.12,-108.27"/>
<polygon fill="black" stroke="black" points="377.47,-111.5 385.06,-104.1 374.51,-105.16 377.47,-111.5"/>
</g>
<!-- :core:common -->
<g id="node8" class="node">
<title>:core:common</title>
<ellipse fill="none" stroke="black" cx="499.13" cy="-18" rx="65.17" ry="18"/>
<text text-anchor="middle" x="499.13" y="-12.95" font-family="Times,serif" font-size="14.00">:core:common</text>
</g>
<!-- :feature:splash:ui&#45;&gt;:core:common -->
<g id="edge7" class="edge">
<title>:feature:splash:ui&#45;&gt;:core:common</title>
<path fill="none" stroke="black" d="M212.58,-148.48C191.63,-140.53 169.41,-127.86 157.13,-108 148.72,-94.39 146.72,-84.15 157.13,-72 190.59,-32.95 332.22,-22.43 422.4,-19.74"/>
<polygon fill="black" stroke="black" points="422.26,-23.24 432.16,-19.48 422.07,-16.25 422.26,-23.24"/>
</g>
<!-- :feature:splash:domain -->
<g id="node9" class="node">
<title>:feature:splash:domain</title>
<ellipse fill="none" stroke="black" cx="261.13" cy="-90" rx="95.37" ry="18"/>
<text text-anchor="middle" x="261.13" y="-84.95" font-family="Times,serif" font-size="14.00">:feature:splash:domain</text>
</g>
<!-- :feature:splash:ui&#45;&gt;:feature:splash:domain -->
<g id="edge8" class="edge">
<title>:feature:splash:ui&#45;&gt;:feature:splash:domain</title>
<path fill="none" stroke="red" stroke-width="2" d="M262.64,-143.7C262.43,-136.41 262.18,-127.73 261.95,-119.54"/>
<polygon fill="red" stroke="red" stroke-width="2" points="265.49,-121.03 261.71,-111.13 258.49,-121.23 265.49,-121.03"/>
</g>
<!-- :feature:welcome:ui&#45;&gt;:core:ui -->
<g id="edge10" class="edge">
<title>:feature:welcome:ui&#45;&gt;:core:ui</title>
<path fill="none" stroke="black" d="M148.16,-149.6C224.21,-135.76 344.5,-113.57 365.13,-108 367.69,-107.31 370.3,-106.55 372.93,-105.74"/>
<polygon fill="black" stroke="black" points="373.79,-109.14 382.21,-102.71 371.62,-102.49 373.79,-109.14"/>
</g>
<!-- :feature:welcome:ui&#45;&gt;:core:common -->
<g id="edge11" class="edge">
<title>:feature:welcome:ui&#45;&gt;:core:common</title>
<path fill="none" stroke="black" d="M91.86,-143.7C100.89,-123 118.98,-89 146.13,-72 191.23,-43.76 334.66,-29.56 424.21,-23.27"/>
<polygon fill="black" stroke="black" points="424.41,-26.76 434.15,-22.59 423.94,-19.78 424.41,-26.76"/>
</g>
<!-- :feature:login:ui&#45;&gt;:core:ui -->
<g id="edge12" class="edge">
<title>:feature:login:ui&#45;&gt;:core:ui</title>
<path fill="none" stroke="black" d="M552.24,-146.33C523.06,-134.72 482.41,-118.56 452.59,-106.69"/>
<polygon fill="black" stroke="black" points="454.13,-103.54 443.54,-103.09 451.54,-110.04 454.13,-103.54"/>
</g>
<!-- :feature:login:ui&#45;&gt;:core:common -->
<g id="edge13" class="edge">
<title>:feature:login:ui&#45;&gt;:core:common</title>
<path fill="none" stroke="black" d="M569.51,-144.32C558.9,-134.55 546.16,-121.5 537.13,-108 524.5,-89.13 514.61,-65.37 508.1,-47.15"/>
<polygon fill="black" stroke="black" points="511.44,-46.1 504.88,-37.78 504.82,-48.38 511.44,-46.1"/>
</g>
<!-- :feature:login:domain -->
<g id="node10" class="node">
<title>:feature:login:domain</title>
<ellipse fill="none" stroke="black" cx="637.13" cy="-90" rx="91.27" ry="18"/>
<text text-anchor="middle" x="637.13" y="-84.95" font-family="Times,serif" font-size="14.00">:feature:login:domain</text>
</g>
<!-- :feature:login:ui&#45;&gt;:feature:login:domain -->
<g id="edge14" class="edge">
<title>:feature:login:ui&#45;&gt;:feature:login:domain</title>
<path fill="none" stroke="black" d="M600.75,-144.05C606.21,-136.09 612.85,-126.41 618.95,-117.51"/>
<polygon fill="black" stroke="black" points="621.66,-119.75 624.43,-109.52 615.89,-115.79 621.66,-119.75"/>
</g>
<!-- :feature:register:ui&#45;&gt;:core:ui -->
<g id="edge16" class="edge">
<title>:feature:register:ui&#45;&gt;:core:ui</title>
<path fill="none" stroke="black" d="M698.72,-149.28C631.39,-135.54 521.14,-113.04 459.16,-100.39"/>
<polygon fill="black" stroke="black" points="460.15,-97.02 449.65,-98.45 458.75,-103.88 460.15,-97.02"/>
</g>
<!-- :feature:register:ui&#45;&gt;:core:common -->
<g id="edge17" class="edge">
<title>:feature:register:ui&#45;&gt;:core:common</title>
<path fill="none" stroke="black" d="M757.55,-143.72C758.19,-123.68 755.93,-90.96 737.13,-72 714.13,-48.79 632.3,-34.3 570.98,-26.45"/>
<polygon fill="black" stroke="black" points="571.64,-23.01 561.29,-25.25 570.78,-29.95 571.64,-23.01"/>
</g>
<!-- :feature:register:domain -->
<g id="node11" class="node">
<title>:feature:register:domain</title>
<ellipse fill="none" stroke="black" cx="884.13" cy="-90" rx="99.97" ry="18"/>
<text text-anchor="middle" x="884.13" y="-84.95" font-family="Times,serif" font-size="14.00">:feature:register:domain</text>
</g>
<!-- :feature:register:ui&#45;&gt;:feature:register:domain -->
<g id="edge18" class="edge">
<title>:feature:register:ui&#45;&gt;:feature:register:domain</title>
<path fill="none" stroke="black" d="M785.5,-144.94C802.89,-135.43 825.17,-123.25 844.15,-112.87"/>
<polygon fill="black" stroke="black" points="845.59,-116.07 852.69,-108.2 842.23,-109.92 845.59,-116.07"/>
</g>
<!-- :feature:home:ui&#45;&gt;:core:ui -->
<g id="edge20" class="edge">
<title>:feature:home:ui&#45;&gt;:core:ui</title>
<path fill="none" stroke="black" d="M424.42,-143.7C422.84,-136.32 420.96,-127.52 419.18,-119.25"/>
<polygon fill="black" stroke="black" points="422.63,-118.63 417.11,-109.58 415.79,-120.1 422.63,-118.63"/>
</g>
<!-- :feature:home:ui&#45;&gt;:core:common -->
<g id="edge21" class="edge">
<title>:feature:home:ui&#45;&gt;:core:common</title>
<path fill="none" stroke="black" d="M439.51,-144.2C446.21,-133.97 454.62,-120.5 461.13,-108 471.56,-87.98 481.51,-64.46 488.61,-46.63"/>
<polygon fill="black" stroke="black" points="491.8,-48.08 492.19,-37.5 485.28,-45.53 491.8,-48.08"/>
</g>
<!-- :feature:splash:domain&#45;&gt;:core:common -->
<g id="edge9" class="edge">
<title>:feature:splash:domain&#45;&gt;:core:common</title>
<path fill="none" stroke="red" stroke-width="2" d="M311.31,-74.24C350.46,-62.73 404.74,-46.76 444.88,-34.96"/>
<polygon fill="red" stroke="red" stroke-width="2" points="444.29,-38.78 452.9,-32.6 442.32,-32.06 444.29,-38.78"/>
</g>
<!-- :feature:login:domain&#45;&gt;:core:common -->
<g id="edge15" class="edge">
<title>:feature:login:domain&#45;&gt;:core:common</title>
<path fill="none" stroke="black" d="M605.12,-72.76C585.51,-62.81 560.23,-49.99 539.27,-39.36"/>
<polygon fill="black" stroke="black" points="540.93,-36.28 530.42,-34.87 537.76,-42.52 540.93,-36.28"/>
</g>
<!-- :feature:register:domain&#45;&gt;:core:common -->
<g id="edge19" class="edge">
<title>:feature:register:domain&#45;&gt;:core:common</title>
<path fill="none" stroke="black" d="M815.74,-76.57C744.51,-63.61 633.76,-43.48 563.9,-30.78"/>
<polygon fill="black" stroke="black" points="564.58,-27.34 554.12,-29 563.33,-34.23 564.58,-27.34"/>
</g>
</g>
</svg>
