<?xml version="1.0" encoding="UTF-8" standalone="no"?>
<!DOCTYPE svg PUBLIC "-//W3C//DTD SVG 1.1//EN"
 "http://www.w3.org/Graphics/SVG/1.1/DTD/svg11.dtd">
<!-- Generated by graphviz version 12.2.1 (20241206.2353)
 -->
<!-- Title: G Pages: 1 -->
<svg width="361pt" height="188pt"
 viewBox="0.00 0.00 360.94 188.00" xmlns="http://www.w3.org/2000/svg" xmlns:xlink="http://www.w3.org/1999/xlink">
<g id="graph0" class="graph" transform="scale(1 1) rotate(0) translate(4 184)">
<title>G</title>
<polygon fill="white" stroke="none" points="-4,4 -4,-184 356.94,-184 356.94,4 -4,4"/>
<!-- :feature:splash:data -->
<g id="node1" class="node">
<title>:feature:splash:data</title>
<ellipse fill="none" stroke="black" cx="270.37" cy="-162" rx="82.57" ry="18"/>
<text text-anchor="middle" x="270.37" y="-156.95" font-family="Times,serif" font-size="14.00">:feature:splash:data</text>
</g>
<!-- :feature:splash:domain -->
<g id="node2" class="node">
<title>:feature:splash:domain</title>
<ellipse fill="none" stroke="black" cx="95.37" cy="-90" rx="95.37" ry="18"/>
<text text-anchor="middle" x="95.37" y="-84.95" font-family="Times,serif" font-size="14.00">:feature:splash:domain</text>
</g>
<!-- :feature:splash:data&#45;&gt;:feature:splash:domain -->
<g id="edge1" class="edge">
<title>:feature:splash:data&#45;&gt;:feature:splash:domain</title>
<path fill="none" stroke="red" stroke-width="2" d="M231.96,-145.64C206.56,-135.48 172.99,-122.05 145.49,-111.05"/>
<polygon fill="red" stroke="red" stroke-width="2" points="148.29,-108.4 137.7,-107.94 145.69,-114.9 148.29,-108.4"/>
</g>
<!-- :core:network -->
<g id="node3" class="node">
<title>:core:network</title>
<ellipse fill="none" stroke="black" cx="270.37" cy="-90" rx="62.1" ry="18"/>
<text text-anchor="middle" x="270.37" y="-84.95" font-family="Times,serif" font-size="14.00">:core:network</text>
</g>
<!-- :feature:splash:data&#45;&gt;:core:network -->
<g id="edge2" class="edge">
<title>:feature:splash:data&#45;&gt;:core:network</title>
<path fill="none" stroke="black" d="M270.37,-143.7C270.37,-136.41 270.37,-127.73 270.37,-119.54"/>
<polygon fill="black" stroke="black" points="273.87,-119.62 270.37,-109.62 266.87,-119.62 273.87,-119.62"/>
</g>
<!-- :core:common -->
<g id="node4" class="node">
<title>:core:common</title>
<ellipse fill="none" stroke="black" cx="227.37" cy="-18" rx="65.17" ry="18"/>
<text text-anchor="middle" x="227.37" y="-12.95" font-family="Times,serif" font-size="14.00">:core:common</text>
</g>
<!-- :feature:splash:data&#45;&gt;:core:common -->
<g id="edge3" class="edge">
<title>:feature:splash:data&#45;&gt;:core:common</title>
<path fill="none" stroke="black" d="M303.67,-145.1C318.04,-136.33 333.37,-123.95 341.37,-108 348.54,-93.7 349.97,-85.49 341.37,-72 329.53,-53.44 309.32,-41.28 289.17,-33.35"/>
<polygon fill="black" stroke="black" points="290.39,-30.07 279.79,-29.99 288.02,-36.66 290.39,-30.07"/>
</g>
<!-- :feature:splash:domain&#45;&gt;:core:common -->
<g id="edge4" class="edge">
<title>:feature:splash:domain&#45;&gt;:core:common</title>
<path fill="none" stroke="red" stroke-width="2" d="M126.32,-72.59C144.87,-62.75 168.64,-50.14 188.46,-39.63"/>
<polygon fill="red" stroke="red" stroke-width="2" points="188.55,-43.55 195.75,-35.77 185.27,-37.36 188.55,-43.55"/>
</g>
</g>
</svg>
