<?xml version="1.0" encoding="UTF-8" standalone="no"?>
<!DOCTYPE svg PUBLIC "-//W3C//DTD SVG 1.1//EN"
 "http://www.w3.org/Graphics/SVG/1.1/DTD/svg11.dtd">
<!-- Generated by graphviz version 12.2.1 (20241206.2353)
 -->
<!-- Title: G Pages: 1 -->
<svg width="590pt" height="188pt"
 viewBox="0.00 0.00 590.22 188.00" xmlns="http://www.w3.org/2000/svg" xmlns:xlink="http://www.w3.org/1999/xlink">
<g id="graph0" class="graph" transform="scale(1 1) rotate(0) translate(4 184)">
<title>G</title>
<polygon fill="white" stroke="none" points="-4,4 -4,-184 586.22,-184 586.22,4 -4,4"/>
<!-- :feature:detail:data -->
<g id="node1" class="node">
<title>:feature:detail:data</title>
<ellipse fill="none" stroke="black" cx="213.81" cy="-162" rx="80.01" ry="18"/>
<text text-anchor="middle" x="213.81" y="-156.95" font-family="Times,serif" font-size="14.00">:feature:detail:data</text>
</g>
<!-- :feature:detail:domain -->
<g id="node2" class="node">
<title>:feature:detail:domain</title>
<ellipse fill="none" stroke="black" cx="92.81" cy="-90" rx="92.81" ry="18"/>
<text text-anchor="middle" x="92.81" y="-84.95" font-family="Times,serif" font-size="14.00">:feature:detail:domain</text>
</g>
<!-- :feature:detail:data&#45;&gt;:feature:detail:domain -->
<g id="edge1" class="edge">
<title>:feature:detail:data&#45;&gt;:feature:detail:domain</title>
<path fill="none" stroke="red" stroke-width="2" d="M185.74,-144.76C169.37,-135.29 148.49,-123.21 130.67,-112.91"/>
<polygon fill="red" stroke="red" stroke-width="2" points="134.17,-110.88 123.76,-108.91 130.66,-116.94 134.17,-110.88"/>
</g>
<!-- :core:network -->
<g id="node3" class="node">
<title>:core:network</title>
<ellipse fill="none" stroke="black" cx="303.81" cy="-90" rx="62.1" ry="18"/>
<text text-anchor="middle" x="303.81" y="-84.95" font-family="Times,serif" font-size="14.00">:core:network</text>
</g>
<!-- :feature:detail:data&#45;&gt;:core:network -->
<g id="edge2" class="edge">
<title>:feature:detail:data&#45;&gt;:core:network</title>
<path fill="none" stroke="black" d="M235.14,-144.41C246.76,-135.37 261.34,-124.03 274.07,-114.13"/>
<polygon fill="black" stroke="black" points="276,-117.06 281.75,-108.16 271.71,-111.53 276,-117.06"/>
</g>
<!-- :core:common -->
<g id="node4" class="node">
<title>:core:common</title>
<ellipse fill="none" stroke="black" cx="155.81" cy="-18" rx="65.17" ry="18"/>
<text text-anchor="middle" x="155.81" y="-12.95" font-family="Times,serif" font-size="14.00">:core:common</text>
</g>
<!-- :feature:detail:data&#45;&gt;:core:common -->
<g id="edge3" class="edge">
<title>:feature:detail:data&#45;&gt;:core:common</title>
<path fill="none" stroke="black" d="M212.29,-143.6C210.18,-125.15 205.36,-95.49 194.81,-72 190.57,-62.56 184.45,-53.17 178.31,-44.97"/>
<polygon fill="black" stroke="black" points="181.08,-42.84 172.14,-37.15 175.58,-47.17 181.08,-42.84"/>
</g>
<!-- :feature:detail:domain&#45;&gt;:core:common -->
<g id="edge4" class="edge">
<title>:feature:detail:domain&#45;&gt;:core:common</title>
<path fill="none" stroke="red" stroke-width="2" d="M108.06,-72.05C115.56,-63.71 124.77,-53.49 133.08,-44.25"/>
<polygon fill="red" stroke="red" stroke-width="2" points="134.58,-47.81 138.67,-38.04 129.38,-43.13 134.58,-47.81"/>
</g>
<!-- :core:network&#45;&gt;:core:common -->
<g id="edge5" class="edge">
<title>:core:network&#45;&gt;:core:common</title>
<path fill="none" stroke="black" d="M272.42,-74.15C250.69,-63.88 221.52,-50.08 197.79,-38.86"/>
<polygon fill="black" stroke="black" points="199.56,-35.82 189.03,-34.71 196.57,-42.15 199.56,-35.82"/>
</g>
<!-- :core:datastore -->
<g id="node5" class="node">
<title>:core:datastore</title>
<ellipse fill="none" stroke="black" cx="303.81" cy="-18" rx="65.17" ry="18"/>
<text text-anchor="middle" x="303.81" y="-12.95" font-family="Times,serif" font-size="14.00">:core:datastore</text>
</g>
<!-- :core:network&#45;&gt;:core:datastore -->
<g id="edge6" class="edge">
<title>:core:network&#45;&gt;:core:datastore</title>
<path fill="none" stroke="black" d="M303.81,-71.7C303.81,-64.41 303.81,-55.73 303.81,-47.54"/>
<polygon fill="black" stroke="black" points="307.31,-47.62 303.81,-37.62 300.31,-47.62 307.31,-47.62"/>
</g>
<!-- :core:datasource:logout -->
<g id="node6" class="node">
<title>:core:datasource:logout</title>
<ellipse fill="none" stroke="black" cx="484.81" cy="-18" rx="97.41" ry="18"/>
<text text-anchor="middle" x="484.81" y="-12.95" font-family="Times,serif" font-size="14.00">:core:datasource:logout</text>
</g>
<!-- :core:network&#45;&gt;:core:datasource:logout -->
<g id="edge7" class="edge">
<title>:core:network&#45;&gt;:core:datasource:logout</title>
<path fill="none" stroke="black" d="M340,-75C366.74,-64.66 403.51,-50.44 433.31,-38.92"/>
<polygon fill="black" stroke="black" points="434.46,-42.22 442.53,-35.35 431.94,-35.69 434.46,-42.22"/>
</g>
</g>
</svg>
