<?xml version="1.0" encoding="UTF-8" standalone="no"?>
<!DOCTYPE svg PUBLIC "-//W3C//DTD SVG 1.1//EN"
 "http://www.w3.org/Graphics/SVG/1.1/DTD/svg11.dtd">
<!-- Generated by graphviz version 12.2.1 (20241206.2353)
 -->
<!-- Title: G Pages: 1 -->
<svg width="3420pt" height="260pt"
 viewBox="0.00 0.00 3420.42 260.00" xmlns="http://www.w3.org/2000/svg" xmlns:xlink="http://www.w3.org/1999/xlink">
<g id="graph0" class="graph" transform="scale(1 1) rotate(0) translate(4 256)">
<title>G</title>
<polygon fill="white" stroke="none" points="-4,4 -4,-256 3416.42,-256 3416.42,4 -4,4"/>
<!-- :navigation -->
<g id="node1" class="node">
<title>:navigation</title>
<ellipse fill="none" stroke="black" cx="1600.7" cy="-234" rx="52.38" ry="18"/>
<text text-anchor="middle" x="1600.7" y="-228.95" font-family="Times,serif" font-size="14.00">:navigation</text>
</g>
<!-- :feature:splash:ui -->
<g id="node2" class="node">
<title>:feature:splash:ui</title>
<ellipse fill="none" stroke="black" cx="1498.7" cy="-162" rx="74.38" ry="18"/>
<text text-anchor="middle" x="1498.7" y="-156.95" font-family="Times,serif" font-size="14.00">:feature:splash:ui</text>
</g>
<!-- :navigation&#45;&gt;:feature:splash:ui -->
<g id="edge1" class="edge">
<title>:navigation&#45;&gt;:feature:splash:ui</title>
<path fill="none" stroke="red" stroke-width="2" d="M1578.06,-217.46C1564.58,-208.21 1547.22,-196.3 1532.18,-185.98"/>
<polygon fill="red" stroke="red" stroke-width="2" points="1535.41,-183.95 1525.19,-181.18 1531.45,-189.72 1535.41,-183.95"/>
</g>
<!-- :feature:welcome:ui -->
<g id="node3" class="node">
<title>:feature:welcome:ui</title>
<ellipse fill="none" stroke="black" cx="144.7" cy="-162" rx="85.13" ry="18"/>
<text text-anchor="middle" x="144.7" y="-156.95" font-family="Times,serif" font-size="14.00">:feature:welcome:ui</text>
</g>
<!-- :navigation&#45;&gt;:feature:welcome:ui -->
<g id="edge2" class="edge">
<title>:navigation&#45;&gt;:feature:welcome:ui</title>
<path fill="none" stroke="black" d="M1548.54,-231.12C1381.31,-225.02 843.45,-204.69 398.7,-180 344.57,-177 283.99,-172.97 235.58,-169.59"/>
<polygon fill="black" stroke="black" points="235.91,-166.1 225.69,-168.89 235.42,-173.08 235.91,-166.1"/>
</g>
<!-- :feature:login:ui -->
<g id="node4" class="node">
<title>:feature:login:ui</title>
<ellipse fill="none" stroke="black" cx="477.7" cy="-162" rx="70.29" ry="18"/>
<text text-anchor="middle" x="477.7" y="-156.95" font-family="Times,serif" font-size="14.00">:feature:login:ui</text>
</g>
<!-- :navigation&#45;&gt;:feature:login:ui -->
<g id="edge3" class="edge">
<title>:navigation&#45;&gt;:feature:login:ui</title>
<path fill="none" stroke="black" d="M1548.64,-231.08C1403.9,-225.55 984.41,-208.13 636.7,-180 608.85,-177.75 578.33,-174.64 551.54,-171.7"/>
<polygon fill="black" stroke="black" points="552.13,-168.24 541.81,-170.61 551.36,-175.2 552.13,-168.24"/>
</g>
<!-- :feature:register:ui -->
<g id="node5" class="node">
<title>:feature:register:ui</title>
<ellipse fill="none" stroke="black" cx="724.7" cy="-162" rx="78.99" ry="18"/>
<text text-anchor="middle" x="724.7" y="-156.95" font-family="Times,serif" font-size="14.00">:feature:register:ui</text>
</g>
<!-- :navigation&#45;&gt;:feature:register:ui -->
<g id="edge4" class="edge">
<title>:navigation&#45;&gt;:feature:register:ui</title>
<path fill="none" stroke="black" d="M1548.91,-230.43C1427.23,-224.14 1113.67,-206.55 852.7,-180 835.96,-178.3 818.03,-176.13 801.05,-173.92"/>
<polygon fill="black" stroke="black" points="801.92,-170.51 791.55,-172.66 801.01,-177.45 801.92,-170.51"/>
</g>
<!-- :feature:home:ui -->
<g id="node6" class="node">
<title>:feature:home:ui</title>
<ellipse fill="none" stroke="black" cx="933.7" cy="-162" rx="72.34" ry="18"/>
<text text-anchor="middle" x="933.7" y="-156.95" font-family="Times,serif" font-size="14.00">:feature:home:ui</text>
</g>
<!-- :navigation&#45;&gt;:feature:home:ui -->
<g id="edge5" class="edge">
<title>:navigation&#45;&gt;:feature:home:ui</title>
<path fill="none" stroke="black" d="M1549.43,-229.47C1449.94,-222.33 1223.81,-204.74 1034.7,-180 1024.16,-178.62 1013.04,-176.96 1002.19,-175.23"/>
<polygon fill="black" stroke="black" points="1002.93,-171.8 992.5,-173.64 1001.8,-178.71 1002.93,-171.8"/>
</g>
<!-- :feature:category:ui -->
<g id="node7" class="node">
<title>:feature:category:ui</title>
<ellipse fill="none" stroke="black" cx="1126.7" cy="-162" rx="83.08" ry="18"/>
<text text-anchor="middle" x="1126.7" y="-156.95" font-family="Times,serif" font-size="14.00">:feature:category:ui</text>
</g>
<!-- :navigation&#45;&gt;:feature:category:ui -->
<g id="edge6" class="edge">
<title>:navigation&#45;&gt;:feature:category:ui</title>
<path fill="none" stroke="black" d="M1552.11,-226.7C1480.24,-217.27 1341.37,-198.58 1223.7,-180 1216.06,-178.79 1208.1,-177.49 1200.16,-176.15"/>
<polygon fill="black" stroke="black" points="1200.94,-172.73 1190.49,-174.49 1199.76,-179.63 1200.94,-172.73"/>
</g>
<!-- :feature:search:ui -->
<g id="node8" class="node">
<title>:feature:search:ui</title>
<ellipse fill="none" stroke="black" cx="1703.7" cy="-162" rx="74.89" ry="18"/>
<text text-anchor="middle" x="1703.7" y="-156.95" font-family="Times,serif" font-size="14.00">:feature:search:ui</text>
</g>
<!-- :navigation&#45;&gt;:feature:search:ui -->
<g id="edge7" class="edge">
<title>:navigation&#45;&gt;:feature:search:ui</title>
<path fill="none" stroke="black" d="M1623.55,-217.46C1637.3,-208.13 1655.03,-196.07 1670.32,-185.68"/>
<polygon fill="black" stroke="black" points="1671.91,-188.83 1678.21,-180.32 1667.98,-183.04 1671.91,-188.83"/>
</g>
<!-- :feature:favorites:ui -->
<g id="node9" class="node">
<title>:feature:favorites:ui</title>
<ellipse fill="none" stroke="black" cx="1882.7" cy="-162" rx="83.6" ry="18"/>
<text text-anchor="middle" x="1882.7" y="-156.95" font-family="Times,serif" font-size="14.00">:feature:favorites:ui</text>
</g>
<!-- :navigation&#45;&gt;:feature:favorites:ui -->
<g id="edge8" class="edge">
<title>:navigation&#45;&gt;:feature:favorites:ui</title>
<path fill="none" stroke="black" d="M1642.31,-222.67C1688.75,-211.14 1764.45,-192.35 1818.5,-178.94"/>
<polygon fill="black" stroke="black" points="1819.01,-182.41 1827.87,-176.61 1817.32,-175.62 1819.01,-182.41"/>
</g>
<!-- :feature:leaderboard:ui -->
<g id="node10" class="node">
<title>:feature:leaderboard:ui</title>
<ellipse fill="none" stroke="black" cx="2115.7" cy="-162" rx="94.86" ry="18"/>
<text text-anchor="middle" x="2115.7" y="-156.95" font-family="Times,serif" font-size="14.00">:feature:leaderboard:ui</text>
</g>
<!-- :navigation&#45;&gt;:feature:leaderboard:ui -->
<g id="edge9" class="edge">
<title>:navigation&#45;&gt;:feature:leaderboard:ui</title>
<path fill="none" stroke="black" d="M1648.68,-226.48C1735.5,-214.68 1919.78,-189.63 2029.1,-174.77"/>
<polygon fill="black" stroke="black" points="2029.48,-178.25 2038.92,-173.44 2028.54,-171.31 2029.48,-178.25"/>
</g>
<!-- :feature:profile:ui -->
<g id="node11" class="node">
<title>:feature:profile:ui</title>
<ellipse fill="none" stroke="black" cx="2372.7" cy="-162" rx="75.92" ry="18"/>
<text text-anchor="middle" x="2372.7" y="-156.95" font-family="Times,serif" font-size="14.00">:feature:profile:ui</text>
</g>
<!-- :navigation&#45;&gt;:feature:profile:ui -->
<g id="edge10" class="edge">
<title>:navigation&#45;&gt;:feature:profile:ui</title>
<path fill="none" stroke="black" d="M1651.28,-229.1C1756.95,-220.87 2008.77,-200.74 2219.7,-180 2244.03,-177.61 2270.52,-174.75 2294.51,-172.07"/>
<polygon fill="black" stroke="black" points="2294.65,-175.58 2304.2,-170.98 2293.87,-168.62 2294.65,-175.58"/>
</g>
<!-- :feature:detail:ui -->
<g id="node12" class="node">
<title>:feature:detail:ui</title>
<ellipse fill="none" stroke="black" cx="2614.7" cy="-162" rx="71.82" ry="18"/>
<text text-anchor="middle" x="2614.7" y="-156.95" font-family="Times,serif" font-size="14.00">:feature:detail:ui</text>
</g>
<!-- :navigation&#45;&gt;:feature:detail:ui -->
<g id="edge11" class="edge">
<title>:navigation&#45;&gt;:feature:detail:ui</title>
<path fill="none" stroke="black" d="M1652.44,-230.63C1785.93,-224.35 2152.83,-205.92 2457.7,-180 2484.47,-177.72 2513.75,-174.7 2539.69,-171.83"/>
<polygon fill="black" stroke="black" points="2539.92,-175.33 2549.47,-170.74 2539.14,-168.37 2539.92,-175.33"/>
</g>
<!-- :feature:quiz:ui -->
<g id="node13" class="node">
<title>:feature:quiz:ui</title>
<ellipse fill="none" stroke="black" cx="2851.7" cy="-162" rx="67.22" ry="18"/>
<text text-anchor="middle" x="2851.7" y="-156.95" font-family="Times,serif" font-size="14.00">:feature:quiz:ui</text>
</g>
<!-- :navigation&#45;&gt;:feature:quiz:ui -->
<g id="edge12" class="edge">
<title>:navigation&#45;&gt;:feature:quiz:ui</title>
<path fill="none" stroke="black" d="M1652.91,-231.59C1810.5,-227.09 2295.1,-211.49 2695.7,-180 2723.5,-177.81 2754.01,-174.66 2780.62,-171.66"/>
<polygon fill="black" stroke="black" points="2780.73,-175.17 2790.27,-170.56 2779.93,-168.21 2780.73,-175.17"/>
</g>
<!-- :feature:summary:ui -->
<g id="node14" class="node">
<title>:feature:summary:ui</title>
<ellipse fill="none" stroke="black" cx="1319.7" cy="-162" rx="86.67" ry="18"/>
<text text-anchor="middle" x="1319.7" y="-156.95" font-family="Times,serif" font-size="14.00">:feature:summary:ui</text>
</g>
<!-- :navigation&#45;&gt;:feature:summary:ui -->
<g id="edge13" class="edge">
<title>:navigation&#45;&gt;:feature:summary:ui</title>
<path fill="none" stroke="black" d="M1559.23,-222.67C1513.27,-211.22 1438.53,-192.6 1384.75,-179.21"/>
<polygon fill="black" stroke="black" points="1385.63,-175.82 1375.08,-176.8 1383.94,-182.61 1385.63,-175.82"/>
</g>
<!-- :feature:editprofile:ui -->
<g id="node15" class="node">
<title>:feature:editprofile:ui</title>
<ellipse fill="none" stroke="black" cx="3095.7" cy="-162" rx="89.74" ry="18"/>
<text text-anchor="middle" x="3095.7" y="-156.95" font-family="Times,serif" font-size="14.00">:feature:editprofile:ui</text>
</g>
<!-- :navigation&#45;&gt;:feature:editprofile:ui -->
<g id="edge14" class="edge">
<title>:navigation&#45;&gt;:feature:editprofile:ui</title>
<path fill="none" stroke="black" d="M1653.23,-232.05C1831.93,-228.58 2432.63,-214.9 2927.7,-180 2953.81,-178.16 2982.14,-175.53 3007.97,-172.9"/>
<polygon fill="black" stroke="black" points="3008.16,-176.4 3017.75,-171.88 3007.44,-169.43 3008.16,-176.4"/>
</g>
<!-- :core:ui -->
<g id="node16" class="node">
<title>:core:ui</title>
<ellipse fill="none" stroke="black" cx="1569.7" cy="-90" rx="39.07" ry="18"/>
<text text-anchor="middle" x="1569.7" y="-84.95" font-family="Times,serif" font-size="14.00">:core:ui</text>
</g>
<!-- :navigation&#45;&gt;:core:ui -->
<g id="edge15" class="edge">
<title>:navigation&#45;&gt;:core:ui</title>
<path fill="none" stroke="black" d="M1597.05,-215.59C1593.27,-197.64 1587.16,-168.84 1581.7,-144 1579.93,-135.95 1577.97,-127.23 1576.15,-119.22"/>
<polygon fill="black" stroke="black" points="1579.61,-118.62 1573.98,-109.65 1572.78,-120.18 1579.61,-118.62"/>
</g>
<!-- :feature:splash:ui&#45;&gt;:core:ui -->
<g id="edge16" class="edge">
<title>:feature:splash:ui&#45;&gt;:core:ui</title>
<path fill="none" stroke="black" d="M1515.88,-144.05C1524.77,-135.29 1535.77,-124.45 1545.5,-114.86"/>
<polygon fill="black" stroke="black" points="1547.9,-117.41 1552.56,-107.89 1542.98,-112.42 1547.9,-117.41"/>
</g>
<!-- :core:common -->
<g id="node17" class="node">
<title>:core:common</title>
<ellipse fill="none" stroke="black" cx="1636.7" cy="-18" rx="65.17" ry="18"/>
<text text-anchor="middle" x="1636.7" y="-12.95" font-family="Times,serif" font-size="14.00">:core:common</text>
</g>
<!-- :feature:splash:ui&#45;&gt;:core:common -->
<g id="edge17" class="edge">
<title>:feature:splash:ui&#45;&gt;:core:common</title>
<path fill="none" stroke="black" d="M1498.91,-143.63C1500.03,-124.1 1504.61,-92.45 1521.7,-72 1536.28,-54.54 1557.86,-42.54 1578.4,-34.43"/>
<polygon fill="black" stroke="black" points="1579.4,-37.79 1587.58,-31.06 1576.98,-31.22 1579.4,-37.79"/>
</g>
<!-- :feature:splash:domain -->
<g id="node18" class="node">
<title>:feature:splash:domain</title>
<ellipse fill="none" stroke="black" cx="1379.7" cy="-90" rx="95.37" ry="18"/>
<text text-anchor="middle" x="1379.7" y="-84.95" font-family="Times,serif" font-size="14.00">:feature:splash:domain</text>
</g>
<!-- :feature:splash:ui&#45;&gt;:feature:splash:domain -->
<g id="edge18" class="edge">
<title>:feature:splash:ui&#45;&gt;:feature:splash:domain</title>
<path fill="none" stroke="red" stroke-width="2" d="M1471.39,-144.94C1455.45,-135.56 1435.09,-123.58 1417.6,-113.3"/>
<polygon fill="red" stroke="red" stroke-width="2" points="1420.7,-111.06 1410.3,-109.01 1417.15,-117.09 1420.7,-111.06"/>
</g>
<!-- :feature:welcome:ui&#45;&gt;:core:ui -->
<g id="edge20" class="edge">
<title>:feature:welcome:ui&#45;&gt;:core:ui</title>
<path fill="none" stroke="black" d="M223.88,-155.01C273.97,-151.39 340.1,-146.93 398.7,-144 880.58,-119.89 1004.35,-162.96 1483.7,-108 1497.03,-106.47 1511.38,-103.98 1524.46,-101.37"/>
<polygon fill="black" stroke="black" points="1525.02,-104.83 1534.1,-99.37 1523.6,-97.97 1525.02,-104.83"/>
</g>
<!-- :feature:welcome:ui&#45;&gt;:core:common -->
<g id="edge21" class="edge">
<title>:feature:welcome:ui&#45;&gt;:core:common</title>
<path fill="none" stroke="black" d="M75.88,-151.12C50.08,-143.7 23.27,-130.72 7.7,-108 -1.35,-94.8 -3.43,-83.5 7.7,-72 62.25,-15.64 1244.67,-17.15 1559.99,-18.57"/>
<polygon fill="black" stroke="black" points="1559.75,-22.06 1569.77,-18.61 1559.78,-15.07 1559.75,-22.06"/>
</g>
<!-- :feature:welcome:domain -->
<g id="node19" class="node">
<title>:feature:welcome:domain</title>
<ellipse fill="none" stroke="black" cx="122.7" cy="-90" rx="106.11" ry="18"/>
<text text-anchor="middle" x="122.7" y="-84.95" font-family="Times,serif" font-size="14.00">:feature:welcome:domain</text>
</g>
<!-- :feature:welcome:ui&#45;&gt;:feature:welcome:domain -->
<g id="edge22" class="edge">
<title>:feature:welcome:ui&#45;&gt;:feature:welcome:domain</title>
<path fill="none" stroke="black" d="M139.26,-143.7C136.91,-136.24 134.11,-127.32 131.48,-118.97"/>
<polygon fill="black" stroke="black" points="134.86,-118.04 128.52,-109.55 128.18,-120.14 134.86,-118.04"/>
</g>
<!-- :feature:login:ui&#45;&gt;:core:ui -->
<g id="edge24" class="edge">
<title>:feature:login:ui&#45;&gt;:core:ui</title>
<path fill="none" stroke="black" d="M540.29,-153.37C569.54,-150.05 604.86,-146.38 636.7,-144 1012.43,-115.96 1109.57,-152.66 1483.7,-108 1497.02,-106.41 1511.37,-103.9 1524.45,-101.29"/>
<polygon fill="black" stroke="black" points="1525,-104.75 1534.09,-99.3 1523.59,-97.89 1525,-104.75"/>
</g>
<!-- :feature:login:ui&#45;&gt;:core:common -->
<g id="edge25" class="edge">
<title>:feature:login:ui&#45;&gt;:core:common</title>
<path fill="none" stroke="black" d="M413.92,-154.16C338.77,-143.77 229.6,-119.92 275.7,-72 320.43,-25.48 1278.95,-19.76 1559.94,-19.08"/>
<polygon fill="black" stroke="black" points="1559.72,-22.58 1569.71,-19.06 1559.71,-15.58 1559.72,-22.58"/>
</g>
<!-- :feature:login:domain -->
<g id="node20" class="node">
<title>:feature:login:domain</title>
<ellipse fill="none" stroke="black" cx="375.7" cy="-90" rx="91.27" ry="18"/>
<text text-anchor="middle" x="375.7" y="-84.95" font-family="Times,serif" font-size="14.00">:feature:login:domain</text>
</g>
<!-- :feature:login:ui&#45;&gt;:feature:login:domain -->
<g id="edge26" class="edge">
<title>:feature:login:ui&#45;&gt;:feature:login:domain</title>
<path fill="none" stroke="black" d="M453.78,-144.59C440.55,-135.51 423.88,-124.07 409.35,-114.1"/>
<polygon fill="black" stroke="black" points="411.64,-111.42 401.42,-108.65 407.68,-117.2 411.64,-111.42"/>
</g>
<!-- :feature:register:ui&#45;&gt;:core:ui -->
<g id="edge28" class="edge">
<title>:feature:register:ui&#45;&gt;:core:ui</title>
<path fill="none" stroke="black" d="M789.7,-151.4C809.86,-148.69 832.16,-145.95 852.7,-144 1132.34,-117.49 1205.02,-143.32 1483.7,-108 1496.89,-106.33 1511.1,-103.82 1524.09,-101.23"/>
<polygon fill="black" stroke="black" points="1524.57,-104.71 1533.66,-99.27 1523.16,-97.85 1524.57,-104.71"/>
</g>
<!-- :feature:register:ui&#45;&gt;:core:common -->
<g id="edge29" class="edge">
<title>:feature:register:ui&#45;&gt;:core:common</title>
<path fill="none" stroke="black" d="M653.12,-154.13C575.08,-144.04 467.11,-120.83 513.7,-72 549.79,-34.16 1312.74,-22.53 1560.05,-19.75"/>
<polygon fill="black" stroke="black" points="1559.96,-23.25 1569.92,-19.64 1559.88,-16.25 1559.96,-23.25"/>
</g>
<!-- :feature:register:domain -->
<g id="node21" class="node">
<title>:feature:register:domain</title>
<ellipse fill="none" stroke="black" cx="622.7" cy="-90" rx="99.97" ry="18"/>
<text text-anchor="middle" x="622.7" y="-84.95" font-family="Times,serif" font-size="14.00">:feature:register:domain</text>
</g>
<!-- :feature:register:ui&#45;&gt;:feature:register:domain -->
<g id="edge30" class="edge">
<title>:feature:register:ui&#45;&gt;:feature:register:domain</title>
<path fill="none" stroke="black" d="M700.52,-144.41C687.28,-135.32 670.67,-123.92 656.19,-113.99"/>
<polygon fill="black" stroke="black" points="658.52,-111.34 648.3,-108.57 654.56,-117.11 658.52,-111.34"/>
</g>
<!-- :feature:home:ui&#45;&gt;:core:ui -->
<g id="edge32" class="edge">
<title>:feature:home:ui&#45;&gt;:core:ui</title>
<path fill="none" stroke="black" d="M990.72,-150.51C1005.04,-148.13 1020.4,-145.77 1034.7,-144 1233.37,-119.36 1285.39,-135.46 1483.7,-108 1496.87,-106.18 1511.07,-103.62 1524.07,-101.03"/>
<polygon fill="black" stroke="black" points="1524.54,-104.51 1533.63,-99.08 1523.14,-97.65 1524.54,-104.51"/>
</g>
<!-- :feature:home:ui&#45;&gt;:core:common -->
<g id="edge33" class="edge">
<title>:feature:home:ui&#45;&gt;:core:common</title>
<path fill="none" stroke="black" d="M875.93,-150.79C814.93,-137.66 732.35,-111.7 769.7,-72 796.6,-43.4 1353.79,-26.25 1560.45,-20.85"/>
<polygon fill="black" stroke="black" points="1560.37,-24.36 1570.27,-20.6 1560.19,-17.36 1560.37,-24.36"/>
</g>
<!-- :feature:home:domain -->
<g id="node22" class="node">
<title>:feature:home:domain</title>
<ellipse fill="none" stroke="black" cx="871.7" cy="-90" rx="93.32" ry="18"/>
<text text-anchor="middle" x="871.7" y="-84.95" font-family="Times,serif" font-size="14.00">:feature:home:domain</text>
</g>
<!-- :feature:home:ui&#45;&gt;:feature:home:domain -->
<g id="edge34" class="edge">
<title>:feature:home:ui&#45;&gt;:feature:home:domain</title>
<path fill="none" stroke="black" d="M918.69,-144.05C911.3,-135.71 902.24,-125.49 894.06,-116.25"/>
<polygon fill="black" stroke="black" points="896.82,-114.09 887.57,-108.92 891.58,-118.73 896.82,-114.09"/>
</g>
<!-- :feature:category:ui&#45;&gt;:core:ui -->
<g id="edge36" class="edge">
<title>:feature:category:ui&#45;&gt;:core:ui</title>
<path fill="none" stroke="black" d="M1189,-149.74C1200.52,-147.75 1212.46,-145.76 1223.7,-144 1338.94,-125.93 1368.65,-127.32 1483.7,-108 1496.7,-105.82 1510.75,-103.16 1523.65,-100.61"/>
<polygon fill="black" stroke="black" points="1524.03,-104.1 1533.15,-98.7 1522.65,-97.24 1524.03,-104.1"/>
</g>
<!-- :feature:category:ui&#45;&gt;:core:common -->
<g id="edge37" class="edge">
<title>:feature:category:ui&#45;&gt;:core:common</title>
<path fill="none" stroke="black" d="M1069.27,-148.61C1047.38,-140.78 1024.62,-128.18 1011.7,-108 1003.07,-94.53 1000.87,-83.78 1011.7,-72 1048.14,-32.33 1401.66,-22.32 1560.31,-19.82"/>
<polygon fill="black" stroke="black" points="1559.93,-23.33 1569.87,-19.68 1559.82,-16.33 1559.93,-23.33"/>
</g>
<!-- :feature:category:domain -->
<g id="node23" class="node">
<title>:feature:category:domain</title>
<ellipse fill="none" stroke="black" cx="1124.7" cy="-90" rx="104.07" ry="18"/>
<text text-anchor="middle" x="1124.7" y="-84.95" font-family="Times,serif" font-size="14.00">:feature:category:domain</text>
</g>
<!-- :feature:category:ui&#45;&gt;:feature:category:domain -->
<g id="edge38" class="edge">
<title>:feature:category:ui&#45;&gt;:feature:category:domain</title>
<path fill="none" stroke="black" d="M1126.2,-143.7C1125.99,-136.41 1125.74,-127.73 1125.51,-119.54"/>
<polygon fill="black" stroke="black" points="1129.01,-119.51 1125.23,-109.62 1122.01,-119.71 1129.01,-119.51"/>
</g>
<!-- :feature:search:ui&#45;&gt;:core:ui -->
<g id="edge40" class="edge">
<title>:feature:search:ui&#45;&gt;:core:ui</title>
<path fill="none" stroke="black" d="M1673.29,-145.12C1652.85,-134.44 1625.86,-120.34 1604.55,-109.21"/>
<polygon fill="black" stroke="black" points="1606.43,-106.24 1595.94,-104.71 1603.18,-112.44 1606.43,-106.24"/>
</g>
<!-- :feature:search:ui&#45;&gt;:core:common -->
<g id="edge41" class="edge">
<title>:feature:search:ui&#45;&gt;:core:common</title>
<path fill="none" stroke="black" d="M1684.17,-144.19C1674.19,-134.57 1662.71,-121.7 1655.7,-108 1646.06,-89.17 1641.3,-65.69 1638.96,-47.58"/>
<polygon fill="black" stroke="black" points="1642.46,-47.35 1637.88,-37.79 1635.5,-48.11 1642.46,-47.35"/>
</g>
<!-- :feature:search:domain -->
<g id="node24" class="node">
<title>:feature:search:domain</title>
<ellipse fill="none" stroke="black" cx="1760.7" cy="-90" rx="95.88" ry="18"/>
<text text-anchor="middle" x="1760.7" y="-84.95" font-family="Times,serif" font-size="14.00">:feature:search:domain</text>
</g>
<!-- :feature:search:ui&#45;&gt;:feature:search:domain -->
<g id="edge42" class="edge">
<title>:feature:search:ui&#45;&gt;:feature:search:domain</title>
<path fill="none" stroke="black" d="M1717.49,-144.05C1724.12,-135.92 1732.2,-126 1739.57,-116.94"/>
<polygon fill="black" stroke="black" points="1742.07,-119.41 1745.67,-109.45 1736.64,-114.99 1742.07,-119.41"/>
</g>
<!-- :feature:favorites:ui&#45;&gt;:core:ui -->
<g id="edge44" class="edge">
<title>:feature:favorites:ui&#45;&gt;:core:ui</title>
<path fill="none" stroke="black" d="M1826.38,-148.4C1765.95,-134.89 1671.13,-113.69 1615.23,-101.18"/>
<polygon fill="black" stroke="black" points="1616.25,-97.83 1605.73,-99.06 1614.73,-104.66 1616.25,-97.83"/>
</g>
<!-- :feature:favorites:ui&#45;&gt;:core:common -->
<g id="edge45" class="edge">
<title>:feature:favorites:ui&#45;&gt;:core:common</title>
<path fill="none" stroke="black" d="M1884.53,-143.79C1885.63,-123.81 1884.13,-91.16 1865.7,-72 1844.07,-49.52 1766.59,-34.99 1707.69,-26.93"/>
<polygon fill="black" stroke="black" points="1708.42,-23.49 1698.05,-25.65 1707.5,-30.43 1708.42,-23.49"/>
</g>
<!-- :feature:favorites:domain -->
<g id="node25" class="node">
<title>:feature:favorites:domain</title>
<ellipse fill="none" stroke="black" cx="2017.7" cy="-90" rx="104.58" ry="18"/>
<text text-anchor="middle" x="2017.7" y="-84.95" font-family="Times,serif" font-size="14.00">:feature:favorites:domain</text>
</g>
<!-- :feature:favorites:ui&#45;&gt;:feature:favorites:domain -->
<g id="edge46" class="edge">
<title>:feature:favorites:ui&#45;&gt;:feature:favorites:domain</title>
<path fill="none" stroke="black" d="M1913.67,-144.94C1932.1,-135.39 1955.72,-123.13 1975.8,-112.72"/>
<polygon fill="black" stroke="black" points="1977.32,-115.88 1984.59,-108.17 1974.1,-109.66 1977.32,-115.88"/>
</g>
<!-- :feature:leaderboard:ui&#45;&gt;:core:ui -->
<g id="edge48" class="edge">
<title>:feature:leaderboard:ui&#45;&gt;:core:ui</title>
<path fill="none" stroke="black" d="M2037.59,-151.39C2017.43,-148.95 1995.76,-146.35 1975.7,-144 1833.54,-127.37 1797.13,-129.9 1655.7,-108 1642.55,-105.96 1628.36,-103.34 1615.36,-100.76"/>
<polygon fill="black" stroke="black" points="1616.29,-97.38 1605.79,-98.82 1614.9,-104.24 1616.29,-97.38"/>
</g>
<!-- :feature:leaderboard:ui&#45;&gt;:core:common -->
<g id="edge49" class="edge">
<title>:feature:leaderboard:ui&#45;&gt;:core:common</title>
<path fill="none" stroke="black" d="M2126.32,-143.63C2136.92,-123.82 2149.32,-91.62 2131.7,-72 2104.22,-41.43 1844.32,-27.03 1712.53,-21.65"/>
<polygon fill="black" stroke="black" points="1712.99,-18.16 1702.86,-21.26 1712.71,-25.16 1712.99,-18.16"/>
</g>
<!-- :feature:leaderboard:domain -->
<g id="node26" class="node">
<title>:feature:leaderboard:domain</title>
<ellipse fill="none" stroke="black" cx="2294.7" cy="-90" rx="115.84" ry="18"/>
<text text-anchor="middle" x="2294.7" y="-84.95" font-family="Times,serif" font-size="14.00">:feature:leaderboard:domain</text>
</g>
<!-- :feature:leaderboard:ui&#45;&gt;:feature:leaderboard:domain -->
<g id="edge50" class="edge">
<title>:feature:leaderboard:ui&#45;&gt;:feature:leaderboard:domain</title>
<path fill="none" stroke="black" d="M2155.87,-145.29C2181.44,-135.29 2214.82,-122.24 2242.44,-111.43"/>
<polygon fill="black" stroke="black" points="2243.66,-114.72 2251.69,-107.82 2241.11,-108.2 2243.66,-114.72"/>
</g>
<!-- :feature:profile:ui&#45;&gt;:core:ui -->
<g id="edge52" class="edge">
<title>:feature:profile:ui&#45;&gt;:core:ui</title>
<path fill="none" stroke="black" d="M2306.49,-152.96C2279.59,-149.87 2248.18,-146.49 2219.7,-144 1969.47,-122.13 1904.77,-140.42 1655.7,-108 1642.5,-106.28 1628.3,-103.76 1615.3,-101.17"/>
<polygon fill="black" stroke="black" points="1616.24,-97.79 1605.74,-99.21 1614.83,-104.65 1616.24,-97.79"/>
</g>
<!-- :feature:profile:ui&#45;&gt;:core:common -->
<g id="edge53" class="edge">
<title>:feature:profile:ui&#45;&gt;:core:common</title>
<path fill="none" stroke="black" d="M2392.64,-144.28C2413.23,-125.07 2439.74,-93.45 2419.7,-72 2372.17,-21.15 1901.61,-17.71 1713.66,-18.39"/>
<polygon fill="black" stroke="black" points="1713.73,-14.89 1703.74,-18.43 1713.76,-21.89 1713.73,-14.89"/>
</g>
<!-- :feature:profile:domain -->
<g id="node27" class="node">
<title>:feature:profile:domain</title>
<ellipse fill="none" stroke="black" cx="2563.7" cy="-90" rx="96.9" ry="18"/>
<text text-anchor="middle" x="2563.7" y="-84.95" font-family="Times,serif" font-size="14.00">:feature:profile:domain</text>
</g>
<!-- :feature:profile:ui&#45;&gt;:feature:profile:domain -->
<g id="edge54" class="edge">
<title>:feature:profile:ui&#45;&gt;:feature:profile:domain</title>
<path fill="none" stroke="black" d="M2412.74,-146.33C2441.11,-135.93 2479.49,-121.86 2510.44,-110.52"/>
<polygon fill="black" stroke="black" points="2511.45,-113.88 2519.63,-107.15 2509.04,-107.3 2511.45,-113.88"/>
</g>
<!-- :feature:detail:ui&#45;&gt;:core:ui -->
<g id="edge56" class="edge">
<title>:feature:detail:ui&#45;&gt;:core:ui</title>
<path fill="none" stroke="black" d="M2551.38,-153.22C2522.8,-149.95 2488.59,-146.36 2457.7,-144 2101.93,-116.78 2009.93,-150.72 1655.7,-108 1642.37,-106.39 1628.03,-103.88 1614.94,-101.27"/>
<polygon fill="black" stroke="black" points="1615.81,-97.87 1605.3,-99.28 1614.39,-104.73 1615.81,-97.87"/>
</g>
<!-- :feature:detail:ui&#45;&gt;:core:common -->
<g id="edge57" class="edge">
<title>:feature:detail:ui&#45;&gt;:core:common</title>
<path fill="none" stroke="black" d="M2637.17,-144.52C2660.46,-125.54 2690.71,-94.12 2669.7,-72 2636.84,-37.41 1946.52,-23.72 1713.07,-20.07"/>
<polygon fill="black" stroke="black" points="1713.21,-16.58 1703.16,-19.92 1713.1,-23.57 1713.21,-16.58"/>
</g>
<!-- :feature:detail:domain -->
<g id="node28" class="node">
<title>:feature:detail:domain</title>
<ellipse fill="none" stroke="black" cx="2809.7" cy="-90" rx="92.81" ry="18"/>
<text text-anchor="middle" x="2809.7" y="-84.95" font-family="Times,serif" font-size="14.00">:feature:detail:domain</text>
</g>
<!-- :feature:detail:ui&#45;&gt;:feature:detail:domain -->
<g id="edge58" class="edge">
<title>:feature:detail:ui&#45;&gt;:feature:detail:domain</title>
<path fill="none" stroke="black" d="M2654.63,-146.67C2683.96,-136.14 2724.12,-121.72 2756.22,-110.2"/>
<polygon fill="black" stroke="black" points="2757.12,-113.59 2765.35,-106.92 2754.75,-107 2757.12,-113.59"/>
</g>
<!-- :feature:quiz:ui&#45;&gt;:core:ui -->
<g id="edge60" class="edge">
<title>:feature:quiz:ui&#45;&gt;:core:ui</title>
<path fill="none" stroke="black" d="M2791.78,-153.42C2762.81,-150.03 2727.49,-146.28 2695.7,-144 2234.38,-110.93 2115.15,-161.02 1655.7,-108 1642.36,-106.46 1628.01,-103.97 1614.93,-101.36"/>
<polygon fill="black" stroke="black" points="1615.8,-97.96 1605.29,-99.36 1614.38,-104.82 1615.8,-97.96"/>
</g>
<!-- :feature:quiz:ui&#45;&gt;:core:common -->
<g id="edge61" class="edge">
<title>:feature:quiz:ui&#45;&gt;:core:common</title>
<path fill="none" stroke="black" d="M2875.33,-145.02C2900.36,-126.23 2933.5,-94.73 2911.7,-72 2870.07,-28.61 1981.83,-20.7 1713.07,-19.29"/>
<polygon fill="black" stroke="black" points="1713.41,-15.8 1703.39,-19.24 1713.37,-22.8 1713.41,-15.8"/>
</g>
<!-- :feature:quiz:domain -->
<g id="node29" class="node">
<title>:feature:quiz:domain</title>
<ellipse fill="none" stroke="black" cx="3046.7" cy="-90" rx="88.2" ry="18"/>
<text text-anchor="middle" x="3046.7" y="-84.95" font-family="Times,serif" font-size="14.00">:feature:quiz:domain</text>
</g>
<!-- :feature:quiz:ui&#45;&gt;:feature:quiz:domain -->
<g id="edge62" class="edge">
<title>:feature:quiz:ui&#45;&gt;:feature:quiz:domain</title>
<path fill="none" stroke="black" d="M2890.69,-147C2920.25,-136.39 2961.19,-121.7 2993.71,-110.02"/>
<polygon fill="black" stroke="black" points="2994.74,-113.37 3002.97,-106.7 2992.37,-106.78 2994.74,-113.37"/>
</g>
<!-- :feature:summary:ui&#45;&gt;:core:ui -->
<g id="edge64" class="edge">
<title>:feature:summary:ui&#45;&gt;:core:ui</title>
<path fill="none" stroke="black" d="M1369.99,-146.92C1415.67,-134.13 1482.37,-115.45 1525.91,-103.26"/>
<polygon fill="black" stroke="black" points="1526.85,-106.63 1535.53,-100.57 1524.96,-99.89 1526.85,-106.63"/>
</g>
<!-- :feature:summary:ui&#45;&gt;:core:common -->
<g id="edge65" class="edge">
<title>:feature:summary:ui&#45;&gt;:core:common</title>
<path fill="none" stroke="black" d="M1300.62,-144.11C1281.34,-125.02 1256.88,-93.78 1275.7,-72 1311.66,-30.37 1465,-20.83 1559.89,-19"/>
<polygon fill="black" stroke="black" points="1559.7,-22.51 1569.65,-18.84 1559.59,-15.51 1559.7,-22.51"/>
</g>
<!-- :feature:editprofile:ui&#45;&gt;:core:ui -->
<g id="edge66" class="edge">
<title>:feature:editprofile:ui&#45;&gt;:core:ui</title>
<path fill="none" stroke="black" d="M3019.69,-152.13C2990.91,-149.08 2957.83,-145.95 2927.7,-144 2363.31,-107.51 2217.73,-171.06 1655.7,-108 1642.36,-106.5 1628.01,-104.02 1614.92,-101.41"/>
<polygon fill="black" stroke="black" points="1615.79,-98.02 1605.29,-99.41 1614.37,-104.87 1615.79,-98.02"/>
</g>
<!-- :feature:editprofile:ui&#45;&gt;:core:common -->
<g id="edge67" class="edge">
<title>:feature:editprofile:ui&#45;&gt;:core:common</title>
<path fill="none" stroke="black" d="M3116.07,-144.2C3137.11,-124.92 3164.18,-93.22 3143.7,-72 3093.6,-20.11 2012.6,-18.28 1713.05,-18.78"/>
<polygon fill="black" stroke="black" points="1713.39,-15.28 1703.4,-18.8 1713.4,-22.28 1713.39,-15.28"/>
</g>
<!-- :feature:editprofile:domain -->
<g id="node30" class="node">
<title>:feature:editprofile:domain</title>
<ellipse fill="none" stroke="black" cx="3301.7" cy="-90" rx="110.72" ry="18"/>
<text text-anchor="middle" x="3301.7" y="-84.95" font-family="Times,serif" font-size="14.00">:feature:editprofile:domain</text>
</g>
<!-- :feature:editprofile:ui&#45;&gt;:feature:editprofile:domain -->
<g id="edge68" class="edge">
<title>:feature:editprofile:ui&#45;&gt;:feature:editprofile:domain</title>
<path fill="none" stroke="black" d="M3139.89,-145.98C3170.48,-135.59 3211.47,-121.66 3244.55,-110.42"/>
<polygon fill="black" stroke="black" points="3245.66,-113.74 3254,-107.21 3243.41,-107.11 3245.66,-113.74"/>
</g>
<!-- :feature:splash:domain&#45;&gt;:core:common -->
<g id="edge19" class="edge">
<title>:feature:splash:domain&#45;&gt;:core:common</title>
<path fill="none" stroke="red" stroke-width="2" d="M1432.63,-74.58C1475.75,-62.84 1536.48,-46.3 1580.47,-34.32"/>
<polygon fill="red" stroke="red" stroke-width="2" points="1579.9,-38.1 1588.63,-32.09 1578.06,-31.34 1579.9,-38.1"/>
</g>
<!-- :feature:welcome:domain&#45;&gt;:core:common -->
<g id="edge23" class="edge">
<title>:feature:welcome:domain&#45;&gt;:core:common</title>
<path fill="none" stroke="black" d="M198.41,-77.07C213.07,-75.1 228.34,-73.29 242.7,-72 743.66,-27.11 1349.23,-20.17 1559.99,-19.15"/>
<polygon fill="black" stroke="black" points="1559.72,-22.66 1569.71,-19.11 1559.69,-15.66 1559.72,-22.66"/>
</g>
<!-- :feature:login:domain&#45;&gt;:core:common -->
<g id="edge27" class="edge">
<title>:feature:login:domain&#45;&gt;:core:common</title>
<path fill="none" stroke="black" d="M441.64,-77.14C454.55,-75.15 468.02,-73.31 480.7,-72 885.87,-30.05 1374.38,-21.3 1560.06,-19.48"/>
<polygon fill="black" stroke="black" points="1559.84,-22.98 1569.8,-19.39 1559.77,-15.98 1559.84,-22.98"/>
</g>
<!-- :feature:register:domain&#45;&gt;:core:common -->
<g id="edge31" class="edge">
<title>:feature:register:domain&#45;&gt;:core:common</title>
<path fill="none" stroke="black" d="M694.94,-77.23C708.77,-75.26 723.16,-73.4 736.7,-72 1041.03,-40.41 1405.37,-26.16 1560.61,-21.19"/>
<polygon fill="black" stroke="black" points="1560.47,-24.7 1570.36,-20.88 1560.25,-17.7 1560.47,-24.7"/>
</g>
<!-- :feature:home:domain&#45;&gt;:core:common -->
<g id="edge35" class="edge">
<title>:feature:home:domain&#45;&gt;:core:common</title>
<path fill="none" stroke="black" d="M939.8,-77.37C952.69,-75.4 966.09,-73.51 978.7,-72 1189.25,-46.83 1439.18,-30.36 1561.57,-23.16"/>
<polygon fill="black" stroke="black" points="1561.72,-26.66 1571.5,-22.58 1561.31,-19.67 1561.72,-26.66"/>
</g>
<!-- :feature:category:domain&#45;&gt;:core:common -->
<g id="edge39" class="edge">
<title>:feature:category:domain&#45;&gt;:core:common</title>
<path fill="none" stroke="black" d="M1202.44,-77.69C1215.86,-75.77 1229.68,-73.81 1242.7,-72 1356.55,-56.14 1489.04,-38.48 1567.71,-28.08"/>
<polygon fill="black" stroke="black" points="1567.97,-31.58 1577.42,-26.8 1567.05,-24.64 1567.97,-31.58"/>
</g>
<!-- :feature:search:domain&#45;&gt;:core:common -->
<g id="edge43" class="edge">
<title>:feature:search:domain&#45;&gt;:core:common</title>
<path fill="none" stroke="black" d="M1731.31,-72.41C1714.15,-62.72 1692.33,-50.4 1673.96,-40.04"/>
<polygon fill="black" stroke="black" points="1675.92,-37.12 1665.49,-35.25 1672.48,-43.22 1675.92,-37.12"/>
</g>
<!-- :feature:favorites:domain&#45;&gt;:core:common -->
<g id="edge47" class="edge">
<title>:feature:favorites:domain&#45;&gt;:core:common</title>
<path fill="none" stroke="black" d="M1948.26,-76.24C1877.81,-63.3 1769.64,-43.43 1701.07,-30.83"/>
<polygon fill="black" stroke="black" points="1701.96,-27.43 1691.49,-29.07 1700.69,-34.32 1701.96,-27.43"/>
</g>
<!-- :feature:leaderboard:domain&#45;&gt;:core:common -->
<g id="edge51" class="edge">
<title>:feature:leaderboard:domain&#45;&gt;:core:common</title>
<path fill="none" stroke="black" d="M2209.43,-77.48C2194.53,-75.57 2179.17,-73.67 2164.7,-72 2002.11,-53.21 1810.91,-34.98 1709.1,-25.58"/>
<polygon fill="black" stroke="black" points="1709.52,-22.1 1699.24,-24.67 1708.88,-29.07 1709.52,-22.1"/>
</g>
<!-- :feature:profile:domain&#45;&gt;:core:common -->
<g id="edge55" class="edge">
<title>:feature:profile:domain&#45;&gt;:core:common</title>
<path fill="none" stroke="black" d="M2493.35,-77.28C2479.88,-75.31 2465.87,-73.43 2452.7,-72 2181.14,-42.44 1856.81,-27.38 1712.45,-21.71"/>
<polygon fill="black" stroke="black" points="1712.77,-18.22 1702.64,-21.33 1712.49,-25.22 1712.77,-18.22"/>
</g>
<!-- :feature:detail:domain&#45;&gt;:core:common -->
<g id="edge59" class="edge">
<title>:feature:detail:domain&#45;&gt;:core:common</title>
<path fill="none" stroke="black" d="M2742.49,-77.19C2729.33,-75.2 2715.6,-73.34 2702.7,-72 2333.17,-33.57 1888.6,-22.83 1713.19,-19.97"/>
<polygon fill="black" stroke="black" points="1713.34,-16.48 1703.29,-19.82 1713.23,-23.48 1713.34,-16.48"/>
</g>
<!-- :feature:quiz:domain&#45;&gt;:core:common -->
<g id="edge63" class="edge">
<title>:feature:quiz:domain&#45;&gt;:core:common</title>
<path fill="none" stroke="black" d="M2983.2,-77.16C2970.49,-75.15 2957.2,-73.29 2944.7,-72 2478.99,-23.95 1915.82,-18.91 1713.59,-18.78"/>
<polygon fill="black" stroke="black" points="1713.74,-15.28 1703.74,-18.77 1713.74,-22.28 1713.74,-15.28"/>
</g>
<!-- :feature:editprofile:domain&#45;&gt;:core:common -->
<g id="edge69" class="edge">
<title>:feature:editprofile:domain&#45;&gt;:core:common</title>
<path fill="none" stroke="black" d="M3222.81,-77.04C3207.54,-75.08 3191.64,-73.27 3176.7,-72 2616.66,-24.4 1938.62,-19.23 1713.46,-18.91"/>
<polygon fill="black" stroke="black" points="1713.65,-15.41 1703.64,-18.9 1713.64,-22.41 1713.65,-15.41"/>
</g>
</g>
</svg>
