<?xml version="1.0" encoding="UTF-8" standalone="no"?>
<!DOCTYPE svg PUBLIC "-//W3C//DTD SVG 1.1//EN"
 "http://www.w3.org/Graphics/SVG/1.1/DTD/svg11.dtd">
<!-- Generated by graphviz version 12.2.1 (20241206.2353)
 -->
<!-- Title: G Pages: 1 -->
<svg width="334pt" height="188pt"
 viewBox="0.00 0.00 333.95 188.00" xmlns="http://www.w3.org/2000/svg" xmlns:xlink="http://www.w3.org/1999/xlink">
<g id="graph0" class="graph" transform="scale(1 1) rotate(0) translate(4 184)">
<title>G</title>
<polygon fill="white" stroke="none" points="-4,4 -4,-184 329.95,-184 329.95,4 -4,4"/>
<!-- :feature:search:ui -->
<g id="node1" class="node">
<title>:feature:search:ui</title>
<ellipse fill="none" stroke="black" cx="106.07" cy="-162" rx="74.89" ry="18"/>
<text text-anchor="middle" x="106.07" y="-156.95" font-family="Times,serif" font-size="14.00">:feature:search:ui</text>
</g>
<!-- :core:ui -->
<g id="node2" class="node">
<title>:core:ui</title>
<ellipse fill="none" stroke="black" cx="39.07" cy="-90" rx="39.07" ry="18"/>
<text text-anchor="middle" x="39.07" y="-84.95" font-family="Times,serif" font-size="14.00">:core:ui</text>
</g>
<!-- :feature:search:ui&#45;&gt;:core:ui -->
<g id="edge1" class="edge">
<title>:feature:search:ui&#45;&gt;:core:ui</title>
<path fill="none" stroke="black" d="M89.85,-144.05C81.46,-135.29 71.08,-124.45 61.9,-114.86"/>
<polygon fill="black" stroke="black" points="64.71,-112.73 55.27,-107.92 59.65,-117.57 64.71,-112.73"/>
</g>
<!-- :core:common -->
<g id="node3" class="node">
<title>:core:common</title>
<ellipse fill="none" stroke="black" cx="168.07" cy="-18" rx="65.17" ry="18"/>
<text text-anchor="middle" x="168.07" y="-12.95" font-family="Times,serif" font-size="14.00">:core:common</text>
</g>
<!-- :feature:search:ui&#45;&gt;:core:common -->
<g id="edge2" class="edge">
<title>:feature:search:ui&#45;&gt;:core:common</title>
<path fill="none" stroke="black" d="M107.34,-143.84C109.24,-125.33 113.89,-95.38 125.07,-72 129.8,-62.11 136.73,-52.44 143.65,-44.13"/>
<polygon fill="black" stroke="black" points="146.08,-46.66 150.05,-36.84 140.82,-42.05 146.08,-46.66"/>
</g>
<!-- :feature:search:domain -->
<g id="node4" class="node">
<title>:feature:search:domain</title>
<ellipse fill="none" stroke="black" cx="230.07" cy="-90" rx="95.88" ry="18"/>
<text text-anchor="middle" x="230.07" y="-84.95" font-family="Times,serif" font-size="14.00">:feature:search:domain</text>
</g>
<!-- :feature:search:ui&#45;&gt;:feature:search:domain -->
<g id="edge3" class="edge">
<title>:feature:search:ui&#45;&gt;:feature:search:domain</title>
<path fill="none" stroke="red" stroke-width="2" d="M134.52,-144.94C151.29,-135.47 172.75,-123.36 191.08,-113.01"/>
<polygon fill="red" stroke="red" stroke-width="2" points="191.27,-116.92 198.26,-108.96 187.83,-110.83 191.27,-116.92"/>
</g>
<!-- :feature:search:domain&#45;&gt;:core:common -->
<g id="edge4" class="edge">
<title>:feature:search:domain&#45;&gt;:core:common</title>
<path fill="none" stroke="red" stroke-width="2" d="M215.06,-72.05C207.67,-63.71 198.62,-53.49 190.43,-44.25"/>
<polygon fill="red" stroke="red" stroke-width="2" points="194.2,-43.22 184.95,-38.06 188.96,-47.86 194.2,-43.22"/>
</g>
</g>
</svg>
