<?xml version="1.0" encoding="UTF-8" standalone="no"?>
<!DOCTYPE svg PUBLIC "-//W3C//DTD SVG 1.1//EN"
 "http://www.w3.org/Graphics/SVG/1.1/DTD/svg11.dtd">
<!-- Generated by graphviz version 12.2.1 (20241206.2353)
 -->
<!-- Title: G Pages: 1 -->
<svg width="639pt" height="188pt"
 viewBox="0.00 0.00 638.54 188.00" xmlns="http://www.w3.org/2000/svg" xmlns:xlink="http://www.w3.org/1999/xlink">
<g id="graph0" class="graph" transform="scale(1 1) rotate(0) translate(4 184)">
<title>G</title>
<polygon fill="white" stroke="none" points="-4,4 -4,-184 634.54,-184 634.54,4 -4,4"/>
<!-- :feature:login:data -->
<g id="node1" class="node">
<title>:feature:login:data</title>
<ellipse fill="none" stroke="black" cx="323.1" cy="-162" rx="78.48" ry="18"/>
<text text-anchor="middle" x="323.1" y="-156.95" font-family="Times,serif" font-size="14.00">:feature:login:data</text>
</g>
<!-- :feature:login:domain -->
<g id="node2" class="node">
<title>:feature:login:domain</title>
<ellipse fill="none" stroke="black" cx="107.1" cy="-90" rx="91.27" ry="18"/>
<text text-anchor="middle" x="107.1" y="-84.95" font-family="Times,serif" font-size="14.00">:feature:login:domain</text>
</g>
<!-- :feature:login:data&#45;&gt;:feature:login:domain -->
<g id="edge1" class="edge">
<title>:feature:login:data&#45;&gt;:feature:login:domain</title>
<path fill="none" stroke="red" stroke-width="2" d="M279.13,-146.75C245.93,-135.99 200.09,-121.14 164.08,-109.47"/>
<polygon fill="red" stroke="red" stroke-width="2" points="166.72,-106.64 156.13,-106.89 164.56,-113.3 166.72,-106.64"/>
</g>
<!-- :core:network -->
<g id="node3" class="node">
<title>:core:network</title>
<ellipse fill="none" stroke="black" cx="278.1" cy="-90" rx="62.1" ry="18"/>
<text text-anchor="middle" x="278.1" y="-84.95" font-family="Times,serif" font-size="14.00">:core:network</text>
</g>
<!-- :feature:login:data&#45;&gt;:core:network -->
<g id="edge2" class="edge">
<title>:feature:login:data&#45;&gt;:core:network</title>
<path fill="none" stroke="black" d="M311.98,-143.7C306.91,-135.81 300.8,-126.3 295.17,-117.55"/>
<polygon fill="black" stroke="black" points="298.27,-115.9 289.91,-109.38 292.38,-119.68 298.27,-115.9"/>
</g>
<!-- :core:common -->
<g id="node4" class="node">
<title>:core:common</title>
<ellipse fill="none" stroke="black" cx="107.1" cy="-18" rx="65.17" ry="18"/>
<text text-anchor="middle" x="107.1" y="-12.95" font-family="Times,serif" font-size="14.00">:core:common</text>
</g>
<!-- :feature:login:data&#45;&gt;:core:common -->
<g id="edge3" class="edge">
<title>:feature:login:data&#45;&gt;:core:common</title>
<path fill="none" stroke="black" d="M245.2,-159.06C161.69,-155.14 37.02,-143.35 7.1,-108 -3.24,-95.79 -1.15,-85.71 7.1,-72 17.09,-55.39 34.23,-43.72 51.53,-35.63"/>
<polygon fill="black" stroke="black" points="52.47,-39.04 60.28,-31.88 49.71,-32.6 52.47,-39.04"/>
</g>
<!-- :core:datastore -->
<g id="node5" class="node">
<title>:core:datastore</title>
<ellipse fill="none" stroke="black" cx="266.1" cy="-18" rx="65.17" ry="18"/>
<text text-anchor="middle" x="266.1" y="-12.95" font-family="Times,serif" font-size="14.00">:core:datastore</text>
</g>
<!-- :feature:login:data&#45;&gt;:core:datastore -->
<g id="edge4" class="edge">
<title>:feature:login:data&#45;&gt;:core:datastore</title>
<path fill="none" stroke="black" d="M335.68,-143.75C347.55,-125.17 361.79,-95.15 349.1,-72 341.23,-57.64 327.64,-46.61 313.7,-38.42"/>
<polygon fill="black" stroke="black" points="315.37,-35.35 304.9,-33.68 312.04,-41.51 315.37,-35.35"/>
</g>
<!-- :core:datasource:logout -->
<g id="node6" class="node">
<title>:core:datasource:logout</title>
<ellipse fill="none" stroke="black" cx="447.1" cy="-18" rx="97.41" ry="18"/>
<text text-anchor="middle" x="447.1" y="-12.95" font-family="Times,serif" font-size="14.00">:core:datasource:logout</text>
</g>
<!-- :feature:login:data&#45;&gt;:core:datasource:logout -->
<g id="edge5" class="edge">
<title>:feature:login:data&#45;&gt;:core:datasource:logout</title>
<path fill="none" stroke="black" d="M338.06,-143.87C359.66,-119.14 399.73,-73.24 424.82,-44.51"/>
<polygon fill="black" stroke="black" points="427.15,-47.16 431.09,-37.33 421.88,-42.56 427.15,-47.16"/>
</g>
<!-- :core:datasource:profile -->
<g id="node7" class="node">
<title>:core:datasource:profile</title>
<ellipse fill="none" stroke="black" cx="532.1" cy="-90" rx="98.44" ry="18"/>
<text text-anchor="middle" x="532.1" y="-84.95" font-family="Times,serif" font-size="14.00">:core:datasource:profile</text>
</g>
<!-- :feature:login:data&#45;&gt;:core:datasource:profile -->
<g id="edge6" class="edge">
<title>:feature:login:data&#45;&gt;:core:datasource:profile</title>
<path fill="none" stroke="black" d="M366.15,-146.58C397.74,-136 440.96,-121.53 475.37,-110"/>
<polygon fill="black" stroke="black" points="476.4,-113.35 484.77,-106.85 474.18,-106.71 476.4,-113.35"/>
</g>
<!-- :feature:login:domain&#45;&gt;:core:common -->
<g id="edge7" class="edge">
<title>:feature:login:domain&#45;&gt;:core:common</title>
<path fill="none" stroke="red" stroke-width="2" d="M107.1,-71.7C107.1,-64.41 107.1,-55.73 107.1,-47.54"/>
<polygon fill="red" stroke="red" stroke-width="2" points="110.6,-49.13 107.1,-39.13 103.6,-49.13 110.6,-49.13"/>
</g>
<!-- :core:network&#45;&gt;:core:common -->
<g id="edge8" class="edge">
<title>:core:network&#45;&gt;:core:common</title>
<path fill="none" stroke="black" d="M243.08,-74.67C217,-63.99 181.16,-49.32 152.82,-37.72"/>
<polygon fill="black" stroke="black" points="154.34,-34.56 143.76,-34.01 151.69,-41.04 154.34,-34.56"/>
</g>
<!-- :core:network&#45;&gt;:core:datastore -->
<g id="edge9" class="edge">
<title>:core:network&#45;&gt;:core:datastore</title>
<path fill="none" stroke="black" d="M275.13,-71.7C273.87,-64.32 272.36,-55.52 270.94,-47.25"/>
<polygon fill="black" stroke="black" points="274.43,-46.86 269.29,-37.6 267.53,-48.04 274.43,-46.86"/>
</g>
<!-- :core:network&#45;&gt;:core:datasource:logout -->
<g id="edge10" class="edge">
<title>:core:network&#45;&gt;:core:datasource:logout</title>
<path fill="none" stroke="black" d="M312.71,-74.67C337.35,-64.46 370.8,-50.6 398.17,-39.27"/>
<polygon fill="black" stroke="black" points="399.41,-42.54 407.31,-35.48 396.73,-36.07 399.41,-42.54"/>
</g>
</g>
</svg>
