<?xml version="1.0" encoding="UTF-8" standalone="no"?>
<!DOCTYPE svg PUBLIC "-//W3C//DTD SVG 1.1//EN"
 "http://www.w3.org/Graphics/SVG/1.1/DTD/svg11.dtd">
<!-- Generated by graphviz version 12.2.1 (20241206.2353)
 -->
<!-- Title: G Pages: 1 -->
<svg width="591pt" height="188pt"
 viewBox="0.00 0.00 590.73 188.00" xmlns="http://www.w3.org/2000/svg" xmlns:xlink="http://www.w3.org/1999/xlink">
<g id="graph0" class="graph" transform="scale(1 1) rotate(0) translate(4 184)">
<title>G</title>
<polygon fill="white" stroke="none" points="-4,4 -4,-184 586.73,-184 586.73,4 -4,4"/>
<!-- :feature:home:data -->
<g id="node1" class="node">
<title>:feature:home:data</title>
<ellipse fill="none" stroke="black" cx="259.32" cy="-162" rx="80.52" ry="18"/>
<text text-anchor="middle" x="259.32" y="-156.95" font-family="Times,serif" font-size="14.00">:feature:home:data</text>
</g>
<!-- :feature:home:domain -->
<g id="node2" class="node">
<title>:feature:home:domain</title>
<ellipse fill="none" stroke="black" cx="93.32" cy="-90" rx="93.32" ry="18"/>
<text text-anchor="middle" x="93.32" y="-84.95" font-family="Times,serif" font-size="14.00">:feature:home:domain</text>
</g>
<!-- :feature:home:data&#45;&gt;:feature:home:domain -->
<g id="edge1" class="edge">
<title>:feature:home:data&#45;&gt;:feature:home:domain</title>
<path fill="none" stroke="red" stroke-width="2" d="M222.89,-145.64C198.98,-135.56 167.46,-122.26 141.49,-111.31"/>
<polygon fill="red" stroke="red" stroke-width="2" points="144.47,-108.77 133.89,-108.11 141.75,-115.22 144.47,-108.77"/>
</g>
<!-- :core:network -->
<g id="node3" class="node">
<title>:core:network</title>
<ellipse fill="none" stroke="black" cx="304.32" cy="-90" rx="62.1" ry="18"/>
<text text-anchor="middle" x="304.32" y="-84.95" font-family="Times,serif" font-size="14.00">:core:network</text>
</g>
<!-- :feature:home:data&#45;&gt;:core:network -->
<g id="edge2" class="edge">
<title>:feature:home:data&#45;&gt;:core:network</title>
<path fill="none" stroke="black" d="M270.44,-143.7C275.51,-135.81 281.62,-126.3 287.25,-117.55"/>
<polygon fill="black" stroke="black" points="290.04,-119.68 292.51,-109.38 284.15,-115.9 290.04,-119.68"/>
</g>
<!-- :core:common -->
<g id="node4" class="node">
<title>:core:common</title>
<ellipse fill="none" stroke="black" cx="156.32" cy="-18" rx="65.17" ry="18"/>
<text text-anchor="middle" x="156.32" y="-12.95" font-family="Times,serif" font-size="14.00">:core:common</text>
</g>
<!-- :feature:home:data&#45;&gt;:core:common -->
<g id="edge3" class="edge">
<title>:feature:home:data&#45;&gt;:core:common</title>
<path fill="none" stroke="black" d="M247.11,-143.9C234.27,-125.95 213.46,-96.93 195.32,-72 188.97,-63.27 182,-53.77 175.73,-45.26"/>
<polygon fill="black" stroke="black" points="178.66,-43.34 169.91,-37.37 173.03,-47.49 178.66,-43.34"/>
</g>
<!-- :core:datasource:profile -->
<g id="node5" class="node">
<title>:core:datasource:profile</title>
<ellipse fill="none" stroke="black" cx="483.32" cy="-90" rx="98.44" ry="18"/>
<text text-anchor="middle" x="483.32" y="-84.95" font-family="Times,serif" font-size="14.00">:core:datasource:profile</text>
</g>
<!-- :feature:home:data&#45;&gt;:core:datasource:profile -->
<g id="edge4" class="edge">
<title>:feature:home:data&#45;&gt;:core:datasource:profile</title>
<path fill="none" stroke="black" d="M304.92,-146.75C339.38,-135.98 386.97,-121.11 424.33,-109.43"/>
<polygon fill="black" stroke="black" points="425.13,-112.85 433.63,-106.53 423.04,-106.17 425.13,-112.85"/>
</g>
<!-- :feature:home:domain&#45;&gt;:core:common -->
<g id="edge5" class="edge">
<title>:feature:home:domain&#45;&gt;:core:common</title>
<path fill="none" stroke="red" stroke-width="2" d="M108.57,-72.05C116.08,-63.71 125.28,-53.49 133.59,-44.25"/>
<polygon fill="red" stroke="red" stroke-width="2" points="135.1,-47.81 139.18,-38.04 129.89,-43.13 135.1,-47.81"/>
</g>
<!-- :core:network&#45;&gt;:core:common -->
<g id="edge6" class="edge">
<title>:core:network&#45;&gt;:core:common</title>
<path fill="none" stroke="black" d="M272.93,-74.15C251.2,-63.88 222.03,-50.08 198.31,-38.86"/>
<polygon fill="black" stroke="black" points="200.08,-35.82 189.54,-34.71 197.08,-42.15 200.08,-35.82"/>
</g>
<!-- :core:datastore -->
<g id="node6" class="node">
<title>:core:datastore</title>
<ellipse fill="none" stroke="black" cx="304.32" cy="-18" rx="65.17" ry="18"/>
<text text-anchor="middle" x="304.32" y="-12.95" font-family="Times,serif" font-size="14.00">:core:datastore</text>
</g>
<!-- :core:network&#45;&gt;:core:datastore -->
<g id="edge7" class="edge">
<title>:core:network&#45;&gt;:core:datastore</title>
<path fill="none" stroke="black" d="M304.32,-71.7C304.32,-64.41 304.32,-55.73 304.32,-47.54"/>
<polygon fill="black" stroke="black" points="307.82,-47.62 304.32,-37.62 300.82,-47.62 307.82,-47.62"/>
</g>
<!-- :core:datasource:logout -->
<g id="node7" class="node">
<title>:core:datasource:logout</title>
<ellipse fill="none" stroke="black" cx="485.32" cy="-18" rx="97.41" ry="18"/>
<text text-anchor="middle" x="485.32" y="-12.95" font-family="Times,serif" font-size="14.00">:core:datasource:logout</text>
</g>
<!-- :core:network&#45;&gt;:core:datasource:logout -->
<g id="edge8" class="edge">
<title>:core:network&#45;&gt;:core:datasource:logout</title>
<path fill="none" stroke="black" d="M340.51,-75C367.25,-64.66 404.02,-50.44 433.82,-38.92"/>
<polygon fill="black" stroke="black" points="434.98,-42.22 443.04,-35.35 432.45,-35.69 434.98,-42.22"/>
</g>
</g>
</svg>
