<?xml version="1.0" encoding="UTF-8" standalone="no"?>
<!DOCTYPE svg PUBLIC "-//W3C//DTD SVG 1.1//EN"
 "http://www.w3.org/Graphics/SVG/1.1/DTD/svg11.dtd">
<!-- Generated by graphviz version 12.2.1 (20241206.2353)
 -->
<!-- Title: G Pages: 1 -->
<svg width="364pt" height="188pt"
 viewBox="0.00 0.00 363.79 188.00" xmlns="http://www.w3.org/2000/svg" xmlns:xlink="http://www.w3.org/1999/xlink">
<g id="graph0" class="graph" transform="scale(1 1) rotate(0) translate(4 184)">
<title>G</title>
<polygon fill="white" stroke="none" points="-4,4 -4,-184 359.79,-184 359.79,4 -4,4"/>
<!-- :feature:editprofile:ui -->
<g id="node1" class="node">
<title>:feature:editprofile:ui</title>
<ellipse fill="none" stroke="black" cx="106.07" cy="-162" rx="89.74" ry="18"/>
<text text-anchor="middle" x="106.07" y="-156.95" font-family="Times,serif" font-size="14.00">:feature:editprofile:ui</text>
</g>
<!-- :core:ui -->
<g id="node2" class="node">
<title>:core:ui</title>
<ellipse fill="none" stroke="black" cx="39.07" cy="-90" rx="39.07" ry="18"/>
<text text-anchor="middle" x="39.07" y="-84.95" font-family="Times,serif" font-size="14.00">:core:ui</text>
</g>
<!-- :feature:editprofile:ui&#45;&gt;:core:ui -->
<g id="edge1" class="edge">
<title>:feature:editprofile:ui&#45;&gt;:core:ui</title>
<path fill="none" stroke="black" d="M89.85,-144.05C81.46,-135.29 71.08,-124.45 61.9,-114.86"/>
<polygon fill="black" stroke="black" points="64.71,-112.73 55.27,-107.92 59.65,-117.57 64.71,-112.73"/>
</g>
<!-- :core:common -->
<g id="node3" class="node">
<title>:core:common</title>
<ellipse fill="none" stroke="black" cx="175.07" cy="-18" rx="65.17" ry="18"/>
<text text-anchor="middle" x="175.07" y="-12.95" font-family="Times,serif" font-size="14.00">:core:common</text>
</g>
<!-- :feature:editprofile:ui&#45;&gt;:core:common -->
<g id="edge2" class="edge">
<title>:feature:editprofile:ui&#45;&gt;:core:common</title>
<path fill="none" stroke="black" d="M107,-143.67C108.62,-125.02 113.03,-94.94 125.07,-72 130.58,-61.5 138.76,-51.58 146.91,-43.23"/>
<polygon fill="black" stroke="black" points="149.13,-45.96 153.87,-36.49 144.26,-40.93 149.13,-45.96"/>
</g>
<!-- :feature:editprofile:domain -->
<g id="node4" class="node">
<title>:feature:editprofile:domain</title>
<ellipse fill="none" stroke="black" cx="245.07" cy="-90" rx="110.72" ry="18"/>
<text text-anchor="middle" x="245.07" y="-84.95" font-family="Times,serif" font-size="14.00">:feature:editprofile:domain</text>
</g>
<!-- :feature:editprofile:ui&#45;&gt;:feature:editprofile:domain -->
<g id="edge3" class="edge">
<title>:feature:editprofile:ui&#45;&gt;:feature:editprofile:domain</title>
<path fill="none" stroke="red" stroke-width="2" d="M138.31,-144.76C157.24,-135.23 181.42,-123.05 201.97,-112.7"/>
<polygon fill="red" stroke="red" stroke-width="2" points="201.98,-116.62 209.34,-108.99 198.83,-110.37 201.98,-116.62"/>
</g>
<!-- :feature:editprofile:domain&#45;&gt;:core:common -->
<g id="edge4" class="edge">
<title>:feature:editprofile:domain&#45;&gt;:core:common</title>
<path fill="none" stroke="red" stroke-width="2" d="M228.12,-72.05C219.61,-63.54 209.14,-53.07 199.75,-43.68"/>
<polygon fill="red" stroke="red" stroke-width="2" points="203.54,-42.53 194,-37.93 198.59,-47.48 203.54,-42.53"/>
</g>
</g>
</svg>
