<?xml version="1.0" encoding="UTF-8" standalone="no"?>
<!DOCTYPE svg PUBLIC "-//W3C//DTD SVG 1.1//EN"
 "http://www.w3.org/Graphics/SVG/1.1/DTD/svg11.dtd">
<!-- Generated by graphviz version 12.2.1 (20241206.2353)
 -->
<!-- Title: G Pages: 1 -->
<svg width="375pt" height="188pt"
 viewBox="0.00 0.00 375.15 188.00" xmlns="http://www.w3.org/2000/svg" xmlns:xlink="http://www.w3.org/1999/xlink">
<g id="graph0" class="graph" transform="scale(1 1) rotate(0) translate(4 184)">
<title>G</title>
<polygon fill="white" stroke="none" points="-4,4 -4,-184 371.15,-184 371.15,4 -4,4"/>
<!-- :feature:register:data -->
<g id="node1" class="node">
<title>:feature:register:data</title>
<ellipse fill="none" stroke="black" cx="279.97" cy="-162" rx="87.18" ry="18"/>
<text text-anchor="middle" x="279.97" y="-156.95" font-family="Times,serif" font-size="14.00">:feature:register:data</text>
</g>
<!-- :feature:register:domain -->
<g id="node2" class="node">
<title>:feature:register:domain</title>
<ellipse fill="none" stroke="black" cx="99.97" cy="-90" rx="99.97" ry="18"/>
<text text-anchor="middle" x="99.97" y="-84.95" font-family="Times,serif" font-size="14.00">:feature:register:domain</text>
</g>
<!-- :feature:register:data&#45;&gt;:feature:register:domain -->
<g id="edge1" class="edge">
<title>:feature:register:data&#45;&gt;:feature:register:domain</title>
<path fill="none" stroke="red" stroke-width="2" d="M240.47,-145.64C214.23,-135.43 179.51,-121.93 151.16,-110.9"/>
<polygon fill="red" stroke="red" stroke-width="2" points="154.04,-108.27 143.45,-107.91 151.5,-114.79 154.04,-108.27"/>
</g>
<!-- :core:network -->
<g id="node3" class="node">
<title>:core:network</title>
<ellipse fill="none" stroke="black" cx="279.97" cy="-90" rx="62.1" ry="18"/>
<text text-anchor="middle" x="279.97" y="-84.95" font-family="Times,serif" font-size="14.00">:core:network</text>
</g>
<!-- :feature:register:data&#45;&gt;:core:network -->
<g id="edge2" class="edge">
<title>:feature:register:data&#45;&gt;:core:network</title>
<path fill="none" stroke="black" d="M279.97,-143.7C279.97,-136.41 279.97,-127.73 279.97,-119.54"/>
<polygon fill="black" stroke="black" points="283.47,-119.62 279.97,-109.62 276.47,-119.62 283.47,-119.62"/>
</g>
<!-- :core:common -->
<g id="node4" class="node">
<title>:core:common</title>
<ellipse fill="none" stroke="black" cx="234.97" cy="-18" rx="65.17" ry="18"/>
<text text-anchor="middle" x="234.97" y="-12.95" font-family="Times,serif" font-size="14.00">:core:common</text>
</g>
<!-- :feature:register:data&#45;&gt;:core:common -->
<g id="edge3" class="edge">
<title>:feature:register:data&#45;&gt;:core:common</title>
<path fill="none" stroke="black" d="M313.28,-145.1C327.65,-136.33 342.98,-123.95 350.97,-108 358.14,-93.7 359.62,-85.46 350.97,-72 338.84,-53.12 318.14,-40.89 297.55,-32.99"/>
<polygon fill="black" stroke="black" points="298.87,-29.74 288.27,-29.74 296.56,-36.35 298.87,-29.74"/>
</g>
<!-- :feature:register:domain&#45;&gt;:core:common -->
<g id="edge4" class="edge">
<title>:feature:register:domain&#45;&gt;:core:common</title>
<path fill="none" stroke="red" stroke-width="2" d="M131.62,-72.59C150.61,-62.75 174.91,-50.14 195.19,-39.63"/>
<polygon fill="red" stroke="red" stroke-width="2" points="195.42,-43.45 202.68,-35.74 192.19,-37.24 195.42,-43.45"/>
</g>
</g>
</svg>
