<?xml version="1.0" encoding="UTF-8" standalone="no"?>
<!DOCTYPE svg PUBLIC "-//W3C//DTD SVG 1.1//EN"
 "http://www.w3.org/Graphics/SVG/1.1/DTD/svg11.dtd">
<!-- Generated by graphviz version 12.2.1 (20241206.2353)
 -->
<!-- Title: G Pages: 1 -->
<svg width="332pt" height="188pt"
 viewBox="0.00 0.00 332.43 188.00" xmlns="http://www.w3.org/2000/svg" xmlns:xlink="http://www.w3.org/1999/xlink">
<g id="graph0" class="graph" transform="scale(1 1) rotate(0) translate(4 184)">
<title>G</title>
<polygon fill="white" stroke="none" points="-4,4 -4,-184 328.43,-184 328.43,4 -4,4"/>
<!-- :feature:splash:ui -->
<g id="node1" class="node">
<title>:feature:splash:ui</title>
<ellipse fill="none" stroke="black" cx="106.07" cy="-162" rx="74.38" ry="18"/>
<text text-anchor="middle" x="106.07" y="-156.95" font-family="Times,serif" font-size="14.00">:feature:splash:ui</text>
</g>
<!-- :core:ui -->
<g id="node2" class="node">
<title>:core:ui</title>
<ellipse fill="none" stroke="black" cx="39.07" cy="-90" rx="39.07" ry="18"/>
<text text-anchor="middle" x="39.07" y="-84.95" font-family="Times,serif" font-size="14.00">:core:ui</text>
</g>
<!-- :feature:splash:ui&#45;&gt;:core:ui -->
<g id="edge1" class="edge">
<title>:feature:splash:ui&#45;&gt;:core:ui</title>
<path fill="none" stroke="black" d="M89.85,-144.05C81.46,-135.29 71.08,-124.45 61.9,-114.86"/>
<polygon fill="black" stroke="black" points="64.71,-112.73 55.27,-107.92 59.65,-117.57 64.71,-112.73"/>
</g>
<!-- :core:common -->
<g id="node3" class="node">
<title>:core:common</title>
<ellipse fill="none" stroke="black" cx="167.07" cy="-18" rx="65.17" ry="18"/>
<text text-anchor="middle" x="167.07" y="-12.95" font-family="Times,serif" font-size="14.00">:core:common</text>
</g>
<!-- :feature:splash:ui&#45;&gt;:core:common -->
<g id="edge2" class="edge">
<title>:feature:splash:ui&#45;&gt;:core:common</title>
<path fill="none" stroke="black" d="M107.42,-143.52C109.39,-125.01 114.09,-95.3 125.07,-72 129.65,-62.28 136.32,-52.73 143.01,-44.48"/>
<polygon fill="black" stroke="black" points="145.63,-46.79 149.47,-36.92 140.31,-42.25 145.63,-46.79"/>
</g>
<!-- :feature:splash:domain -->
<g id="node4" class="node">
<title>:feature:splash:domain</title>
<ellipse fill="none" stroke="black" cx="229.07" cy="-90" rx="95.37" ry="18"/>
<text text-anchor="middle" x="229.07" y="-84.95" font-family="Times,serif" font-size="14.00">:feature:splash:domain</text>
</g>
<!-- :feature:splash:ui&#45;&gt;:feature:splash:domain -->
<g id="edge3" class="edge">
<title>:feature:splash:ui&#45;&gt;:feature:splash:domain</title>
<path fill="none" stroke="red" stroke-width="2" d="M134.29,-144.94C150.85,-135.52 172.01,-123.47 190.14,-113.15"/>
<polygon fill="red" stroke="red" stroke-width="2" points="190.54,-116.96 197.5,-108.97 187.07,-110.87 190.54,-116.96"/>
</g>
<!-- :feature:splash:domain&#45;&gt;:core:common -->
<g id="edge4" class="edge">
<title>:feature:splash:domain&#45;&gt;:core:common</title>
<path fill="none" stroke="red" stroke-width="2" d="M214.06,-72.05C206.67,-63.71 197.62,-53.49 189.43,-44.25"/>
<polygon fill="red" stroke="red" stroke-width="2" points="193.2,-43.22 183.95,-38.06 187.96,-47.86 193.2,-43.22"/>
</g>
</g>
</svg>
