<?xml version="1.0" encoding="UTF-8" standalone="no"?>
<!DOCTYPE svg PUBLIC "-//W3C//DTD SVG 1.1//EN"
 "http://www.w3.org/Graphics/SVG/1.1/DTD/svg11.dtd">
<!-- Generated by graphviz version 12.2.1 (20241206.2353)
 -->
<!-- Title: G Pages: 1 -->
<svg width="342pt" height="188pt"
 viewBox="0.00 0.00 342.04 188.00" xmlns="http://www.w3.org/2000/svg" xmlns:xlink="http://www.w3.org/1999/xlink">
<g id="graph0" class="graph" transform="scale(1 1) rotate(0) translate(4 184)">
<title>G</title>
<polygon fill="white" stroke="none" points="-4,4 -4,-184 338.04,-184 338.04,4 -4,4"/>
<!-- :feature:register:ui -->
<g id="node1" class="node">
<title>:feature:register:ui</title>
<ellipse fill="none" stroke="black" cx="106.07" cy="-162" rx="78.99" ry="18"/>
<text text-anchor="middle" x="106.07" y="-156.95" font-family="Times,serif" font-size="14.00">:feature:register:ui</text>
</g>
<!-- :core:ui -->
<g id="node2" class="node">
<title>:core:ui</title>
<ellipse fill="none" stroke="black" cx="39.07" cy="-90" rx="39.07" ry="18"/>
<text text-anchor="middle" x="39.07" y="-84.95" font-family="Times,serif" font-size="14.00">:core:ui</text>
</g>
<!-- :feature:register:ui&#45;&gt;:core:ui -->
<g id="edge1" class="edge">
<title>:feature:register:ui&#45;&gt;:core:ui</title>
<path fill="none" stroke="black" d="M89.85,-144.05C81.46,-135.29 71.08,-124.45 61.9,-114.86"/>
<polygon fill="black" stroke="black" points="64.71,-112.73 55.27,-107.92 59.65,-117.57 64.71,-112.73"/>
</g>
<!-- :core:common -->
<g id="node3" class="node">
<title>:core:common</title>
<ellipse fill="none" stroke="black" cx="170.07" cy="-18" rx="65.17" ry="18"/>
<text text-anchor="middle" x="170.07" y="-12.95" font-family="Times,serif" font-size="14.00">:core:common</text>
</g>
<!-- :feature:register:ui&#45;&gt;:core:common -->
<g id="edge2" class="edge">
<title>:feature:register:ui&#45;&gt;:core:common</title>
<path fill="none" stroke="black" d="M107.23,-143.79C109.05,-125.24 113.63,-95.25 125.07,-72 130,-61.98 137.24,-52.28 144.49,-43.97"/>
<polygon fill="black" stroke="black" points="147.01,-46.4 151.21,-36.68 141.86,-41.66 147.01,-46.4"/>
</g>
<!-- :feature:register:domain -->
<g id="node4" class="node">
<title>:feature:register:domain</title>
<ellipse fill="none" stroke="black" cx="234.07" cy="-90" rx="99.97" ry="18"/>
<text text-anchor="middle" x="234.07" y="-84.95" font-family="Times,serif" font-size="14.00">:feature:register:domain</text>
</g>
<!-- :feature:register:ui&#45;&gt;:feature:register:domain -->
<g id="edge3" class="edge">
<title>:feature:register:ui&#45;&gt;:feature:register:domain</title>
<path fill="none" stroke="red" stroke-width="2" d="M135.43,-144.94C152.83,-135.43 175.1,-123.25 194.08,-112.87"/>
<polygon fill="red" stroke="red" stroke-width="2" points="194.2,-116.79 201.29,-108.92 190.84,-110.65 194.2,-116.79"/>
</g>
<!-- :feature:register:domain&#45;&gt;:core:common -->
<g id="edge4" class="edge">
<title>:feature:register:domain&#45;&gt;:core:common</title>
<path fill="none" stroke="red" stroke-width="2" d="M218.58,-72.05C210.95,-63.71 201.6,-53.49 193.16,-44.25"/>
<polygon fill="red" stroke="red" stroke-width="2" points="196.79,-43.04 187.46,-38.02 191.63,-47.77 196.79,-43.04"/>
</g>
</g>
</svg>
