<?xml version="1.0" encoding="UTF-8" standalone="no"?>
<!DOCTYPE svg PUBLIC "-//W3C//DTD SVG 1.1//EN"
 "http://www.w3.org/Graphics/SVG/1.1/DTD/svg11.dtd">
<!-- Generated by graphviz version 12.2.1 (20241206.2353)
 -->
<!-- Title: G Pages: 1 -->
<svg width="352pt" height="188pt"
 viewBox="0.00 0.00 351.65 188.00" xmlns="http://www.w3.org/2000/svg" xmlns:xlink="http://www.w3.org/1999/xlink">
<g id="graph0" class="graph" transform="scale(1 1) rotate(0) translate(4 184)">
<title>G</title>
<polygon fill="white" stroke="none" points="-4,4 -4,-184 347.65,-184 347.65,4 -4,4"/>
<!-- :feature:favorites:ui -->
<g id="node1" class="node">
<title>:feature:favorites:ui</title>
<ellipse fill="none" stroke="black" cx="106.07" cy="-162" rx="83.6" ry="18"/>
<text text-anchor="middle" x="106.07" y="-156.95" font-family="Times,serif" font-size="14.00">:feature:favorites:ui</text>
</g>
<!-- :core:ui -->
<g id="node2" class="node">
<title>:core:ui</title>
<ellipse fill="none" stroke="black" cx="39.07" cy="-90" rx="39.07" ry="18"/>
<text text-anchor="middle" x="39.07" y="-84.95" font-family="Times,serif" font-size="14.00">:core:ui</text>
</g>
<!-- :feature:favorites:ui&#45;&gt;:core:ui -->
<g id="edge1" class="edge">
<title>:feature:favorites:ui&#45;&gt;:core:ui</title>
<path fill="none" stroke="black" d="M89.85,-144.05C81.46,-135.29 71.08,-124.45 61.9,-114.86"/>
<polygon fill="black" stroke="black" points="64.71,-112.73 55.27,-107.92 59.65,-117.57 64.71,-112.73"/>
</g>
<!-- :core:common -->
<g id="node3" class="node">
<title>:core:common</title>
<ellipse fill="none" stroke="black" cx="172.07" cy="-18" rx="65.17" ry="18"/>
<text text-anchor="middle" x="172.07" y="-12.95" font-family="Times,serif" font-size="14.00">:core:common</text>
</g>
<!-- :feature:favorites:ui&#45;&gt;:core:common -->
<g id="edge2" class="edge">
<title>:feature:favorites:ui&#45;&gt;:core:common</title>
<path fill="none" stroke="black" d="M107.14,-143.74C108.87,-125.15 113.38,-95.13 125.07,-72 130.25,-61.74 137.92,-51.9 145.57,-43.54"/>
<polygon fill="black" stroke="black" points="147.94,-46.13 152.37,-36.51 142.9,-41.27 147.94,-46.13"/>
</g>
<!-- :feature:favorites:domain -->
<g id="node4" class="node">
<title>:feature:favorites:domain</title>
<ellipse fill="none" stroke="black" cx="239.07" cy="-90" rx="104.58" ry="18"/>
<text text-anchor="middle" x="239.07" y="-84.95" font-family="Times,serif" font-size="14.00">:feature:favorites:domain</text>
</g>
<!-- :feature:favorites:ui&#45;&gt;:feature:favorites:domain -->
<g id="edge3" class="edge">
<title>:feature:favorites:ui&#45;&gt;:feature:favorites:domain</title>
<path fill="none" stroke="red" stroke-width="2" d="M136.58,-144.94C154.74,-135.39 178.01,-123.13 197.79,-112.72"/>
<polygon fill="red" stroke="red" stroke-width="2" points="197.88,-116.64 205.1,-108.88 194.62,-110.44 197.88,-116.64"/>
</g>
<!-- :feature:favorites:domain&#45;&gt;:core:common -->
<g id="edge4" class="edge">
<title>:feature:favorites:domain&#45;&gt;:core:common</title>
<path fill="none" stroke="red" stroke-width="2" d="M222.85,-72.05C214.78,-63.63 204.88,-53.28 195.96,-43.97"/>
<polygon fill="red" stroke="red" stroke-width="2" points="199.67,-42.78 190.23,-37.98 194.62,-47.62 199.67,-42.78"/>
</g>
</g>
</svg>
